  0
SECTION
  2
HEADER
  9
$ACADVER
  1
AC1015
  9
$ACADMAINTVER
 70
     6
  9
$DWGCODEPAGE
  3
ANSI_1252
  9
$INSBASE
 10
0.0
 20
0.0
 30
0.0
  9
$EXTMIN
 10
-14.4606346967
 20
-80.129825341
 30
0.0
  9
$EXTMAX
 10
32.0921283038
 20
-24.1726580742
 30
0.0
  9
$LIMMIN
 10
0.0
 20
0.0
  9
$LIMMAX
 10
12.0
 20
9.0
  9
$ORTHOMODE
 70
     0
  9
$REGENMODE
 70
     1
  9
$FILLMODE
 70
     1
  9
$QTEXTMODE
 70
     0
  9
$MIRRTEXT
 70
     1
  9
$LTSCALE
 40
1.0
  9
$ATTMODE
 70
     1
  9
$TEXTSIZE
 40
0.1377952756
  9
$TRACEWID
 40
0.05
  9
$TEXTSTYLE
  7
Standard
  9
$CLAYER
  8
0
  9
$CELTYPE
  6
ByLayer
  9
$CECOLOR
 62
   256
  9
$CELTSCALE
 40
1.0
  9
$DISPSILH
 70
     0
  9
$DIMSCALE
 40
1.0
  9
$DIMASZ
 40
0.14
  9
$DIMEXO
 40
0.0
  9
$DIMDLI
 40
0.38
  9
$DIMRND
 40
0.0
  9
$DIMDLE
 40
0.0
  9
$DIMEXE
 40
0.0393700787
  9
$DIMTP
 40
0.0
  9
$DIMTM
 40
0.0
  9
$DIMTXT
 40
0.1377952756
  9
$DIMCEN
 40
0.09
  9
$DIMTSZ
 40
0.0
  9
$DIMTOL
 70
     0
  9
$DIMLIM
 70
     0
  9
$DIMTIH
 70
     1
  9
$DIMTOH
 70
     1
  9
$DIMSE1
 70
     0
  9
$DIMSE2
 70
     0
  9
$DIMTAD
 70
     1
  9
$DIMZIN
 70
     1
  9
$DIMBLK
  1

  9
$DIMASO
 70
     1
  9
$DIMSHO
 70
     1
  9
$DIMPOST
  1

  9
$DIMAPOST
  1

  9
$DIMALT
 70
     0
  9
$DIMALTD
 70
     2
  9
$DIMALTF
 40
25.4
  9
$DIMLFAC
 40
1.0
  9
$DIMTOFL
 70
     0
  9
$DIMTVP
 40
0.0
  9
$DIMTIX
 70
     0
  9
$DIMSOXD
 70
     0
  9
$DIMSAH
 70
     0
  9
$DIMBLK1
  1

  9
$DIMBLK2
  1

  9
$DIMSTYLE
  2
Standard
  9
$DIMCLRD
 70
     0
  9
$DIMCLRE
 70
     0
  9
$DIMCLRT
 70
     0
  9
$DIMTFAC
 40
1.0
  9
$DIMGAP
 40
0.06
  9
$DIMJUST
 70
     0
  9
$DIMSD1
 70
     0
  9
$DIMSD2
 70
     0
  9
$DIMTOLJ
 70
     1
  9
$DIMTZIN
 70
     1
  9
$DIMALTZ
 70
     0
  9
$DIMALTTZ
 70
     0
  9
$DIMUPT
 70
     0
  9
$DIMDEC
 70
     2
  9
$DIMTDEC
 70
     2
  9
$DIMALTU
 70
     2
  9
$DIMALTTD
 70
     2
  9
$DIMTXSTY
  7
Standard
  9
$DIMAUNIT
 70
     0
  9
$DIMADEC
 70
     2
  9
$DIMALTRND
 40
0.0
  9
$DIMAZIN
 70
     0
  9
$DIMDSEP
 70
    46
  9
$DIMATFIT
 70
     3
  9
$DIMFRAC
 70
     0
  9
$DIMLDRBLK
  1

  9
$DIMLUNIT
 70
     2
  9
$DIMLWD
 70
    -2
  9
$DIMLWE
 70
    -2
  9
$DIMTMOVE
 70
     0
  9
$LUNITS
 70
     2
  9
$LUPREC
 70
     2
  9
$SKETCHINC
 40
0.1
  9
$FILLETRAD
 40
0.0
  9
$AUNITS
 70
     0
  9
$AUPREC
 70
     2
  9
$MENU
  1
.
  9
$ELEVATION
 40
0.0
  9
$PELEVATION
 40
0.0
  9
$THICKNESS
 40
0.0
  9
$LIMCHECK
 70
     0
  9
$CHAMFERA
 40
0.0
  9
$CHAMFERB
 40
0.0
  9
$CHAMFERC
 40
0.0
  9
$CHAMFERD
 40
0.0
  9
$SKPOLY
 70
     0
  9
$TDCREATE
 40
2459993.592776944
  9
$TDUCREATE
 40
2459993.801110278
  9
$TDUPDATE
 40
2459993.592873901
  9
$TDUUPDATE
 40
2459993.801207234
  9
$TDINDWG
 40
0.0000000116
  9
$TDUSRTIMER
 40
0.0000000116
  9
$USRTIMER
 70
     1
  9
$ANGBASE
 50
0.0
  9
$ANGDIR
 70
     0
  9
$PDMODE
 70
     0
  9
$PDSIZE
 40
-1.0
  9
$PLINEWID
 40
0.0
  9
$SPLFRAME
 70
     0
  9
$SPLINETYPE
 70
     6
  9
$SPLINESEGS
 70
     8
  9
$HANDSEED
  5
26C
  9
$SURFTAB1
 70
     6
  9
$SURFTAB2
 70
     6
  9
$SURFTYPE
 70
     6
  9
$SURFU
 70
     6
  9
$SURFV
 70
     6
  9
$UCSBASE
  2

  9
$UCSNAME
  2

  9
$UCSORG
 10
0.0
 20
0.0
 30
0.0
  9
$UCSXDIR
 10
1.0
 20
0.0
 30
0.0
  9
$UCSYDIR
 10
0.0
 20
1.0
 30
0.0
  9
$UCSORTHOREF
  2

  9
$UCSORTHOVIEW
 70
     0
  9
$UCSORGTOP
 10
0.0
 20
0.0
 30
0.0
  9
$UCSORGBOTTOM
 10
0.0
 20
0.0
 30
0.0
  9
$UCSORGLEFT
 10
0.0
 20
0.0
 30
0.0
  9
$UCSORGRIGHT
 10
0.0
 20
0.0
 30
0.0
  9
$UCSORGFRONT
 10
0.0
 20
0.0
 30
0.0
  9
$UCSORGBACK
 10
0.0
 20
0.0
 30
0.0
  9
$PUCSBASE
  2

  9
$PUCSNAME
  2

  9
$PUCSORG
 10
0.0
 20
0.0
 30
0.0
  9
$PUCSXDIR
 10
1.0
 20
0.0
 30
0.0
  9
$PUCSYDIR
 10
0.0
 20
1.0
 30
0.0
  9
$PUCSORTHOREF
  2

  9
$PUCSORTHOVIEW
 70
     0
  9
$PUCSORGTOP
 10
0.0
 20
0.0
 30
0.0
  9
$PUCSORGBOTTOM
 10
0.0
 20
0.0
 30
0.0
  9
$PUCSORGLEFT
 10
0.0
 20
0.0
 30
0.0
  9
$PUCSORGRIGHT
 10
0.0
 20
0.0
 30
0.0
  9
$PUCSORGFRONT
 10
0.0
 20
0.0
 30
0.0
  9
$PUCSORGBACK
 10
0.0
 20
0.0
 30
0.0
  9
$USERI1
 70
     0
  9
$USERI2
 70
     0
  9
$USERI3
 70
     0
  9
$USERI4
 70
     0
  9
$USERI5
 70
     0
  9
$USERR1
 40
0.0
  9
$USERR2
 40
0.0
  9
$USERR3
 40
0.0
  9
$USERR4
 40
0.0
  9
$USERR5
 40
0.0
  9
$WORLDVIEW
 70
     1
  9
$SHADEDGE
 70
     3
  9
$SHADEDIF
 70
    70
  9
$TILEMODE
 70
     1
  9
$MAXACTVP
 70
    64
  9
$PINSBASE
 10
0.0
 20
0.0
 30
0.0
  9
$PLIMCHECK
 70
     0
  9
$PEXTMIN
 10
-45.9852088788
 20
-40.7083349993
 30
0.0
  9
$PEXTMAX
 10
11.798765417
 20
-11.6339227101
 30
0.0
  9
$PLIMMIN
 10
-47.3610200088
 20
-42.0841439627
  9
$PLIMMAX
 10
13.1745743803
 20
4.6933607926
  9
$UNITMODE
 70
     0
  9
$VISRETAIN
 70
     1
  9
$PLINEGEN
 70
     0
  9
$PSLTSCALE
 70
     1
  9
$TREEDEPTH
 70
  3020
  9
$CMLSTYLE
  2
Standard
  9
$CMLJUST
 70
     0
  9
$CMLSCALE
 40
1.0
  9
$PROXYGRAPHICS
 70
     1
  9
$MEASUREMENT
 70
     0
  9
$CELWEIGHT
370
    -1
  9
$ENDCAPS
280
     0
  9
$JOINSTYLE
280
     0
  9
$LWDISPLAY
290
     1
  9
$INSUNITS
 70
     1
  9
$HYPERLINKBASE
  1

  9
$STYLESHEET
  1

  9
$XEDIT
290
     1
  9
$CEPSNTYPE
380
     0
  9
$PSTYLEMODE
290
     1
  9
$FINGERPRINTGUID
  2
{194db5b6-65ba-441f-99b2-756fe0bf97d4}
  9
$VERSIONGUID
  2
{FAEB1C32-E019-11D5-929B-00C0DF256EC4}
  9
$EXTNAMES
290
     1
  9
$PSVPSCALE
 40
0.0
  9
$OLESTARTUP
290
     0
  0
ENDSEC
  0
SECTION
  2
CLASSES
  0
CLASS
  1
ACDBDICTIONARYWDFLT
  2
AcDbDictionaryWithDefault
  3
ObjectDBX Classes
 90
        0
280
     0
281
     0
  0
CLASS
  1
VISUALSTYLE
  2
AcDbVisualStyle
  3
ObjectDBX Classes
 90
     4095
280
     0
281
     0
  0
CLASS
  1
MATERIAL
  2
AcDbMaterial
  3
ObjectDBX Classes
 90
     1153
280
     0
281
     0
  0
CLASS
  1
SCALE
  2
AcDbScale
  3
ObjectDBX Classes
 90
     1153
280
     0
281
     0
  0
CLASS
  1
TABLESTYLE
  2
AcDbTableStyle
  3
ObjectDBX Classes
 90
     4095
280
     0
281
     0
  0
CLASS
  1
MLEADERSTYLE
  2
AcDbMLeaderStyle
  3
ACDB_MLEADERSTYLE_CLASS
 90
     4095
280
     0
281
     0
  0
CLASS
  1
SUN
  2
AcDbSun
  3
SCENEOE
 90
     1153
280
     0
281
     0
  0
CLASS
  1
ACDBPLACEHOLDER
  2
AcDbPlaceHolder
  3
ObjectDBX Classes
 90
        0
280
     0
281
     0
  0
CLASS
  1
LAYOUT
  2
AcDbLayout
  3
ObjectDBX Classes
 90
        0
280
     0
281
     0
  0
ENDSEC
  0
SECTION
  2
TABLES
  0
TABLE
  2
VPORT
  5
8
330
0
100
AcDbSymbolTable
 70
     1
  0
VPORT
  5
29
330
8
100
AcDbSymbolTableRecord
100
AcDbViewportTableRecord
  2
*Active
 70
     0
 10
0.0
 20
0.0
 11
1.0
 21
1.0
 12
8.8157468036
 22
-52.1512417076
 13
0.0
 23
0.0
 14
0.5
 24
0.5
 15
0.5
 25
0.5
 16
0.0
 26
0.0
 36
1.0
 17
0.0
 27
0.0
 37
0.0
 40
57.0763106122
 41
0.8319356621
 42
50.0
 43
0.0
 44
0.0
 50
0.0
 51
0.0
 71
     0
 72
   100
 73
     1
 74
     3
 75
     0
 76
     0
 77
     0
 78
     0
281
     0
 65
     1
110
0.0
120
0.0
130
0.0
111
1.0
121
0.0
131
0.0
112
0.0
122
1.0
132
0.0
 79
     0
146
0.0
  0
ENDTAB
  0
TABLE
  2
LTYPE
  5
5
330
0
100
AcDbSymbolTable
 70
     6
  0
LTYPE
  5
14
330
5
100
AcDbSymbolTableRecord
100
AcDbLinetypeTableRecord
  2
ByBlock
 70
     0
  3

 72
    65
 73
     0
 40
0.0
  0
LTYPE
  5
15
330
5
100
AcDbSymbolTableRecord
100
AcDbLinetypeTableRecord
  2
ByLayer
 70
     0
  3

 72
    65
 73
     0
 40
0.0
  0
LTYPE
  5
16
330
5
100
AcDbSymbolTableRecord
100
AcDbLinetypeTableRecord
  2
Continuous
 70
     0
  3
Solid line
 72
    65
 73
     0
 40
0.0
  0
LTYPE
  5
5E
330
5
100
AcDbSymbolTableRecord
100
AcDbLinetypeTableRecord
  2
HIDDEN
 70
     0
  3
Hidden __ __ __ __ __ __ __ __ __ __ __ __ __ __
 72
    65
 73
     2
 40
0.075
 49
0.05
 74
     0
 49
-0.025
 74
     0
  0
LTYPE
  5
5F
330
5
100
AcDbSymbolTableRecord
100
AcDbLinetypeTableRecord
  2
PHANTOM
 70
     0
  3
Phantom ______  __  __  ______  __  __  ______
 72
    65
 73
     6
 40
0.5
 49
0.25
 74
     0
 49
-0.05
 74
     0
 49
0.05
 74
     0
 49
-0.05
 74
     0
 49
0.05
 74
     0
 49
-0.05
 74
     0
  0
LTYPE
  5
60
330
5
100
AcDbSymbolTableRecord
100
AcDbLinetypeTableRecord
  2
CENTER
 70
     0
  3
Center ____ _ ____ _ ____ _ ____ _ ____ _ ____
 72
    65
 73
     4
 40
0.4
 49
0.25
 74
     0
 49
-0.05
 74
     0
 49
0.05
 74
     0
 49
-0.05
 74
     0
  0
LTYPE
  5
61
330
5
100
AcDbSymbolTableRecord
100
AcDbLinetypeTableRecord
  2
CENTERX2
 70
     0
  3
Center (2x) ________  __  ________  __  _____
 72
    65
 73
     4
 40
0.8
 49
0.5
 74
     0
 49
-0.1
 74
     0
 49
0.1
 74
     0
 49
-0.1
 74
     0
  0
LTYPE
  5
62
330
5
100
AcDbSymbolTableRecord
100
AcDbLinetypeTableRecord
  2
DOT2
 70
     0
  3
Dot (.5x) ........................................
 72
    65
 73
     2
 40
0.025
 49
0.0
 74
     0
 49
-0.025
 74
     0
  0
ENDTAB
  0
TABLE
  2
LAYER
  5
2
330
0
100
AcDbSymbolTable
 70
     1
  0
LAYER
  5
10
330
2
100
AcDbSymbolTableRecord
100
AcDbLayerTableRecord
  2
0
 70
     0
 62
     7
  6
Continuous
370
    -3
390
F
  0
ENDTAB
  0
TABLE
  2
STYLE
  5
3
330
0
100
AcDbSymbolTable
 70
     2
  0
STYLE
  5
11
330
3
100
AcDbSymbolTableRecord
100
AcDbTextStyleTableRecord
  2
Standard
 70
     0
 40
0.0
 41
1.0
 50
0.0
 71
     0
 42
0.1377952756
  3
txt
  4

  0
STYLE
  5
266
330
3
100
AcDbSymbolTableRecord
100
AcDbTextStyleTableRecord
  2
SLDTEXTSTYLE0
 70
     0
 40
0.0
 41
0.7
 50
0.0
 71
     0
 42
0.1377952756
  3
TXT
  4

  0
ENDTAB
  0
TABLE
  2
VIEW
  5
6
330
0
100
AcDbSymbolTable
 70
     0
  0
ENDTAB
  0
TABLE
  2
UCS
  5
7
330
0
100
AcDbSymbolTable
 70
     0
  0
ENDTAB
  0
TABLE
  2
APPID
  5
9
330
0
100
AcDbSymbolTable
 70
     1
  0
APPID
  5
12
330
9
100
AcDbSymbolTableRecord
100
AcDbRegAppTableRecord
  2
ACAD
 70
     0
  0
ENDTAB
  0
TABLE
  2
DIMSTYLE
  5
A
330
0
100
AcDbSymbolTable
 70
     1
100
AcDbDimStyleTable
  0
DIMSTYLE
105
27
330
A
100
AcDbSymbolTableRecord
100
AcDbDimStyleTableRecord
  2
Standard
 70
     0
178
     0
340
11
  0
ENDTAB
  0
TABLE
  2
BLOCK_RECORD
  5
1
330
0
100
AcDbSymbolTable
 70
     1
  0
BLOCK_RECORD
  5
1F
330
1
100
AcDbSymbolTableRecord
100
AcDbBlockTableRecord
  2
*Model_Space
340
22
  0
BLOCK_RECORD
  5
1B
330
1
100
AcDbSymbolTableRecord
100
AcDbBlockTableRecord
  2
*Paper_Space
340
1E
  0
BLOCK_RECORD
  5
23
330
1
100
AcDbSymbolTableRecord
100
AcDbBlockTableRecord
  2
*Paper_Space0
340
26
  0
ENDTAB
  0
ENDSEC
  0
SECTION
  2
BLOCKS
  0
BLOCK
  5
20
330
1F
100
AcDbEntity
  8
0
100
AcDbBlockBegin
  2
*Model_Space
 70
     0
 10
0.0
 20
0.0
 30
0.0
  3
*Model_Space
  1

  0
ENDBLK
  5
21
330
1F
100
AcDbEntity
  8
0
100
AcDbBlockEnd
  0
BLOCK
  5
1C
330
1B
100
AcDbEntity
 67
     1
  8
0
100
AcDbBlockBegin
  2
*Paper_Space
 70
     0
 10
0.0
 20
0.0
 30
0.0
  3
*Paper_Space
  1

  0
ENDBLK
  5
1D
330
1B
100
AcDbEntity
 67
     1
  8
0
100
AcDbBlockEnd
  0
BLOCK
  5
24
330
23
100
AcDbEntity
  8
0
100
AcDbBlockBegin
  2
*Paper_Space0
 70
     0
 10
0.0
 20
0.0
 30
0.0
  3
*Paper_Space0
  1

  0
ENDBLK
  5
25
330
23
100
AcDbEntity
  8
0
100
AcDbBlockEnd
  0
ENDSEC
  0
SECTION
  2
ENTITIES
  0
CIRCLE
  5
81
330
1F
100
AcDbEntity
  8
0
  6
Continuous
 62
     7
370
    25
100
AcDbCircle
 10
-1.0781346967
 20
-46.629825341
 30
0.0
 40
1.810999999999993
  0
CIRCLE
  5
82
330
1F
100
AcDbEntity
  8
0
  6
Continuous
 62
     7
370
    25
100
AcDbCircle
 10
-2.0106346967
 20
-75.629825341
 30
0.0
 40
1.81100000000005
  0
CIRCLE
  5
9D
330
1F
100
AcDbEntity
  8
0
  6
Continuous
 62
     7
370
    25
100
AcDbCircle
 10
27.0921283038
 20
-37.5551580742
 30
0.0
 40
1.810999999999961
  0
CIRCLE
  5
9E
330
1F
100
AcDbEntity
  8
0
  6
Continuous
 62
     7
370
    25
100
AcDbCircle
 10
-1.9078716962
 20
-36.6226580742
 30
0.0
 40
1.810999999999999
  0
LINE
  5
B9
330
1F
100
AcDbEntity
  8
0
  6
Continuous
 62
     7
370
    25
100
AcDbLine
 10
30.0354179577
 20
-72.4716254203
 30
0.0
 11
31.0354179577
 21
-72.4716254203
 31
0.0
  0
LINE
  5
BA
330
1F
100
AcDbEntity
  8
0
  6
Continuous
 62
     7
370
    25
100
AcDbLine
 10
30.0354179577
 20
-72.4716254203
 30
0.0
 11
30.0354179577
 21
-73.4716254203
 31
0.0
  0
LINE
  5
BB
330
1F
100
AcDbEntity
  8
0
  6
Continuous
 62
     7
370
    25
100
AcDbLine
 10
23.7354179577
 20
-73.4716254203
 30
0.0
 11
30.0354179577
 21
-73.4716254203
 31
0.0
  0
LINE
  5
BC
330
1F
100
AcDbEntity
  8
0
  6
Continuous
 62
     7
370
    25
100
AcDbLine
 10
23.7354179577
 20
-72.4716254203
 30
0.0
 11
23.7354179577
 21
-73.4716254203
 31
0.0
  0
LINE
  5
BD
330
1F
100
AcDbEntity
  8
0
  6
Continuous
 62
     7
370
    25
100
AcDbLine
 10
23.7354179577
 20
-72.4716254203
 30
0.0
 11
22.7354179577
 21
-72.4716254203
 31
0.0
  0
LINE
  5
BE
330
1F
100
AcDbEntity
  8
0
  6
Continuous
 62
     7
370
    25
100
AcDbLine
 10
22.7354179577
 20
-59.9716254203
 30
0.0
 11
22.7354179577
 21
-72.4716254203
 31
0.0
  0
LINE
  5
BF
330
1F
100
AcDbEntity
  8
0
  6
Continuous
 62
     7
370
    25
100
AcDbLine
 10
23.7354179577
 20
-59.9716254203
 30
0.0
 11
22.7354179577
 21
-59.9716254203
 31
0.0
  0
LINE
  5
C0
330
1F
100
AcDbEntity
  8
0
  6
Continuous
 62
     7
370
    25
100
AcDbLine
 10
22.7620331173
 20
-59.7424487364
 30
0.0
 11
23.7354179577
 21
-59.9716254203
 31
0.0
  0
LINE
  5
C1
330
1F
100
AcDbEntity
  8
0
  6
Continuous
 62
     7
370
    25
100
AcDbLine
 10
24.6220331173
 20
-51.8424487364
 30
0.0
 11
22.7620331173
 21
-59.7424487364
 31
0.0
  0
LINE
  5
C2
330
1F
100
AcDbEntity
  8
0
  6
Continuous
 62
     7
370
    25
100
AcDbLine
 10
25.5954179577
 20
-52.0716254203
 30
0.0
 11
24.6220331173
 21
-51.8424487364
 31
0.0
  0
LINE
  5
C3
330
1F
100
AcDbEntity
  8
0
  6
Continuous
 62
     7
370
    25
100
AcDbLine
 10
25.5954179577
 20
-52.0716254203
 30
0.0
 11
25.5954179577
 21
-51.0716254203
 31
0.0
  0
LINE
  5
C4
330
1F
100
AcDbEntity
  8
0
  6
Continuous
 62
     7
370
    25
100
AcDbLine
 10
25.5954179577
 20
-51.0716254203
 30
0.0
 11
30.0354179577
 21
-51.0716254203
 31
0.0
  0
LINE
  5
C5
330
1F
100
AcDbEntity
  8
0
  6
Continuous
 62
     7
370
    25
100
AcDbLine
 10
30.0354179577
 20
-52.0716254203
 30
0.0
 11
30.0354179577
 21
-51.0716254203
 31
0.0
  0
LINE
  5
C6
330
1F
100
AcDbEntity
  8
0
  6
Continuous
 62
     7
370
    25
100
AcDbLine
 10
31.0354179577
 20
-52.0716254203
 30
0.0
 11
30.0354179577
 21
-52.0716254203
 31
0.0
  0
LINE
  5
C7
330
1F
100
AcDbEntity
  8
0
  6
Continuous
 62
     7
370
    25
100
AcDbLine
 10
31.0354179577
 20
-52.0716254203
 30
0.0
 11
31.0354179577
 21
-72.4716254203
 31
0.0
  0
LINE
  5
C8
330
1F
100
AcDbEntity
  8
0
  6
Continuous
 62
     7
370
    25
100
AcDbLine
 10
20.1284073121
 20
-72.3377468981
 30
0.0
 11
21.1284073121
 21
-72.3377468981
 31
0.0
  0
LINE
  5
C9
330
1F
100
AcDbEntity
  8
0
  6
Continuous
 62
     7
370
    25
100
AcDbLine
 10
20.1284073121
 20
-72.3377468981
 30
0.0
 11
20.1284073121
 21
-73.3377468981
 31
0.0
  0
LINE
  5
CA
330
1F
100
AcDbEntity
  8
0
  6
Continuous
 62
     7
370
    25
100
AcDbLine
 10
13.8284073121
 20
-73.3377468981
 30
0.0
 11
20.1284073121
 21
-73.3377468981
 31
0.0
  0
LINE
  5
CB
330
1F
100
AcDbEntity
  8
0
  6
Continuous
 62
     7
370
    25
100
AcDbLine
 10
13.8284073121
 20
-72.3377468981
 30
0.0
 11
13.8284073121
 21
-73.3377468981
 31
0.0
  0
LINE
  5
CC
330
1F
100
AcDbEntity
  8
0
  6
Continuous
 62
     7
370
    25
100
AcDbLine
 10
13.8284073121
 20
-72.3377468981
 30
0.0
 11
12.8284073121
 21
-72.3377468981
 31
0.0
  0
LINE
  5
CD
330
1F
100
AcDbEntity
  8
0
  6
Continuous
 62
     7
370
    25
100
AcDbLine
 10
12.8284073121
 20
-59.8377468981
 30
0.0
 11
12.8284073121
 21
-72.3377468981
 31
0.0
  0
LINE
  5
CE
330
1F
100
AcDbEntity
  8
0
  6
Continuous
 62
     7
370
    25
100
AcDbLine
 10
13.8284073121
 20
-59.8377468981
 30
0.0
 11
12.8284073121
 21
-59.8377468981
 31
0.0
  0
LINE
  5
CF
330
1F
100
AcDbEntity
  8
0
  6
Continuous
 62
     7
370
    25
100
AcDbLine
 10
12.8550224717
 20
-59.6085702141
 30
0.0
 11
13.8284073121
 21
-59.8377468981
 31
0.0
  0
LINE
  5
D0
330
1F
100
AcDbEntity
  8
0
  6
Continuous
 62
     7
370
    25
100
AcDbLine
 10
14.7150224717
 20
-51.7085702141
 30
0.0
 11
12.8550224717
 21
-59.6085702141
 31
0.0
  0
LINE
  5
D1
330
1F
100
AcDbEntity
  8
0
  6
Continuous
 62
     7
370
    25
100
AcDbLine
 10
15.6884073121
 20
-51.9377468981
 30
0.0
 11
14.7150224717
 21
-51.7085702141
 31
0.0
  0
LINE
  5
D2
330
1F
100
AcDbEntity
  8
0
  6
Continuous
 62
     7
370
    25
100
AcDbLine
 10
15.6884073121
 20
-50.9377468981
 30
0.0
 11
20.1284073121
 21
-50.9377468981
 31
0.0
  0
LINE
  5
D3
330
1F
100
AcDbEntity
  8
0
  6
Continuous
 62
     7
370
    25
100
AcDbLine
 10
20.1284073121
 20
-51.9377468981
 30
0.0
 11
20.1284073121
 21
-50.9377468981
 31
0.0
  0
LINE
  5
D4
330
1F
100
AcDbEntity
  8
0
  6
Continuous
 62
     7
370
    25
100
AcDbLine
 10
21.1284073121
 20
-51.9377468981
 30
0.0
 11
20.1284073121
 21
-51.9377468981
 31
0.0
  0
LINE
  5
D5
330
1F
100
AcDbEntity
  8
0
  6
Continuous
 62
     7
370
    25
100
AcDbLine
 10
21.1284073121
 20
-51.9377468981
 30
0.0
 11
21.1284073121
 21
-72.3377468981
 31
0.0
  0
LINE
  5
D6
330
1F
100
AcDbEntity
  8
0
  6
Continuous
 62
     7
370
    25
100
AcDbLine
 10
15.6884073121
 20
-51.9377468981
 30
0.0
 11
15.6884073121
 21
-50.9377468981
 31
0.0
  0
LINE
  5
D7
330
1F
100
AcDbEntity
  8
0
  6
Continuous
 62
     7
370
    25
100
AcDbLine
 10
-1.2606346967
 20
-72.529825341
 30
0.0
 11
-0.0606346967
 21
-72.529825341
 31
0.0
  0
LINE
  5
D8
330
1F
100
AcDbEntity
  8
0
  6
Continuous
 62
     7
370
    25
100
AcDbLine
 10
-1.2606346967
 20
-71.529825341
 30
0.0
 11
-0.0606346967
 21
-71.529825341
 31
0.0
  0
LINE
  5
D9
330
1F
100
AcDbEntity
  8
0
  6
Continuous
 62
     7
370
    25
100
AcDbLine
 10
-14.4606346967
 20
-58.629825341
 30
0.0
 11
-14.4606346967
 21
-71.129825341
 31
0.0
  0
LINE
  5
DA
330
1F
100
AcDbEntity
  8
0
  6
Continuous
 62
     7
370
    25
100
AcDbLine
 10
-4.9606346967
 20
-58.629825341
 30
0.0
 11
-14.4606346967
 21
-58.629825341
 31
0.0
  0
LINE
  5
DB
330
1F
100
AcDbEntity
  8
0
  6
Continuous
 62
     7
370
    25
100
AcDbLine
 10
-14.1805927702
 20
-56.3402024194
 30
0.0
 11
-4.9606346967
 21
-58.629825341
 31
0.0
  0
LINE
  5
DC
330
1F
100
AcDbEntity
  8
0
  6
Continuous
 62
     7
370
    25
100
AcDbLine
 10
-14.1805927702
 20
-56.3402024194
 30
0.0
 11
-12.3180927702
 21
-48.8402024194
 31
0.0
  0
LINE
  5
DD
330
1F
100
AcDbEntity
  8
0
  6
Continuous
 62
     7
370
    25
100
AcDbLine
 10
-3.0981346967
 20
-51.129825341
 30
0.0
 11
-12.3180927702
 21
-48.8402024194
 31
0.0
  0
LINE
  5
DE
330
1F
100
AcDbEntity
  8
0
  6
Continuous
 62
     7
370
    25
100
AcDbLine
 10
-3.0981346967
 20
-41.629825341
 30
0.0
 11
-3.0981346967
 21
-51.129825341
 31
0.0
  0
LINE
  5
DF
330
1F
100
AcDbEntity
  8
0
  6
Continuous
 62
     7
370
    25
100
AcDbLine
 10
-3.0981346967
 20
-41.629825341
 30
0.0
 11
0.9393653033
 21
-41.629825341
 31
0.0
  0
LINE
  5
E0
330
1F
100
AcDbEntity
  8
0
  6
Continuous
 62
     7
370
    25
100
AcDbLine
 10
0.9393653033
 20
-42.129825341
 30
0.0
 11
0.9393653033
 21
-41.629825341
 31
0.0
  0
LINE
  5
E1
330
1F
100
AcDbEntity
  8
0
  6
Continuous
 62
     7
370
    25
100
AcDbLine
 10
1.6893653033
 20
-42.879825341
 30
0.0
 11
0.9393653033
 21
-42.129825341
 31
0.0
  0
LINE
  5
E2
330
1F
100
AcDbEntity
  8
0
  6
Continuous
 62
     7
370
    25
100
AcDbLine
 10
1.6893653033
 20
-50.379825341
 30
0.0
 11
1.6893653033
 21
-42.879825341
 31
0.0
  0
LINE
  5
E3
330
1F
100
AcDbEntity
  8
0
  6
Continuous
 62
     7
370
    25
100
AcDbLine
 10
0.9393653033
 20
-51.129825341
 30
0.0
 11
1.6893653033
 21
-50.379825341
 31
0.0
  0
LINE
  5
E4
330
1F
100
AcDbEntity
  8
0
  6
Continuous
 62
     7
370
    25
100
AcDbLine
 10
10.4393653033
 20
-51.129825341
 30
0.0
 11
0.9393653033
 21
-51.129825341
 31
0.0
  0
LINE
  5
E5
330
1F
100
AcDbEntity
  8
0
  6
Continuous
 62
     7
370
    25
100
AcDbLine
 10
10.4393653033
 20
-51.129825341
 30
0.0
 11
10.4393653033
 21
-71.129825341
 31
0.0
  0
LINE
  5
E6
330
1F
100
AcDbEntity
  8
0
  6
Continuous
 62
     7
370
    25
100
AcDbLine
 10
0.9393653033
 20
-71.129825341
 30
0.0
 11
10.4393653033
 21
-71.129825341
 31
0.0
  0
LINE
  5
E7
330
1F
100
AcDbEntity
  8
0
  6
Continuous
 62
     7
370
    25
100
AcDbLine
 10
0.9393653033
 20
-71.129825341
 30
0.0
 11
1.6893653033
 21
-71.879825341
 31
0.0
  0
LINE
  5
E8
330
1F
100
AcDbEntity
  8
0
  6
Continuous
 62
     7
370
    25
100
AcDbLine
 10
1.6893653033
 20
-71.879825341
 30
0.0
 11
1.6893653033
 21
-79.379825341
 31
0.0
  0
LINE
  5
E9
330
1F
100
AcDbEntity
  8
0
  6
Continuous
 62
     7
370
    25
100
AcDbLine
 10
1.6893653033
 20
-79.379825341
 30
0.0
 11
0.9393653033
 21
-80.129825341
 31
0.0
  0
LINE
  5
EA
330
1F
100
AcDbEntity
  8
0
  6
Continuous
 62
     7
370
    25
100
AcDbLine
 10
-4.9606346967
 20
-80.129825341
 30
0.0
 11
0.9393653033
 21
-80.129825341
 31
0.0
  0
LINE
  5
EB
330
1F
100
AcDbEntity
  8
0
  6
Continuous
 62
     7
370
    25
100
AcDbLine
 10
-5.7106346967
 20
-79.379825341
 30
0.0
 11
-4.9606346967
 21
-80.129825341
 31
0.0
  0
LINE
  5
EC
330
1F
100
AcDbEntity
  8
0
  6
Continuous
 62
     7
370
    25
100
AcDbLine
 10
-5.7106346967
 20
-71.879825341
 30
0.0
 11
-5.7106346967
 21
-79.379825341
 31
0.0
  0
LINE
  5
ED
330
1F
100
AcDbEntity
  8
0
  6
Continuous
 62
     7
370
    25
100
AcDbLine
 10
-4.9606346967
 20
-71.129825341
 30
0.0
 11
-5.7106346967
 21
-71.879825341
 31
0.0
  0
LINE
  5
EE
330
1F
100
AcDbEntity
  8
0
  6
Continuous
 62
     7
370
    25
100
AcDbLine
 10
-4.9606346967
 20
-71.129825341
 30
0.0
 11
-14.4606346967
 21
-71.129825341
 31
0.0
  0
LINE
  5
EF
330
1F
100
AcDbEntity
  8
0
  6
Continuous
 62
     7
370
    25
100
AcDbLine
 10
1.1921283038
 20
-37.3726580742
 30
0.0
 11
1.1921283038
 21
-38.5726580742
 31
0.0
  0
LINE
  5
F0
330
1F
100
AcDbEntity
  8
0
  6
Continuous
 62
     7
370
    25
100
AcDbLine
 10
2.1921283038
 20
-37.3726580742
 30
0.0
 11
2.1921283038
 21
-38.5726580742
 31
0.0
  0
LINE
  5
F1
330
1F
100
AcDbEntity
  8
0
  6
Continuous
 62
     7
370
    25
100
AcDbLine
 10
17.3817512254
 20
-24.4527000007
 30
0.0
 11
15.0921283038
 21
-33.6726580742
 31
0.0
  0
LINE
  5
F2
330
1F
100
AcDbEntity
  8
0
  6
Continuous
 62
     7
370
    25
100
AcDbLine
 10
17.3817512254
 20
-24.4527000007
 30
0.0
 11
24.8817512254
 21
-26.3152000007
 31
0.0
  0
LINE
  5
F3
330
1F
100
AcDbEntity
  8
0
  6
Continuous
 62
     7
370
    25
100
AcDbLine
 10
22.5921283038
 20
-35.5351580742
 30
0.0
 11
24.8817512254
 21
-26.3152000007
 31
0.0
  0
LINE
  5
F4
330
1F
100
AcDbEntity
  8
0
  6
Continuous
 62
     7
370
    25
100
AcDbLine
 10
32.0921283038
 20
-35.5351580742
 30
0.0
 11
22.5921283038
 21
-35.5351580742
 31
0.0
  0
LINE
  5
F5
330
1F
100
AcDbEntity
  8
0
  6
Continuous
 62
     7
370
    25
100
AcDbLine
 10
32.0921283038
 20
-35.5351580742
 30
0.0
 11
32.0921283038
 21
-39.5726580742
 31
0.0
  0
LINE
  5
F6
330
1F
100
AcDbEntity
  8
0
  6
Continuous
 62
     7
370
    25
100
AcDbLine
 10
31.5921283038
 20
-39.5726580742
 30
0.0
 11
32.0921283038
 21
-39.5726580742
 31
0.0
  0
LINE
  5
F7
330
1F
100
AcDbEntity
  8
0
  6
Continuous
 62
     7
370
    25
100
AcDbLine
 10
30.8421283038
 20
-40.3226580742
 30
0.0
 11
31.5921283038
 21
-39.5726580742
 31
0.0
  0
LINE
  5
F8
330
1F
100
AcDbEntity
  8
0
  6
Continuous
 62
     7
370
    25
100
AcDbLine
 10
23.3421283038
 20
-40.3226580742
 30
0.0
 11
30.8421283038
 21
-40.3226580742
 31
0.0
  0
LINE
  5
F9
330
1F
100
AcDbEntity
  8
0
  6
Continuous
 62
     7
370
    25
100
AcDbLine
 10
22.5921283038
 20
-39.5726580742
 30
0.0
 11
23.3421283038
 21
-40.3226580742
 31
0.0
  0
LINE
  5
FA
330
1F
100
AcDbEntity
  8
0
  6
Continuous
 62
     7
370
    25
100
AcDbLine
 10
22.5921283038
 20
-49.0726580742
 30
0.0
 11
22.5921283038
 21
-39.5726580742
 31
0.0
  0
LINE
  5
FB
330
1F
100
AcDbEntity
  8
0
  6
Continuous
 62
     7
370
    25
100
AcDbLine
 10
22.5921283038
 20
-49.0726580742
 30
0.0
 11
2.5921283038
 21
-49.0726580742
 31
0.0
  0
LINE
  5
FC
330
1F
100
AcDbEntity
  8
0
  6
Continuous
 62
     7
370
    25
100
AcDbLine
 10
2.5921283038
 20
-39.5726580742
 30
0.0
 11
2.5921283038
 21
-49.0726580742
 31
0.0
  0
LINE
  5
FD
330
1F
100
AcDbEntity
  8
0
  6
Continuous
 62
     7
370
    25
100
AcDbLine
 10
2.5921283038
 20
-39.5726580742
 30
0.0
 11
1.8421283038
 21
-40.3226580742
 31
0.0
  0
LINE
  5
FE
330
1F
100
AcDbEntity
  8
0
  6
Continuous
 62
     7
370
    25
100
AcDbLine
 10
1.8421283038
 20
-40.3226580742
 30
0.0
 11
-5.6578716962
 21
-40.3226580742
 31
0.0
  0
LINE
  5
FF
330
1F
100
AcDbEntity
  8
0
  6
Continuous
 62
     7
370
    25
100
AcDbLine
 10
-5.6578716962
 20
-40.3226580742
 30
0.0
 11
-6.4078716962
 21
-39.5726580742
 31
0.0
  0
LINE
  5
100
330
1F
100
AcDbEntity
  8
0
  6
Continuous
 62
     7
370
    25
100
AcDbLine
 10
-6.4078716962
 20
-33.6726580742
 30
0.0
 11
-6.4078716962
 21
-39.5726580742
 31
0.0
  0
LINE
  5
101
330
1F
100
AcDbEntity
  8
0
  6
Continuous
 62
     7
370
    25
100
AcDbLine
 10
-5.6578716962
 20
-32.9226580742
 30
0.0
 11
-6.4078716962
 21
-33.6726580742
 31
0.0
  0
LINE
  5
102
330
1F
100
AcDbEntity
  8
0
  6
Continuous
 62
     7
370
    25
100
AcDbLine
 10
1.8421283038
 20
-32.9226580742
 30
0.0
 11
-5.6578716962
 21
-32.9226580742
 31
0.0
  0
LINE
  5
103
330
1F
100
AcDbEntity
  8
0
  6
Continuous
 62
     7
370
    25
100
AcDbLine
 10
2.5921283038
 20
-33.6726580742
 30
0.0
 11
1.8421283038
 21
-32.9226580742
 31
0.0
  0
LINE
  5
104
330
1F
100
AcDbEntity
  8
0
  6
Continuous
 62
     7
370
    25
100
AcDbLine
 10
15.0921283038
 20
-24.1726580742
 30
0.0
 11
2.5921283038
 21
-24.1726580742
 31
0.0
  0
LINE
  5
105
330
1F
100
AcDbEntity
  8
0
  6
Continuous
 62
     7
370
    25
100
AcDbLine
 10
15.0921283038
 20
-33.6726580742
 30
0.0
 11
15.0921283038
 21
-24.1726580742
 31
0.0
  0
LINE
  5
106
330
1F
100
AcDbEntity
  8
0
  6
Continuous
 62
     7
370
    25
100
AcDbLine
 10
2.5921283038
 20
-33.6726580742
 30
0.0
 11
2.5921283038
 21
-24.1726580742
 31
0.0
  0
ARC
  5
107
330
1F
100
AcDbEntity
  8
0
  6
Continuous
 62
     7
370
    25
100
AcDbCircle
 10
-0.0606346967
 20
-72.029825341
 30
0.0
 40
0.5
100
AcDbArc
 50
270.0
 51
90.0
  0
ARC
  5
108
330
1F
100
AcDbEntity
  8
0
  6
Continuous
 62
     7
370
    25
100
AcDbCircle
 10
-1.2606346967
 20
-72.029825341
 30
0.0
 40
0.5000000000000142
100
AcDbArc
 50
90.0
 51
270.0
  0
ARC
  5
109
330
1F
100
AcDbEntity
  8
0
  6
Continuous
 62
     7
370
    25
100
AcDbCircle
 10
1.6921283038
 20
-38.5726580742
 30
0.0
 40
0.5000000000000038
100
AcDbArc
 50
180.0
 51
0.0
  0
ARC
  5
10A
330
1F
100
AcDbEntity
  8
0
  6
Continuous
 62
     7
370
    25
100
AcDbCircle
 10
1.6921283038
 20
-37.3726580742
 30
0.0
 40
0.500000000000002
100
AcDbArc
 50
0.0
 51
180.0
  0
MTEXT
  5
269
330
1F
100
AcDbEntity
  8
0
  6
Continuous
 62
     7
100
AcDbMText
 10
-14.4606346967
 20
-80.1699657501
 30
0.0
 40
0.1903
 41
0.0
 71
     1
 72
     1
  1
SOLIDWORKS Educational Product.
  7
SLDTEXTSTYLE0
 73
     1
 44
1.0
  0
MTEXT
  5
26A
330
1F
100
AcDbEntity
  8
0
  6
Continuous
 62
     7
100
AcDbMText
 10
-14.4606346967
 20
-80.4554157501
 30
0.0
 40
0.1903
 41
0.0
 71
     1
 72
     1
  1
For Instructional Use Only.
  7
SLDTEXTSTYLE0
 73
     1
 44
1.0
  0
LWPOLYLINE
  5
147
330
1B
100
AcDbEntity
 67
     1
  8
0
  6
Continuous
 62
     7
370
    25
100
AcDbPolyline
 90
       73
 70
   128
 43
0.0
 10
-23.560631686
 20
-21.8060854289
 10
-23.4178197843
 20
-21.8408854578
 10
-23.2696623966
 20
-21.8691424464
 10
-23.1172870901
 20
-21.8906413418
 10
-22.9618535327
 20
-21.9052185246
 10
-22.8045446679
 20
-21.9127630535
 10
-22.6465577109
 20
-21.9132175101
 10
-22.489095038
 20
-21.9065784357
 10
-22.3333550351
 20
-21.8928963578
 10
-22.1805229777
 20
-21.8722754051
 10
-22.0317620101
 20
-21.8448725156
 10
-21.888204293
 20
-21.8108962418
 10
-21.7509423874
 20
-21.7706051637
 10
-21.6210209393
 20
-21.7243059207
 10
-21.4994287292
 20
-21.672350878
 10
-21.3870911474
 20
-21.6151354448
 10
-21.2848631506
 20
-21.5530950652
 10
-21.1935227557
 20
-21.4867019039
 10
-21.1137651183
 20
-21.4164612529
 10
-21.046197242
 20
-21.342907686
 10
-20.9913333592
 20
-21.2666009902
 10
-20.9495910173
 20
-21.1881219057
 10
-20.9212879006
 20
-21.1080677055
 10
-20.9066394129
 20
-21.0270476506
 10
-20.9057570381
 20
-20.9456783524
 10
-20.9186474916
 20
-20.8645790805
 10
-20.9452126692
 20
-20.7843670492
 10
-20.9852503939
 20
-20.7056527206
 10
-21.0384559545
 20
-20.6290351582
 10
-21.1044244245
 20
-20.555097468
 10
-21.182653744
 20
-20.4844023604
 10
-21.2725485406
 20
-20.4174878678
 10
-21.3734246608
 20
-20.35486325
 10
-21.4845143762
 20
-20.2970051181
 10
-21.6049722271
 20
-20.2443538075
 10
-21.7338814565
 20
-20.1973100263
 10
-21.8702609873
 20
-20.1562318063
 10
-22.0130728889
 20
-20.1214317773
 10
-22.1612302766
 20
-20.0931747888
 10
-22.3136055832
 20
-20.0716758933
 10
-22.4690391405
 20
-20.0570987106
 10
-22.6263480054
 20
-20.0495541817
 10
-22.7843349624
 20
-20.0490997251
 10
-22.9417976353
 20
-20.0557387994
 10
-23.0975376382
 20
-20.0694208774
 10
-23.2503696955
 20
-20.09004183
 10
-23.3991306631
 20
-20.1174447195
 10
-23.5426883802
 20
-20.1514209933
 10
-23.6799502858
 20
-20.1917120714
 10
-23.809871734
 20
-20.2380113145
 10
-23.931463944
 20
-20.2899663572
 10
-24.0438015259
 20
-20.3471817903
 10
-24.1460295226
 20
-20.40922217
 10
-24.2373699175
 20
-20.4756153313
 10
-24.317127555
 20
-20.5458559823
 10
-24.3846954313
 20
-20.6194095492
 10
-24.439559314
 20
-20.695716245
 10
-24.481301656
 20
-20.7741953295
 10
-24.5096047727
 20
-20.8542495297
 10
-24.5242532604
 20
-20.9352695846
 10
-24.5251356352
 20
-21.0166388828
 10
-24.5122451817
 20
-21.0977381547
 10
-24.485680004
 20
-21.177950186
 10
-24.4456422793
 20
-21.2566645146
 10
-24.3924367187
 20
-21.333282077
 10
-24.3264682487
 20
-21.4072197672
 10
-24.2482389292
 20
-21.4779148748
 10
-24.1583441326
 20
-21.5448293674
 10
-24.0574680125
 20
-21.6074539852
 10
-23.9463782971
 20
-21.665312117
 10
-23.8259204462
 20
-21.7179634277
 10
-23.6970112168
 20
-21.7650072088
 10
-23.560631686
 20
-21.8060854289
  0
LWPOLYLINE
  5
148
330
1B
100
AcDbEntity
 67
     1
  8
0
  6
Continuous
 62
     7
370
    25
100
AcDbPolyline
 90
       73
 70
   128
 43
0.0
 10
-37.9195178634
 20
-34.7917054294
 10
-37.7767059618
 20
-34.8265054584
 10
-37.6285485741
 20
-34.8547624469
 10
-37.4761732675
 20
-34.8762613424
 10
-37.3207397102
 20
-34.8908385251
 10
-37.1634308453
 20
-34.898383054
 10
-37.0054438883
 20
-34.8988375106
 10
-36.8479812154
 20
-34.8921984363
 10
-36.6922412125
 20
-34.8785163583
 10
-36.5394091551
 20
-34.8578954057
 10
-36.3906481875
 20
-34.8304925162
 10
-36.2470904705
 20
-34.7965162424
 10
-36.1098285649
 20
-34.7562251643
 10
-35.9799071167
 20
-34.7099259212
 10
-35.8583149066
 20
-34.6579708785
 10
-35.7459773248
 20
-34.6007554454
 10
-35.6437493281
 20
-34.5387150657
 10
-35.5524089332
 20
-34.4723219044
 10
-35.4726512957
 20
-34.4020812534
 10
-35.4050834194
 20
-34.3285276865
 10
-35.3502195367
 20
-34.2522209907
 10
-35.3084771947
 20
-34.1737419062
 10
-35.280174078
 20
-34.0936877061
 10
-35.2655255903
 20
-34.0126676511
 10
-35.2646432155
 20
-33.9312983529
 10
-35.277533669
 20
-33.850199081
 10
-35.3040988466
 20
-33.7699870497
 10
-35.3441365714
 20
-33.6912727211
 10
-35.397342132
 20
-33.6146551587
 10
-35.4633106019
 20
-33.5407174685
 10
-35.5415399214
 20
-33.4700223609
 10
-35.6314347181
 20
-33.4031078683
 10
-35.7323108382
 20
-33.3404832505
 10
-35.8434005536
 20
-33.2826251187
 10
-35.9638584045
 20
-33.229973808
 10
-36.0927676339
 20
-33.1829300269
 10
-36.2291471647
 20
-33.1418518068
 10
-36.3719590664
 20
-33.1070517779
 10
-36.5201164541
 20
-33.0787947893
 10
-36.6724917606
 20
-33.0572958939
 10
-36.8279253179
 20
-33.0427187111
 10
-36.9852341828
 20
-33.0351741822
 10
-37.1432211398
 20
-33.0347197256
 10
-37.3006838127
 20
-33.0413588
 10
-37.4564238156
 20
-33.0550408779
 10
-37.609255873
 20
-33.0756618306
 10
-37.7580168406
 20
-33.1030647201
 10
-37.9015745576
 20
-33.1370409939
 10
-38.0388364632
 20
-33.177332072
 10
-38.1687579114
 20
-33.223631315
 10
-38.2903501215
 20
-33.2755863577
 10
-38.4026877033
 20
-33.3328017909
 10
-38.5049157
 20
-33.3948421705
 10
-38.5962560949
 20
-33.4612353318
 10
-38.6760137324
 20
-33.5314759828
 10
-38.7435816087
 20
-33.6050295497
 10
-38.7984454915
 20
-33.6813362455
 10
-38.8401878334
 20
-33.75981533
 10
-38.8684909501
 20
-33.8398695302
 10
-38.8831394378
 20
-33.9208895851
 10
-38.8840218126
 20
-34.0022588833
 10
-38.8711313591
 20
-34.0833581552
 10
-38.8445661815
 20
-34.1635701865
 10
-38.8045284567
 20
-34.2422845151
 10
-38.7513228962
 20
-34.3189020775
 10
-38.6853544262
 20
-34.3928397677
 10
-38.6071251067
 20
-34.4635348754
 10
-38.51723031
 20
-34.5304493679
 10
-38.4163541899
 20
-34.5930739857
 10
-38.3052644745
 20
-34.6509321176
 10
-38.1848066236
 20
-34.7035834282
 10
-38.0558973942
 20
-34.7506272094
 10
-37.9195178634
 20
-34.7917054294
  0
LWPOLYLINE
  5
14A
330
1B
100
AcDbEntity
 67
     1
  8
0
  6
Continuous
 62
     7
370
    25
100
AcDbPolyline
 90
       19
 70
   128
 43
0.0
 10
-33.4362660822
 20
-32.5679051849
 10
-33.3630223604
 20
-32.5922348373
 10
-33.2990942637
 20
-32.6227454509
 10
-33.2464242149
 20
-32.6585099762
 10
-33.2066125668
 20
-32.698441726
 10
-33.1808689761
 20
-32.7413273944
 10
-33.1699756489
 20
-32.7858639221
 10
-33.1742635734
 20
-32.8306980891
 10
-33.1936024632
 20
-32.8744676321
 10
-33.2274047158
 20
-32.9158426356
 10
-33.274643267
 20
-32.953565941
 10
-33.3338827972
 20
-32.9864913449
 10
-33.4033233434
 20
-33.0136184255
 10
-33.4808549896
 20
-33.0341229401
 10
-33.5641219761
 20
-33.0473818694
 10
-33.6505942775
 20
-33.0529923477
 10
-33.7376444768
 20
-33.0507839033
 10
-33.8226275977
 20
-33.0408236388
 10
-33.9029614711
 20
-33.0234141917
  0
LWPOLYLINE
  5
14C
330
1B
100
AcDbEntity
 67
     1
  8
0
  6
Continuous
 62
     7
370
    25
100
AcDbPolyline
 90
       19
 70
   128
 43
0.0
 10
-34.4975678282
 20
-32.2794661112
 10
-34.5779017016
 20
-32.2620566641
 10
-34.6628848225
 20
-32.2520963996
 10
-34.7499350217
 20
-32.2498879552
 10
-34.8364073232
 20
-32.2554984335
 10
-34.9196743097
 20
-32.2687573628
 10
-34.9972059559
 20
-32.2892618774
 10
-35.0666465021
 20
-32.316388958
 10
-35.1258860323
 20
-32.3493143618
 10
-35.1731245835
 20
-32.3870376673
 10
-35.2069268361
 20
-32.4284126708
 10
-35.2262657259
 20
-32.4721822138
 10
-35.2305536504
 20
-32.5170163808
 10
-35.2196603232
 20
-32.5615529085
 10
-35.1939167325
 20
-32.6044385769
 10
-35.1541050844
 20
-32.6443703267
 10
-35.1014350356
 20
-32.680134852
 10
-35.0375069389
 20
-32.7106454656
 10
-34.9642632171
 20
-32.734975118
  0
LWPOLYLINE
  5
16C
330
1B
100
AcDbEntity
 67
     1
  8
0
  6
Continuous
 62
     7
370
    25
100
AcDbPolyline
 90
       38
 70
   128
 43
0.0
 10
-35.2638298434
 20
-33.9886363847
 10
-35.2646432155
 20
-33.9750138853
 10
-35.277533669
 20
-33.8939146133
 10
-35.3040988466
 20
-33.8137025821
 10
-35.3441365714
 20
-33.7349882535
 10
-35.397342132
 20
-33.6583706911
 10
-35.4633106019
 20
-33.5844330008
 10
-35.5415399214
 20
-33.5137378932
 10
-35.6314347181
 20
-33.4468234007
 10
-35.7323108382
 20
-33.3841987829
 10
-35.8434005536
 20
-33.326340651
 10
-35.9638584045
 20
-33.2736893403
 10
-36.0927676339
 20
-33.2266455592
 10
-36.2291471647
 20
-33.1855673391
 10
-36.3719590664
 20
-33.1507673102
 10
-36.5201164541
 20
-33.1225103216
 10
-36.6724917606
 20
-33.1010114262
 10
-36.8279253179
 20
-33.0864342435
 10
-36.9852341828
 20
-33.0788897146
 10
-37.1432211398
 20
-33.0784352579
 10
-37.3006838127
 20
-33.0850743323
 10
-37.4564238156
 20
-33.0987564102
 10
-37.609255873
 20
-33.1193773629
 10
-37.7580168406
 20
-33.1467802524
 10
-37.9015745576
 20
-33.1807565262
 10
-38.0388364632
 20
-33.2210476043
 10
-38.1687579114
 20
-33.2673468473
 10
-38.2903501215
 20
-33.31930189
 10
-38.4026877033
 20
-33.3765173232
 10
-38.5049157
 20
-33.4385577028
 10
-38.5962560949
 20
-33.5049508642
 10
-38.6760137324
 20
-33.5751915152
 10
-38.7435816087
 20
-33.6487450821
 10
-38.7984454915
 20
-33.7250517778
 10
-38.8401878334
 20
-33.8035308624
 10
-38.8684909501
 20
-33.8835850625
 10
-38.8831394378
 20
-33.9646051175
 10
-38.8848351848
 20
-33.9886363849
  0
LWPOLYLINE
  5
172
330
1B
100
AcDbEntity
 67
     1
  8
0
  6
Continuous
 62
     7
370
    25
100
AcDbPolyline
 90
        7
 70
   128
 43
0.0
 10
-33.4362660822
 20
-32.6116207172
 10
-33.3630223604
 20
-32.6359503697
 10
-33.2990942637
 20
-32.6664609833
 10
-33.2464242149
 20
-32.7022255085
 10
-33.2066125668
 20
-32.7421572583
 10
-33.1808689761
 20
-32.7850429267
 10
-33.1714181117
 20
-32.8175174544
  0
LWPOLYLINE
  5
174
330
1B
100
AcDbEntity
 67
     1
  8
0
  6
Continuous
 62
     7
370
    25
100
AcDbPolyline
 90
       13
 70
   128
 43
0.0
 10
-34.4975678282
 20
-32.3231816436
 10
-34.5779017016
 20
-32.3057721964
 10
-34.6628848225
 20
-32.2958119319
 10
-34.7499350217
 20
-32.2936034875
 10
-34.8364073232
 20
-32.2992139658
 10
-34.9196743097
 20
-32.3124728952
 10
-34.9972059559
 20
-32.3329774098
 10
-35.0666465021
 20
-32.3601044903
 10
-35.1258860323
 20
-32.3930298942
 10
-35.1731245835
 20
-32.4307531996
 10
-35.2069268361
 20
-32.4721282031
 10
-35.2262657259
 20
-32.5158977461
 10
-35.2291111875
 20
-32.5290783808
  0
LWPOLYLINE
  5
17E
330
1B
100
AcDbEntity
 67
     1
  8
0
  6
Continuous
 62
     7
370
    25
100
AcDbPolyline
 90
       38
 70
   128
 43
0.0
 10
-20.9049436659
 20
-21.0030163837
 10
-20.9057570381
 20
-20.9893938847
 10
-20.9186474916
 20
-20.9082946128
 10
-20.9452126692
 20
-20.8280825815
 10
-20.9852503939
 20
-20.7493682529
 10
-21.0384559545
 20
-20.6727506905
 10
-21.1044244245
 20
-20.5988130003
 10
-21.182653744
 20
-20.5281178927
 10
-21.2725485406
 20
-20.4612034001
 10
-21.3734246608
 20
-20.3985787823
 10
-21.4845143762
 20
-20.3407206505
 10
-21.6049722271
 20
-20.2880693398
 10
-21.7338814565
 20
-20.2410255587
 10
-21.8702609873
 20
-20.1999473386
 10
-22.0130728889
 20
-20.1651473097
 10
-22.1612302766
 20
-20.1368903211
 10
-22.3136055832
 20
-20.1153914257
 10
-22.4690391405
 20
-20.1008142429
 10
-22.6263480054
 20
-20.093269714
 10
-22.7843349624
 20
-20.0928152574
 10
-22.9417976353
 20
-20.0994543318
 10
-23.0975376382
 20
-20.1131364097
 10
-23.2503696955
 20
-20.1337573624
 10
-23.3991306631
 20
-20.1611602519
 10
-23.5426883802
 20
-20.1951365257
 10
-23.6799502858
 20
-20.2354276038
 10
-23.809871734
 20
-20.2817268468
 10
-23.931463944
 20
-20.3336818895
 10
-24.0438015259
 20
-20.3908973227
 10
-24.1460295226
 20
-20.4529377023
 10
-24.2373699175
 20
-20.5193308636
 10
-24.317127555
 20
-20.5895715147
 10
-24.3846954313
 20
-20.6631250816
 10
-24.439559314
 20
-20.7394317773
 10
-24.481301656
 20
-20.8179108618
 10
-24.5096047727
 20
-20.897965062
 10
-24.5242532604
 20
-20.9789851169
 10
-24.5259490073
 20
-21.0030163837
  0
LWPOLYLINE
  5
181
330
1B
100
AcDbEntity
 67
     1
  8
0
  6
Continuous
 62
     7
370
    25
100
AcDbPolyline
 90
       73
 70
   128
 43
0.0
 10
4.8322689046
 20
-23.1834337781
 10
4.7647010283
 20
-23.256987345
 10
4.7098371455
 20
-23.3332940408
 10
4.6680948036
 20
-23.4117731253
 10
4.6397916869
 20
-23.4918273255
 10
4.6251431992
 20
-23.5728473804
 10
4.6242608244
 20
-23.6542166786
 10
4.6371512779
 20
-23.7353159505
 10
4.6637164555
 20
-23.8155279818
 10
4.7037541802
 20
-23.8942423104
 10
4.7569597408
 20
-23.9708598728
 10
4.8229282108
 20
-24.044797563
 10
4.9011575303
 20
-24.1154926706
 10
4.991052327
 20
-24.1824071632
 10
5.0919284471
 20
-24.245031781
 10
5.2030181625
 20
-24.3028899129
 10
5.3234760134
 20
-24.3555412235
 10
5.4523852428
 20
-24.4025850047
 10
5.5887647736
 20
-24.4436632247
 10
5.7315766752
 20
-24.4784632536
 10
5.8797340629
 20
-24.5067202422
 10
6.0321093695
 20
-24.5282191376
 10
6.1875429268
 20
-24.5427963204
 10
6.3448517917
 20
-24.5503408493
 10
6.5028387487
 20
-24.5507953059
 10
6.6603014216
 20
-24.5441562316
 10
6.8160414245
 20
-24.5304741536
 10
6.9688734818
 20
-24.5098532009
 10
7.1176344495
 20
-24.4824503114
 10
7.2611921665
 20
-24.4484740377
 10
7.3984540721
 20
-24.4081829595
 10
7.5283755203
 20
-24.3618837165
 10
7.6499677304
 20
-24.3099286738
 10
7.7623053122
 20
-24.2527132406
 10
7.8645333089
 20
-24.190672861
 10
7.9558737038
 20
-24.1242796997
 10
8.0356313413
 20
-24.0540390487
 10
8.1031992176
 20
-23.9804854818
 10
8.1580631003
 20
-23.904178786
 10
8.1998054423
 20
-23.8256997015
 10
8.228108559
 20
-23.7456455013
 10
8.2427570467
 20
-23.6646254464
 10
8.2436394215
 20
-23.5832561482
 10
8.230748968
 20
-23.5021568763
 10
8.2041837904
 20
-23.421944845
 10
8.1641460656
 20
-23.3432305164
 10
8.110940505
 20
-23.266612954
 10
8.0449720351
 20
-23.1926752638
 10
7.9667427156
 20
-23.1219801562
 10
7.8768479189
 20
-23.0550656636
 10
7.7759717988
 20
-22.9924410458
 10
7.6648820834
 20
-22.9345829139
 10
7.5444242325
 20
-22.8819316033
 10
7.4155150031
 20
-22.8348878221
 10
7.2791354723
 20
-22.7938096021
 10
7.1363235706
 20
-22.7590095731
 10
6.9881661829
 20
-22.7307525846
 10
6.8357908764
 20
-22.7092536891
 10
6.6803573191
 20
-22.6946765064
 10
6.5230484542
 20
-22.6871319775
 10
6.3650614972
 20
-22.6866775209
 10
6.2075988243
 20
-22.6933165952
 10
6.0518588214
 20
-22.7069986732
 10
5.899026764
 20
-22.7276196259
 10
5.7502657964
 20
-22.7550225154
 10
5.6067080794
 20
-22.7889987891
 10
5.4694461737
 20
-22.8292898673
 10
5.3395247256
 20
-22.8755891103
 10
5.2179325155
 20
-22.927544153
 10
5.1055949337
 20
-22.9847595861
 10
5.0033669369
 20
-23.0467999658
 10
4.9120265421
 20
-23.1131931271
 10
4.8322689046
 20
-23.1834337781
  0
LWPOLYLINE
  5
182
330
1B
100
AcDbEntity
 67
     1
  8
0
  6
Continuous
 62
     7
370
    25
100
AcDbPolyline
 90
       73
 70
   128
 43
0.0
 10
-20.3806631739
 20
-15.7880606834
 10
-20.4482310502
 20
-15.8616142503
 10
-20.5030949329
 20
-15.9379209461
 10
-20.5448372749
 20
-16.0164000306
 10
-20.5731403916
 20
-16.0964542308
 10
-20.5877888793
 20
-16.1774742857
 10
-20.5886712541
 20
-16.2588435839
 10
-20.5757808006
 20
-16.3399428558
 10
-20.549215623
 20
-16.4201548871
 10
-20.5091778982
 20
-16.4988692157
 10
-20.4559723376
 20
-16.5754867781
 10
-20.3900038677
 20
-16.6494244683
 10
-20.3117745482
 20
-16.7201195759
 10
-20.2218797515
 20
-16.7870340685
 10
-20.1210036314
 20
-16.8496586863
 10
-20.009913916
 20
-16.9075168182
 10
-19.8894560651
 20
-16.9601681288
 10
-19.7605468357
 20
-17.00721191
 10
-19.6241673049
 20
-17.04829013
 10
-19.4813554032
 20
-17.083090159
 10
-19.3331980155
 20
-17.1113471475
 10
-19.180822709
 20
-17.132846043
 10
-19.0253891517
 20
-17.1474232257
 10
-18.8680802868
 20
-17.1549677546
 10
-18.7100933298
 20
-17.1554222112
 10
-18.5526306569
 20
-17.1487831369
 10
-18.396890654
 20
-17.1351010589
 10
-18.2440585966
 20
-17.1144801063
 10
-18.095297629
 20
-17.0870772168
 10
-17.951739912
 20
-17.053100943
 10
-17.8144780063
 20
-17.0128098649
 10
-17.6845565582
 20
-16.9665106218
 10
-17.5629643481
 20
-16.9145555791
 10
-17.4506267663
 20
-16.857340146
 10
-17.3483987695
 20
-16.7952997663
 10
-17.2570583747
 20
-16.728906605
 10
-17.1773007372
 20
-16.658665954
 10
-17.1097328609
 20
-16.5851123871
 10
-17.0548689781
 20
-16.5088056913
 10
-17.0131266362
 20
-16.4303266068
 10
-16.9848235195
 20
-16.3502724067
 10
-16.9701750318
 20
-16.2692523517
 10
-16.969292657
 20
-16.1878830535
 10
-16.9821831105
 20
-16.1067837816
 10
-17.0087482881
 20
-16.0265717503
 10
-17.0487860128
 20
-15.9478574217
 10
-17.1019915734
 20
-15.8712398593
 10
-17.1679600434
 20
-15.7973021691
 10
-17.2461893629
 20
-15.7266070615
 10
-17.3360841596
 20
-15.6596925689
 10
-17.4369602797
 20
-15.5970679511
 10
-17.5480499951
 20
-15.5392098193
 10
-17.668507846
 20
-15.4865585086
 10
-17.7974170754
 20
-15.4395147275
 10
-17.9337966062
 20
-15.3984365074
 10
-18.0766085078
 20
-15.3636364785
 10
-18.2247658955
 20
-15.3353794899
 10
-18.3771412021
 20
-15.3138805945
 10
-18.5325747594
 20
-15.2993034117
 10
-18.6898836243
 20
-15.2917588828
 10
-18.8478705813
 20
-15.2913044262
 10
-19.0053332542
 20
-15.2979435006
 10
-19.1610732571
 20
-15.3116255785
 10
-19.3139053144
 20
-15.3322465312
 10
-19.4626662821
 20
-15.3596494207
 10
-19.6062239991
 20
-15.3936256945
 10
-19.7434859047
 20
-15.4339167726
 10
-19.8734073529
 20
-15.4802160156
 10
-19.994999563
 20
-15.5321710583
 10
-20.1073371448
 20
-15.5893864915
 10
-20.2095651415
 20
-15.6514268711
 10
-20.3009055364
 20
-15.7178200324
 10
-20.3806631739
 20
-15.7880606834
  0
LWPOLYLINE
  5
184
330
1B
100
AcDbEntity
 67
     1
  8
0
  6
Continuous
 62
     7
370
    25
100
AcDbPolyline
 90
       19
 70
   128
 43
0.0
 10
-16.0629236651
 20
-18.0971060502
 10
-16.1101622162
 20
-18.1348293556
 10
-16.1694017465
 20
-18.1677547595
 10
-16.2388422927
 20
-18.19488184
 10
-16.3163739389
 20
-18.2153863547
 10
-16.3996409254
 20
-18.228645284
 10
-16.4861132268
 20
-18.2342557623
 10
-16.5731634261
 20
-18.2320473179
 10
-16.658146547
 20
-18.2220870534
 10
-16.7384804204
 20
-18.2046776063
 10
-16.8117241421
 20
-18.1803479538
 10
-16.8756522388
 20
-18.1498373402
 10
-16.9283222876
 20
-18.1140728149
 10
-16.9681339358
 20
-18.0741410651
 10
-16.9938775264
 20
-18.0312553967
 10
-17.0047708536
 20
-17.986718869
 10
-17.0004829291
 20
-17.941884702
 10
-16.9811440394
 20
-17.898115159
 10
-16.9473417867
 20
-17.8567401555
  0
LWPOLYLINE
  5
186
330
1B
100
AcDbEntity
 67
     1
  8
0
  6
Continuous
 62
     7
370
    25
100
AcDbPolyline
 90
       19
 70
   128
 43
0.0
 10
-15.5028891984
 20
-17.550495242
 10
-15.4690869457
 20
-17.5091202385
 10
-15.449748056
 20
-17.4653506955
 10
-15.4454601315
 20
-17.4205165285
 10
-15.4563534587
 20
-17.3759800008
 10
-15.4820970493
 20
-17.3330943324
 10
-15.5219086975
 20
-17.2931625826
 10
-15.5745787463
 20
-17.2573980574
 10
-15.638506843
 20
-17.2268874437
 10
-15.7117505647
 20
-17.2025577913
 10
-15.7920844381
 20
-17.1851483442
 10
-15.877067559
 20
-17.1751880796
 10
-15.9641177583
 20
-17.1729796352
 10
-16.0505900597
 20
-17.1785901135
 10
-16.1338570462
 20
-17.1918490429
 10
-16.2113886924
 20
-17.2123535575
 10
-16.2808292386
 20
-17.239480638
 10
-16.3400687689
 20
-17.2724060419
 10
-16.38730732
 20
-17.3101293473
  0
LWPOLYLINE
  5
1AC
330
1B
100
AcDbEntity
 67
     1
  8
0
  6
Continuous
 62
     7
370
    25
100
AcDbPolyline
 90
       32
 70
   128
 43
0.0
 10
8.2444527936
 20
-23.6405941795
 10
8.2436394215
 20
-23.6269716806
 10
8.230748968
 20
-23.5458724086
 10
8.2041837904
 20
-23.4656603773
 10
8.1641460656
 20
-23.3869460487
 10
8.110940505
 20
-23.3103284864
 10
8.0449720351
 20
-23.2363907961
 10
7.9667427156
 20
-23.1656956885
 10
7.8768479189
 20
-23.0987811959
 10
7.7759717988
 20
-23.0361565781
 10
7.6648820834
 20
-22.9782984463
 10
7.5444242325
 20
-22.9256471356
 10
7.4155150031
 20
-22.8786033545
 10
7.2791354723
 20
-22.8375251344
 10
7.1363235706
 20
-22.8027251055
 10
6.9881661829
 20
-22.7744681169
 10
6.8357908764
 20
-22.7529692215
 10
6.6803573191
 20
-22.7383920387
 10
6.5230484542
 20
-22.7308475098
 10
6.3650614972
 20
-22.7303930532
 10
6.2075988243
 20
-22.7370321276
 10
6.0518588214
 20
-22.7507142055
 10
5.899026764
 20
-22.7713351582
 10
5.7502657964
 20
-22.7987380477
 10
5.6067080794
 20
-22.8327143215
 10
5.4694461737
 20
-22.8730053996
 10
5.3395247256
 20
-22.9193046426
 10
5.2179325155
 20
-22.9712596853
 10
5.1055949337
 20
-23.0284751185
 10
5.0033669369
 20
-23.0905154981
 10
4.9120265421
 20
-23.1569086595
 10
4.8322689046
 20
-23.2271493105
  0
LWPOLYLINE
  5
1BA
330
1B
100
AcDbEntity
 67
     1
  8
0
  6
Continuous
 62
     7
370
    25
100
AcDbPolyline
 90
       16
 70
   128
 43
0.0
 10
-15.4469025943
 20
-17.4521700609
 10
-15.4563534587
 20
-17.4196955332
 10
-15.4820970493
 20
-17.3768098647
 10
-15.5219086975
 20
-17.3368781149
 10
-15.5745787463
 20
-17.3011135897
 10
-15.638506843
 20
-17.2706029761
 10
-15.7117505647
 20
-17.2462733236
 10
-15.7920844381
 20
-17.2288638765
 10
-15.877067559
 20
-17.2189036119
 10
-15.9641177583
 20
-17.2166951676
 10
-16.0505900597
 20
-17.2223056458
 10
-16.1338570462
 20
-17.2355645752
 10
-16.2113886924
 20
-17.2560690898
 10
-16.2808292386
 20
-17.2831961704
 10
-16.3400687689
 20
-17.3161215742
 10
-16.38730732
 20
-17.3538448797
  0
LWPOLYLINE
  5
1BC
330
1B
100
AcDbEntity
 67
     1
  8
0
  6
Continuous
 62
     7
370
    25
100
AcDbPolyline
 90
       32
 70
   128
 43
0.0
 10
-16.9684792849
 20
-16.2452210849
 10
-16.969292657
 20
-16.2315985859
 10
-16.9821831105
 20
-16.1504993139
 10
-17.0087482881
 20
-16.0702872827
 10
-17.0487860128
 20
-15.9915729541
 10
-17.1019915734
 20
-15.9149553917
 10
-17.1679600434
 20
-15.8410177014
 10
-17.2461893629
 20
-15.7703225938
 10
-17.3360841596
 20
-15.7034081013
 10
-17.4369602797
 20
-15.6407834835
 10
-17.5480499951
 20
-15.5829253516
 10
-17.668507846
 20
-15.5302740409
 10
-17.7974170754
 20
-15.4832302598
 10
-17.9337966062
 20
-15.4421520397
 10
-18.0766085078
 20
-15.4073520108
 10
-18.2247658955
 20
-15.3790950222
 10
-18.3771412021
 20
-15.3575961268
 10
-18.5325747594
 20
-15.3430189441
 10
-18.6898836243
 20
-15.3354744152
 10
-18.8478705813
 20
-15.3350199585
 10
-19.0053332542
 20
-15.3416590329
 10
-19.1610732571
 20
-15.3553411108
 10
-19.3139053144
 20
-15.3759620635
 10
-19.4626662821
 20
-15.403364953
 10
-19.6062239991
 20
-15.4373412268
 10
-19.7434859047
 20
-15.4776323049
 10
-19.8734073529
 20
-15.5239315479
 10
-19.994999563
 20
-15.5758865906
 10
-20.1073371448
 20
-15.6331020238
 10
-20.2095651415
 20
-15.6951424034
 10
-20.3009055364
 20
-15.7615355648
 10
-20.3806631739
 20
-15.8317762158
  0
LINE
  5
1BF
330
1B
100
AcDbEntity
 67
     1
  8
0
  6
Continuous
 62
     7
370
    25
100
AcDbLine
 10
-7.258305478
 20
-40.2091104601
 30
0.0
 11
-6.3738873563
 21
-40.4494763548
 31
0.0
  0
LINE
  5
1C0
330
1B
100
AcDbEntity
 67
     1
  8
0
  6
Continuous
 62
     7
370
    25
100
AcDbLine
 10
-7.258305478
 20
-40.2091104601
 30
0.0
 11
-7.7250008669
 21
-40.6646194669
 31
0.0
  0
LINE
  5
1C1
330
1B
100
AcDbEntity
 67
     1
  8
0
  6
Continuous
 62
     7
370
    25
100
AcDbLine
 10
-13.2968350335
 20
-39.1503143304
 30
0.0
 11
-7.7250008669
 21
-40.6646194669
 31
0.0
  0
LINE
  5
1C2
330
1B
100
AcDbEntity
 67
     1
  8
0
  6
Continuous
 62
     7
370
    25
100
AcDbLine
 10
-12.8301396446
 20
-38.6948053236
 30
0.0
 11
-13.2968350335
 21
-39.1503143304
 31
0.0
  0
LINE
  5
1C3
330
1B
100
AcDbEntity
 67
     1
  8
0
  6
Continuous
 62
     7
370
    25
100
AcDbLine
 10
-12.8301396446
 20
-38.6948053236
 30
0.0
 11
-13.7145577663
 21
-38.4544394289
 31
0.0
  0
LINE
  5
1C4
330
1B
100
AcDbEntity
 67
     1
  8
0
  6
Continuous
 62
     7
370
    25
100
AcDbLine
 10
-7.8808654046
 20
-32.7605768439
 30
0.0
 11
-13.7145577663
 21
-38.4544394289
 31
0.0
  0
LINE
  5
1C5
330
1B
100
AcDbEntity
 67
     1
  8
0
  6
Continuous
 62
     7
370
    25
100
AcDbLine
 10
-6.996447283
 20
-33.0009427386
 30
0.0
 11
-7.8808654046
 21
-32.7605768439
 31
0.0
  0
LINE
  5
1C6
330
1B
100
AcDbEntity
 67
     1
  8
0
  6
Continuous
 62
     7
370
    25
100
AcDbLine
 10
-7.7503707735
 20
-32.6625821769
 30
0.0
 11
-6.996447283
 21
-33.0009427386
 31
0.0
  0
LINE
  5
1C7
330
1B
100
AcDbEntity
 67
     1
  8
0
  6
Continuous
 62
     7
370
    25
100
AcDbLine
 10
-2.4184594947
 20
-29.5111415872
 30
0.0
 11
-7.7503707735
 21
-32.6625821769
 31
0.0
  0
LINE
  5
1C8
330
1B
100
AcDbEntity
 67
     1
  8
0
  6
Continuous
 62
     7
370
    25
100
AcDbLine
 10
-1.6645360041
 20
-29.8495021489
 30
0.0
 11
-2.4184594947
 21
-29.5111415872
 31
0.0
  0
LINE
  5
1C9
330
1B
100
AcDbEntity
 67
     1
  8
0
  6
Continuous
 62
     7
370
    25
100
AcDbLine
 10
-1.6645360041
 20
-29.8495021489
 30
0.0
 11
-1.1978406152
 21
-29.3939931421
 31
0.0
  0
LINE
  5
1CA
330
1B
100
AcDbEntity
 67
     1
  8
0
  6
Continuous
 62
     7
370
    25
100
AcDbLine
 10
-1.1978406152
 20
-29.3939931421
 30
0.0
 11
2.7289758451
 21
-30.4612177145
 31
0.0
  0
LINE
  5
1CB
330
1B
100
AcDbEntity
 67
     1
  8
0
  6
Continuous
 62
     7
370
    25
100
AcDbLine
 10
2.2622804562
 20
-30.9167267213
 30
0.0
 11
2.7289758451
 21
-30.4612177145
 31
0.0
  0
LINE
  5
1CC
330
1B
100
AcDbEntity
 67
     1
  8
0
  6
Continuous
 62
     7
370
    25
100
AcDbLine
 10
3.1466985778
 20
-31.157092616
 30
0.0
 11
2.2622804562
 21
-30.9167267213
 31
0.0
  0
LINE
  5
1CD
330
1B
100
AcDbEntity
 67
     1
  8
0
  6
Continuous
 62
     7
370
    25
100
AcDbLine
 10
3.1466985778
 20
-31.157092616
 30
0.0
 11
-6.3738873563
 21
-40.4494763548
 31
0.0
  0
LINE
  5
1CE
330
1B
100
AcDbEntity
 67
     1
  8
0
  6
Continuous
 62
     7
370
    25
100
AcDbLine
 10
-13.2968350335
 20
-39.1503143304
 30
0.0
 11
-13.2968350335
 21
-39.1940298628
 31
0.0
  0
LINE
  5
1CF
330
1B
100
AcDbEntity
 67
     1
  8
0
  6
Continuous
 62
     7
370
    25
100
AcDbLine
 10
-7.7250008669
 20
-40.6646194669
 30
0.0
 11
-7.7250008669
 21
-40.7083349993
 31
0.0
  0
LINE
  5
1D0
330
1B
100
AcDbEntity
 67
     1
  8
0
  6
Continuous
 62
     7
370
    25
100
AcDbLine
 10
-13.2968350335
 20
-39.1940298628
 30
0.0
 11
-7.7250008669
 21
-40.7083349993
 31
0.0
  0
LINE
  5
1D1
330
1B
100
AcDbEntity
 67
     1
  8
0
  6
Continuous
 62
     7
370
    25
100
AcDbLine
 10
-7.258305478
 20
-40.2091104601
 30
0.0
 11
-7.258305478
 21
-40.2528259925
 31
0.0
  0
LINE
  5
1D2
330
1B
100
AcDbEntity
 67
     1
  8
0
  6
Continuous
 62
     7
370
    25
100
AcDbLine
 10
-7.258305478
 20
-40.2528259925
 30
0.0
 11
-7.7250008669
 21
-40.7083349993
 31
0.0
  0
LINE
  5
1D3
330
1B
100
AcDbEntity
 67
     1
  8
0
  6
Continuous
 62
     7
370
    25
100
AcDbLine
 10
-6.3738873563
 20
-40.4494763548
 30
0.0
 11
-6.3738873563
 21
-40.4931918872
 31
0.0
  0
LINE
  5
1D4
330
1B
100
AcDbEntity
 67
     1
  8
0
  6
Continuous
 62
     7
370
    25
100
AcDbLine
 10
-7.258305478
 20
-40.2528259925
 30
0.0
 11
-6.3738873563
 21
-40.4931918872
 31
0.0
  0
LINE
  5
1D5
330
1B
100
AcDbEntity
 67
     1
  8
0
  6
Continuous
 62
     7
370
    25
100
AcDbLine
 10
3.1466985778
 20
-31.157092616
 30
0.0
 11
3.1466985778
 21
-31.2008081483
 31
0.0
  0
LINE
  5
1D6
330
1B
100
AcDbEntity
 67
     1
  8
0
  6
Continuous
 62
     7
370
    25
100
AcDbLine
 10
3.1466985778
 20
-31.2008081483
 30
0.0
 11
-6.3738873563
 21
-40.4931918872
 31
0.0
  0
LINE
  5
1D7
330
1B
100
AcDbEntity
 67
     1
  8
0
  6
Continuous
 62
     7
370
    25
100
AcDbLine
 10
-13.7145577663
 20
-38.4544394289
 30
0.0
 11
-13.7145577663
 21
-38.4981549613
 31
0.0
  0
LINE
  5
1D8
330
1B
100
AcDbEntity
 67
     1
  8
0
  6
Continuous
 62
     7
370
    25
100
AcDbLine
 10
-12.8651734713
 20
-38.7289994125
 30
0.0
 11
-13.7145577663
 21
-38.4981549613
 31
0.0
  0
LINE
  5
1D9
330
1B
100
AcDbEntity
 67
     1
  8
0
  6
Continuous
 62
     7
370
    25
100
AcDbLine
 10
-7.7503707735
 20
-32.6625821769
 30
0.0
 11
-7.7503707735
 21
-32.7062977092
 31
0.0
  0
LINE
  5
1DA
330
1B
100
AcDbEntity
 67
     1
  8
0
  6
Continuous
 62
     7
370
    25
100
AcDbLine
 10
-7.7503707735
 20
-32.7062977092
 30
0.0
 11
-7.2433983528
 21
-32.9338267293
 31
0.0
  0
LINE
  5
1DB
330
1B
100
AcDbEntity
 67
     1
  8
0
  6
Continuous
 62
     7
370
    25
100
AcDbLine
 10
2.7289758451
 20
-30.4612177145
 30
0.0
 11
2.7289758451
 21
-30.5049332469
 31
0.0
  0
LINE
  5
1DC
330
1B
100
AcDbEntity
 67
     1
  8
0
  6
Continuous
 62
     7
370
    25
100
AcDbLine
 10
2.2973142829
 20
-30.9262481648
 30
0.0
 11
2.7289758451
 21
-30.5049332469
 31
0.0
  0
LINE
  5
1DD
330
1B
100
AcDbEntity
 67
     1
  8
0
  6
Continuous
 62
     7
370
    25
100
AcDbLine
 10
-15.9577647356
 20
-37.7886778697
 30
0.0
 11
-15.0733466139
 21
-38.0290437644
 31
0.0
  0
LINE
  5
1DE
330
1B
100
AcDbEntity
 67
     1
  8
0
  6
Continuous
 62
     7
370
    25
100
AcDbLine
 10
-15.9577647356
 20
-37.7886778697
 30
0.0
 11
-16.4244601245
 21
-38.2441868765
 31
0.0
  0
LINE
  5
1DF
330
1B
100
AcDbEntity
 67
     1
  8
0
  6
Continuous
 62
     7
370
    25
100
AcDbLine
 10
-21.9962942911
 20
-36.72988174
 30
0.0
 11
-16.4244601245
 21
-38.2441868765
 31
0.0
  0
LINE
  5
1E0
330
1B
100
AcDbEntity
 67
     1
  8
0
  6
Continuous
 62
     7
370
    25
100
AcDbLine
 10
-21.5295989022
 20
-36.2743727332
 30
0.0
 11
-21.9962942911
 21
-36.72988174
 31
0.0
  0
LINE
  5
1E1
330
1B
100
AcDbEntity
 67
     1
  8
0
  6
Continuous
 62
     7
370
    25
100
AcDbLine
 10
-21.5295989022
 20
-36.2743727332
 30
0.0
 11
-22.4140170238
 21
-36.0340068385
 31
0.0
  0
LINE
  5
1E2
330
1B
100
AcDbEntity
 67
     1
  8
0
  6
Continuous
 62
     7
370
    25
100
AcDbLine
 10
-16.5803246622
 20
-30.3401442535
 30
0.0
 11
-22.4140170238
 21
-36.0340068385
 31
0.0
  0
LINE
  5
1E3
330
1B
100
AcDbEntity
 67
     1
  8
0
  6
Continuous
 62
     7
370
    25
100
AcDbLine
 10
-15.6959065405
 20
-30.5805101482
 30
0.0
 11
-16.5803246622
 21
-30.3401442535
 31
0.0
  0
LINE
  5
1E4
330
1B
100
AcDbEntity
 67
     1
  8
0
  6
Continuous
 62
     7
370
    25
100
AcDbLine
 10
-16.4498300311
 20
-30.2421495864
 30
0.0
 11
-15.6959065405
 21
-30.5805101482
 31
0.0
  0
LINE
  5
1E5
330
1B
100
AcDbEntity
 67
     1
  8
0
  6
Continuous
 62
     7
370
    25
100
AcDbLine
 10
-11.1179187522
 20
-27.0907089968
 30
0.0
 11
-16.4498300311
 21
-30.2421495864
 31
0.0
  0
LINE
  5
1E6
330
1B
100
AcDbEntity
 67
     1
  8
0
  6
Continuous
 62
     7
370
    25
100
AcDbLine
 10
-10.3639952617
 20
-27.4290695585
 30
0.0
 11
-11.1179187522
 21
-27.0907089968
 31
0.0
  0
LINE
  5
1E7
330
1B
100
AcDbEntity
 67
     1
  8
0
  6
Continuous
 62
     7
370
    25
100
AcDbLine
 10
-10.3639952617
 20
-27.4290695585
 30
0.0
 11
-9.8972998727
 21
-26.9735605517
 31
0.0
  0
LINE
  5
1E8
330
1B
100
AcDbEntity
 67
     1
  8
0
  6
Continuous
 62
     7
370
    25
100
AcDbLine
 10
-9.8972998727
 20
-26.9735605517
 30
0.0
 11
-5.9704834125
 21
-28.0407851241
 31
0.0
  0
LINE
  5
1E9
330
1B
100
AcDbEntity
 67
     1
  8
0
  6
Continuous
 62
     7
370
    25
100
AcDbLine
 10
-6.4371788014
 20
-28.4962941309
 30
0.0
 11
-5.9704834125
 21
-28.0407851241
 31
0.0
  0
LINE
  5
1EA
330
1B
100
AcDbEntity
 67
     1
  8
0
  6
Continuous
 62
     7
370
    25
100
AcDbLine
 10
-5.5527606797
 20
-28.7366600256
 30
0.0
 11
-6.4371788014
 21
-28.4962941309
 31
0.0
  0
LINE
  5
1EB
330
1B
100
AcDbEntity
 67
     1
  8
0
  6
Continuous
 62
     7
370
    25
100
AcDbLine
 10
-5.5527606797
 20
-28.7366600256
 30
0.0
 11
-15.0733466139
 21
-38.0290437644
 31
0.0
  0
LINE
  5
1EC
330
1B
100
AcDbEntity
 67
     1
  8
0
  6
Continuous
 62
     7
370
    25
100
AcDbLine
 10
-16.4244601245
 20
-38.2441868765
 30
0.0
 11
-16.4244601245
 21
-38.2879024089
 31
0.0
  0
LINE
  5
1ED
330
1B
100
AcDbEntity
 67
     1
  8
0
  6
Continuous
 62
     7
370
    25
100
AcDbLine
 10
-15.9577647356
 20
-37.7886778697
 30
0.0
 11
-15.9577647356
 21
-37.8323934021
 31
0.0
  0
LINE
  5
1EE
330
1B
100
AcDbEntity
 67
     1
  8
0
  6
Continuous
 62
     7
370
    25
100
AcDbLine
 10
-15.9577647356
 20
-37.8323934021
 30
0.0
 11
-16.4244601245
 21
-38.2879024089
 31
0.0
  0
LINE
  5
1EF
330
1B
100
AcDbEntity
 67
     1
  8
0
  6
Continuous
 62
     7
370
    25
100
AcDbLine
 10
-21.9962942911
 20
-36.72988174
 30
0.0
 11
-21.9962942911
 21
-36.7735972723
 31
0.0
  0
LINE
  5
1F0
330
1B
100
AcDbEntity
 67
     1
  8
0
  6
Continuous
 62
     7
370
    25
100
AcDbLine
 10
-21.9962942911
 20
-36.7735972723
 30
0.0
 11
-16.4244601245
 21
-38.2879024089
 31
0.0
  0
LINE
  5
1F1
330
1B
100
AcDbEntity
 67
     1
  8
0
  6
Continuous
 62
     7
370
    25
100
AcDbLine
 10
-15.0733466139
 20
-38.0290437644
 30
0.0
 11
-15.0733466139
 21
-38.0727592967
 31
0.0
  0
LINE
  5
1F2
330
1B
100
AcDbEntity
 67
     1
  8
0
  6
Continuous
 62
     7
370
    25
100
AcDbLine
 10
-15.9577647356
 20
-37.8323934021
 30
0.0
 11
-15.0733466139
 21
-38.0727592967
 31
0.0
  0
LINE
  5
1F3
330
1B
100
AcDbEntity
 67
     1
  8
0
  6
Continuous
 62
     7
370
    25
100
AcDbLine
 10
-5.5527606797
 20
-28.7366600256
 30
0.0
 11
-5.5527606797
 21
-28.7803755579
 31
0.0
  0
LINE
  5
1F4
330
1B
100
AcDbEntity
 67
     1
  8
0
  6
Continuous
 62
     7
370
    25
100
AcDbLine
 10
-5.5527606797
 20
-28.7803755579
 30
0.0
 11
-15.0733466139
 21
-38.0727592967
 31
0.0
  0
LINE
  5
1F5
330
1B
100
AcDbEntity
 67
     1
  8
0
  6
Continuous
 62
     7
370
    25
100
AcDbLine
 10
-22.4140170238
 20
-36.0340068385
 30
0.0
 11
-22.4140170238
 21
-36.0777223709
 31
0.0
  0
LINE
  5
1F6
330
1B
100
AcDbEntity
 67
     1
  8
0
  6
Continuous
 62
     7
370
    25
100
AcDbLine
 10
-21.5646327289
 20
-36.3085668221
 30
0.0
 11
-22.4140170238
 21
-36.0777223709
 31
0.0
  0
LINE
  5
1F7
330
1B
100
AcDbEntity
 67
     1
  8
0
  6
Continuous
 62
     7
370
    25
100
AcDbLine
 10
-16.4498300311
 20
-30.2421495864
 30
0.0
 11
-16.4498300311
 21
-30.2858651188
 31
0.0
  0
LINE
  5
1F8
330
1B
100
AcDbEntity
 67
     1
  8
0
  6
Continuous
 62
     7
370
    25
100
AcDbLine
 10
-16.4498300311
 20
-30.2858651188
 30
0.0
 11
-15.9428576104
 21
-30.5133941389
 31
0.0
  0
LINE
  5
1F9
330
1B
100
AcDbEntity
 67
     1
  8
0
  6
Continuous
 62
     7
370
    25
100
AcDbLine
 10
-5.9704834125
 20
-28.0407851241
 30
0.0
 11
-5.9704834125
 21
-28.0845006564
 31
0.0
  0
LINE
  5
1FA
330
1B
100
AcDbEntity
 67
     1
  8
0
  6
Continuous
 62
     7
370
    25
100
AcDbLine
 10
-6.4021449747
 20
-28.5058155743
 30
0.0
 11
-5.9704834125
 21
-28.0845006564
 31
0.0
  0
LINE
  5
1FB
330
1B
100
AcDbEntity
 67
     1
  8
0
  6
Continuous
 62
     7
370
    25
100
AcDbLine
 10
-34.9642632171
 20
-32.734975118
 30
0.0
 11
-33.9029614711
 21
-33.0234141917
 31
0.0
  0
LINE
  5
1FC
330
1B
100
AcDbEntity
 67
     1
  8
0
  6
Continuous
 62
     7
370
    25
100
AcDbLine
 10
-34.4975678282
 20
-32.2794661112
 30
0.0
 11
-33.4362660822
 21
-32.5679051849
 31
0.0
  0
LINE
  5
1FD
330
1B
100
AcDbEntity
 67
     1
  8
0
  6
Continuous
 62
     7
370
    25
100
AcDbLine
 10
-40.1515165171
 20
-23.2305701136
 30
0.0
 11
-45.9852088788
 21
-28.9244326987
 31
0.0
  0
LINE
  5
1FE
330
1B
100
AcDbEntity
 67
     1
  8
0
  6
Continuous
 62
     7
370
    25
100
AcDbLine
 10
-31.7495443612
 20
-25.5140461131
 30
0.0
 11
-40.1515165171
 21
-23.2305701136
 31
0.0
  0
LINE
  5
1FF
330
1B
100
AcDbEntity
 67
     1
  8
0
  6
Continuous
 62
     7
370
    25
100
AcDbLine
 10
-38.8352859026
 20
-22.2549387789
 30
0.0
 11
-31.7495443612
 21
-25.5140461131
 31
0.0
  0
LINE
  5
200
330
1B
100
AcDbEntity
 67
     1
  8
0
  6
Continuous
 62
     7
370
    25
100
AcDbLine
 10
-38.8352859026
 20
-22.2549387789
 30
0.0
 11
-33.687841734
 21
-19.2863027067
 31
0.0
  0
LINE
  5
201
330
1B
100
AcDbEntity
 67
     1
  8
0
  6
Continuous
 62
     7
370
    25
100
AcDbLine
 10
-26.6021001926
 20
-22.5454100409
 30
0.0
 11
-33.687841734
 21
-19.2863027067
 31
0.0
  0
LINE
  5
202
330
1B
100
AcDbEntity
 67
     1
  8
0
  6
Continuous
 62
     7
370
    25
100
AcDbLine
 10
-22.1684939978
 20
-18.2180744763
 30
0.0
 11
-26.6021001926
 21
-22.5454100409
 31
0.0
  0
LINE
  5
203
330
1B
100
AcDbEntity
 67
     1
  8
0
  6
Continuous
 62
     7
370
    25
100
AcDbLine
 10
-22.1684939978
 20
-18.2180744763
 30
0.0
 11
-18.5976558315
 21
-19.1885517761
 31
0.0
  0
LINE
  5
204
330
1B
100
AcDbEntity
 67
     1
  8
0
  6
Continuous
 62
     7
370
    25
100
AcDbLine
 10
-18.831003526
 20
-19.4163062795
 30
0.0
 11
-18.5976558315
 21
-19.1885517761
 31
0.0
  0
LINE
  5
205
330
1B
100
AcDbEntity
 67
     1
  8
0
  6
Continuous
 62
     7
370
    25
100
AcDbLine
 10
-18.5177114764
 20
-19.9382124556
 30
0.0
 11
-18.831003526
 21
-19.4163062795
 31
0.0
  0
LINE
  5
206
330
1B
100
AcDbEntity
 67
     1
  8
0
  6
Continuous
 62
     7
370
    25
100
AcDbLine
 10
-22.0179268934
 20
-23.3545300066
 30
0.0
 11
-18.5177114764
 21
-19.9382124556
 31
0.0
  0
LINE
  5
207
330
1B
100
AcDbEntity
 67
     1
  8
0
  6
Continuous
 62
     7
370
    25
100
AcDbLine
 10
-23.0312620263
 20
-23.5158873407
 30
0.0
 11
-22.0179268934
 21
-23.3545300066
 31
0.0
  0
LINE
  5
208
330
1B
100
AcDbEntity
 67
     1
  8
0
  6
Continuous
 62
     7
370
    25
100
AcDbLine
 10
-14.6292898704
 20
-25.7993633402
 30
0.0
 11
-23.0312620263
 21
-23.5158873407
 31
0.0
  0
LINE
  5
209
330
1B
100
AcDbEntity
 67
     1
  8
0
  6
Continuous
 62
     7
370
    25
100
AcDbLine
 10
-14.6292898704
 20
-25.7993633402
 30
0.0
 11
-23.963197649
 21
-34.9095434763
 31
0.0
  0
LINE
  5
20A
330
1B
100
AcDbEntity
 67
     1
  8
0
  6
Continuous
 62
     7
370
    25
100
AcDbLine
 10
-32.3651698049
 20
-32.6260674768
 30
0.0
 11
-23.963197649
 21
-34.9095434763
 31
0.0
  0
LINE
  5
20B
330
1B
100
AcDbEntity
 67
     1
  8
0
  6
Continuous
 62
     7
370
    25
100
AcDbLine
 10
-32.3651698049
 20
-32.6260674768
 30
0.0
 11
-32.0518777554
 21
-33.1479736529
 31
0.0
  0
LINE
  5
20C
330
1B
100
AcDbEntity
 67
     1
  8
0
  6
Continuous
 62
     7
370
    25
100
AcDbLine
 10
-32.0518777554
 20
-33.1479736529
 30
0.0
 11
-35.5520931723
 21
-36.564291204
 31
0.0
  0
LINE
  5
20D
330
1B
100
AcDbEntity
 67
     1
  8
0
  6
Continuous
 62
     7
370
    25
100
AcDbLine
 10
-35.5520931723
 20
-36.564291204
 30
0.0
 11
-36.5654283053
 21
-36.7256485381
 31
0.0
  0
LINE
  5
20E
330
1B
100
AcDbEntity
 67
     1
  8
0
  6
Continuous
 62
     7
370
    25
100
AcDbLine
 10
-41.7834952232
 20
-35.3074897594
 30
0.0
 11
-36.5654283053
 21
-36.7256485381
 31
0.0
  0
LINE
  5
20F
330
1B
100
AcDbEntity
 67
     1
  8
0
  6
Continuous
 62
     7
370
    25
100
AcDbLine
 10
-42.0967872728
 20
-34.7855835833
 30
0.0
 11
-41.7834952232
 21
-35.3074897594
 31
0.0
  0
LINE
  5
210
330
1B
100
AcDbEntity
 67
     1
  8
0
  6
Continuous
 62
     7
370
    25
100
AcDbLine
 10
-38.5965718558
 20
-31.3692660323
 30
0.0
 11
-42.0967872728
 21
-34.7855835833
 31
0.0
  0
LINE
  5
211
330
1B
100
AcDbEntity
 67
     1
  8
0
  6
Continuous
 62
     7
370
    25
100
AcDbLine
 10
-37.5832367228
 20
-31.2079086982
 30
0.0
 11
-38.5965718558
 21
-31.3692660323
 31
0.0
  0
LINE
  5
212
330
1B
100
AcDbEntity
 67
     1
  8
0
  6
Continuous
 62
     7
370
    25
100
AcDbLine
 10
-37.5832367228
 20
-31.2079086982
 30
0.0
 11
-45.9852088788
 21
-28.9244326987
 31
0.0
  0
LINE
  5
213
330
1B
100
AcDbEntity
 67
     1
  8
0
  6
Continuous
 62
     7
370
    25
100
AcDbLine
 10
-36.5654283053
 20
-36.7256485381
 30
0.0
 11
-36.5654283053
 21
-36.7693640704
 31
0.0
  0
LINE
  5
214
330
1B
100
AcDbEntity
 67
     1
  8
0
  6
Continuous
 62
     7
370
    25
100
AcDbLine
 10
-35.5520931723
 20
-36.564291204
 30
0.0
 11
-35.5520931723
 21
-36.6080067363
 31
0.0
  0
LINE
  5
215
330
1B
100
AcDbEntity
 67
     1
  8
0
  6
Continuous
 62
     7
370
    25
100
AcDbLine
 10
-35.5520931723
 20
-36.6080067363
 30
0.0
 11
-36.5654283053
 21
-36.7693640704
 31
0.0
  0
LINE
  5
216
330
1B
100
AcDbEntity
 67
     1
  8
0
  6
Continuous
 62
     7
370
    25
100
AcDbLine
 10
-41.7834952232
 20
-35.3074897594
 30
0.0
 11
-41.7834952232
 21
-35.3512052918
 31
0.0
  0
LINE
  5
217
330
1B
100
AcDbEntity
 67
     1
  8
0
  6
Continuous
 62
     7
370
    25
100
AcDbLine
 10
-41.7834952232
 20
-35.3512052918
 30
0.0
 11
-36.5654283053
 21
-36.7693640704
 31
0.0
  0
LINE
  5
218
330
1B
100
AcDbEntity
 67
     1
  8
0
  6
Continuous
 62
     7
370
    25
100
AcDbLine
 10
-32.0518777554
 20
-33.1479736529
 30
0.0
 11
-32.0518777554
 21
-33.1916891853
 31
0.0
  0
LINE
  5
219
330
1B
100
AcDbEntity
 67
     1
  8
0
  6
Continuous
 62
     7
370
    25
100
AcDbLine
 10
-32.0518777554
 20
-33.1916891853
 30
0.0
 11
-35.5520931723
 21
-36.6080067363
 31
0.0
  0
LINE
  5
21A
330
1B
100
AcDbEntity
 67
     1
  8
0
  6
Continuous
 62
     7
370
    25
100
AcDbLine
 10
-42.0967872728
 20
-34.7855835833
 30
0.0
 11
-42.0967872728
 21
-34.8292991156
 31
0.0
  0
LINE
  5
21B
330
1B
100
AcDbEntity
 67
     1
  8
0
  6
Continuous
 62
     7
370
    25
100
AcDbLine
 10
-42.0967872728
 20
-34.8292991156
 30
0.0
 11
-41.7834952232
 21
-35.3512052918
 31
0.0
  0
LINE
  5
21C
330
1B
100
AcDbEntity
 67
     1
  8
0
  6
Continuous
 62
     7
370
    25
100
AcDbLine
 10
-23.963197649
 20
-34.9095434763
 30
0.0
 11
-23.963197649
 21
-34.9532590086
 31
0.0
  0
LINE
  5
21D
330
1B
100
AcDbEntity
 67
     1
  8
0
  6
Continuous
 62
     7
370
    25
100
AcDbLine
 10
-14.6292898704
 20
-25.7993633402
 30
0.0
 11
-14.6292898704
 21
-25.8430788726
 31
0.0
  0
LINE
  5
21E
330
1B
100
AcDbEntity
 67
     1
  8
0
  6
Continuous
 62
     7
370
    25
100
AcDbLine
 10
-14.6292898704
 20
-25.8430788726
 30
0.0
 11
-23.963197649
 21
-34.9532590086
 31
0.0
  0
LINE
  5
21F
330
1B
100
AcDbEntity
 67
     1
  8
0
  6
Continuous
 62
     7
370
    25
100
AcDbLine
 10
-32.333812251
 20
-32.6783053204
 30
0.0
 11
-23.963197649
 21
-34.9532590086
 31
0.0
  0
LINE
  5
220
330
1B
100
AcDbEntity
 67
     1
  8
0
  6
Continuous
 62
     7
370
    25
100
AcDbLine
 10
-33.4362660822
 20
-32.5679051849
 30
0.0
 11
-33.4362660822
 21
-32.6116207172
 31
0.0
  0
LINE
  5
221
330
1B
100
AcDbEntity
 67
     1
  8
0
  6
Continuous
 62
     7
370
    25
100
AcDbLine
 10
-34.4975678282
 20
-32.2794661112
 30
0.0
 11
-34.4975678282
 21
-32.3231816436
 31
0.0
  0
LINE
  5
222
330
1B
100
AcDbEntity
 67
     1
  8
0
  6
Continuous
 62
     7
370
    25
100
AcDbLine
 10
-34.4975678282
 20
-32.3231816436
 30
0.0
 11
-33.4362660822
 21
-32.6116207172
 31
0.0
  0
LINE
  5
223
330
1B
100
AcDbEntity
 67
     1
  8
0
  6
Continuous
 62
     7
370
    25
100
AcDbLine
 10
-45.9852088788
 20
-28.9244326987
 30
0.0
 11
-45.9852088788
 21
-28.968148231
 31
0.0
  0
LINE
  5
224
330
1B
100
AcDbEntity
 67
     1
  8
0
  6
Continuous
 62
     7
370
    25
100
AcDbLine
 10
-37.6846619303
 20
-31.2240590324
 30
0.0
 11
-45.9852088788
 21
-28.968148231
 31
0.0
  0
LINE
  5
225
330
1B
100
AcDbEntity
 67
     1
  8
0
  6
Continuous
 62
     7
370
    25
100
AcDbLine
 10
-38.8352859026
 20
-22.2549387789
 30
0.0
 11
-38.8352859026
 21
-22.2986543112
 31
0.0
  0
LINE
  5
226
330
1B
100
AcDbEntity
 67
     1
  8
0
  6
Continuous
 62
     7
370
    25
100
AcDbLine
 10
-38.8352859026
 20
-22.2986543112
 30
0.0
 11
-31.9818583762
 21
-25.4509081417
 31
0.0
  0
LINE
  5
227
330
1B
100
AcDbEntity
 67
     1
  8
0
  6
Continuous
 62
     7
370
    25
100
AcDbLine
 10
-22.0179268934
 20
-23.3545300066
 30
0.0
 11
-22.0179268934
 21
-23.398245539
 31
0.0
  0
LINE
  5
228
330
1B
100
AcDbEntity
 67
     1
  8
0
  6
Continuous
 62
     7
370
    25
100
AcDbLine
 10
-22.9298368189
 20
-23.5434525388
 30
0.0
 11
-22.0179268934
 21
-23.398245539
 31
0.0
  0
LINE
  5
229
330
1B
100
AcDbEntity
 67
     1
  8
0
  6
Continuous
 62
     7
370
    25
100
AcDbLine
 10
-18.5177114764
 20
-19.9382124556
 30
0.0
 11
-18.5177114764
 21
-19.9819279879
 31
0.0
  0
LINE
  5
22A
330
1B
100
AcDbEntity
 67
     1
  8
0
  6
Continuous
 62
     7
370
    25
100
AcDbLine
 10
-22.0179268934
 20
-23.398245539
 30
0.0
 11
-18.5177114764
 21
-19.9819279879
 31
0.0
  0
LINE
  5
22B
330
1B
100
AcDbEntity
 67
     1
  8
0
  6
Continuous
 62
     7
370
    25
100
AcDbLine
 10
-18.5976558315
 20
-19.1885517761
 30
0.0
 11
-18.5976558315
 21
-19.2322673084
 31
0.0
  0
LINE
  5
22C
330
1B
100
AcDbEntity
 67
     1
  8
0
  6
Continuous
 62
     7
370
    25
100
AcDbLine
 10
-18.8144565721
 20
-19.4438714776
 30
0.0
 11
-18.5976558315
 21
-19.2322673084
 31
0.0
  0
LINE
  5
22D
330
1B
100
AcDbEntity
 67
     1
  8
0
  6
Continuous
 62
     7
370
    25
100
AcDbLine
 10
-16.38730732
 20
-17.3101293473
 30
0.0
 11
-16.9473417867
 21
-17.8567401555
 31
0.0
  0
LINE
  5
22E
330
1B
100
AcDbEntity
 67
     1
  8
0
  6
Continuous
 62
     7
370
    25
100
AcDbLine
 10
-15.5028891984
 20
-17.550495242
 30
0.0
 11
-16.0629236651
 21
-18.0971060502
 31
0.0
  0
LINE
  5
22F
330
1B
100
AcDbEntity
 67
     1
  8
0
  6
Continuous
 62
     7
370
    25
100
AcDbLine
 10
2.0664837052
 20
-14.6384963936
 30
0.0
 11
-8.9887428158
 21
-11.6339227101
 31
0.0
  0
LINE
  5
230
330
1B
100
AcDbEntity
 67
     1
  8
0
  6
Continuous
 62
     7
370
    25
100
AcDbLine
 10
-2.3671224897
 20
-18.9658319583
 30
0.0
 11
2.0664837052
 21
-14.6384963936
 31
0.0
  0
LINE
  5
231
330
1B
100
AcDbEntity
 67
     1
  8
0
  6
Continuous
 62
     7
370
    25
100
AcDbLine
 10
3.960773433
 20
-15.3164052755
 30
0.0
 11
-2.3671224897
 21
-18.9658319583
 31
0.0
  0
LINE
  5
232
330
1B
100
AcDbEntity
 67
     1
  8
0
  6
Continuous
 62
     7
370
    25
100
AcDbLine
 10
3.960773433
 20
-15.3164052755
 30
0.0
 11
9.7246891837
 21
-17.9675350108
 31
0.0
  0
LINE
  5
233
330
1B
100
AcDbEntity
 67
     1
  8
0
  6
Continuous
 62
     7
370
    25
100
AcDbLine
 10
3.396793261
 20
-21.6169616936
 30
0.0
 11
9.7246891837
 21
-17.9675350108
 31
0.0
  0
LINE
  5
234
330
1B
100
AcDbEntity
 67
     1
  8
0
  6
Continuous
 62
     7
370
    25
100
AcDbLine
 10
11.798765417
 20
-23.9004376931
 30
0.0
 11
3.396793261
 21
-21.6169616936
 31
0.0
  0
LINE
  5
235
330
1B
100
AcDbEntity
 67
     1
  8
0
  6
Continuous
 62
     7
370
    25
100
AcDbLine
 10
11.798765417
 20
-23.9004376931
 30
0.0
 11
9.9144827842
 21
-25.739555308
 31
0.0
  0
LINE
  5
236
330
1B
100
AcDbEntity
 67
     1
  8
0
  6
Continuous
 62
     7
370
    25
100
AcDbLine
 10
9.4722737233
 20
-25.6193723607
 30
0.0
 11
9.9144827842
 21
-25.739555308
 31
0.0
  0
LINE
  5
237
330
1B
100
AcDbEntity
 67
     1
  8
0
  6
Continuous
 62
     7
370
    25
100
AcDbLine
 10
8.4589385904
 20
-25.7807296948
 30
0.0
 11
9.4722737233
 21
-25.6193723607
 31
0.0
  0
LINE
  5
238
330
1B
100
AcDbEntity
 67
     1
  8
0
  6
Continuous
 62
     7
370
    25
100
AcDbLine
 10
1.8258026778
 20
-23.9779854847
 30
0.0
 11
8.4589385904
 21
-25.7807296948
 31
0.0
  0
LINE
  5
239
330
1B
100
AcDbEntity
 67
     1
  8
0
  6
Continuous
 62
     7
370
    25
100
AcDbLine
 10
1.5125106282
 20
-23.4560793085
 30
0.0
 11
1.8258026778
 21
-23.9779854847
 31
0.0
  0
LINE
  5
23A
330
1B
100
AcDbEntity
 67
     1
  8
0
  6
Continuous
 62
     7
370
    25
100
AcDbLine
 10
-2.9210955666
 20
-27.7834148732
 30
0.0
 11
1.5125106282
 21
-23.4560793085
 31
0.0
  0
LINE
  5
23B
330
1B
100
AcDbEntity
 67
     1
  8
0
  6
Continuous
 62
     7
370
    25
100
AcDbLine
 10
-2.9210955666
 20
-27.7834148732
 30
0.0
 11
-20.6094580002
 21
-22.9760969795
 31
0.0
  0
LINE
  5
23C
330
1B
100
AcDbEntity
 67
     1
  8
0
  6
Continuous
 62
     7
370
    25
100
AcDbLine
 10
-16.1758518053
 20
-18.6487614149
 30
0.0
 11
-20.6094580002
 21
-22.9760969795
 31
0.0
  0
LINE
  5
23D
330
1B
100
AcDbEntity
 67
     1
  8
0
  6
Continuous
 62
     7
370
    25
100
AcDbLine
 10
-16.1758518053
 20
-18.6487614149
 30
0.0
 11
-17.1891869383
 21
-18.810118749
 31
0.0
  0
LINE
  5
23E
330
1B
100
AcDbEntity
 67
     1
  8
0
  6
Continuous
 62
     7
370
    25
100
AcDbLine
 10
-17.1891869383
 20
-18.810118749
 30
0.0
 11
-23.8223228509
 21
-17.0073745388
 31
0.0
  0
LINE
  5
23F
330
1B
100
AcDbEntity
 67
     1
  8
0
  6
Continuous
 62
     7
370
    25
100
AcDbLine
 10
-23.8223228509
 20
-17.0073745388
 30
0.0
 11
-24.1356149004
 21
-16.4854683627
 31
0.0
  0
LINE
  5
240
330
1B
100
AcDbEntity
 67
     1
  8
0
  6
Continuous
 62
     7
370
    25
100
AcDbLine
 10
-21.3821121057
 20
-13.7979652226
 30
0.0
 11
-24.1356149004
 21
-16.4854683627
 31
0.0
  0
LINE
  5
241
330
1B
100
AcDbEntity
 67
     1
  8
0
  6
Continuous
 62
     7
370
    25
100
AcDbLine
 10
-20.3687769728
 20
-13.6366078885
 30
0.0
 11
-21.3821121057
 21
-13.7979652226
 31
0.0
  0
LINE
  5
242
330
1B
100
AcDbEntity
 67
     1
  8
0
  6
Continuous
 62
     7
370
    25
100
AcDbLine
 10
-13.7356410602
 20
-15.4393520986
 30
0.0
 11
-20.3687769728
 21
-13.6366078885
 31
0.0
  0
LINE
  5
243
330
1B
100
AcDbEntity
 67
     1
  8
0
  6
Continuous
 62
     7
370
    25
100
AcDbLine
 10
-13.4223490106
 20
-15.9612582747
 30
0.0
 11
-13.7356410602
 21
-15.4393520986
 31
0.0
  0
LINE
  5
244
330
1B
100
AcDbEntity
 67
     1
  8
0
  6
Continuous
 62
     7
370
    25
100
AcDbLine
 10
-13.4223490106
 20
-15.9612582747
 30
0.0
 11
-8.9887428158
 21
-11.6339227101
 31
0.0
  0
LINE
  5
245
330
1B
100
AcDbEntity
 67
     1
  8
0
  6
Continuous
 62
     7
370
    25
100
AcDbLine
 10
-2.9210955666
 20
-27.7834148732
 30
0.0
 11
-2.9210955666
 21
-27.8271304055
 31
0.0
  0
LINE
  5
246
330
1B
100
AcDbEntity
 67
     1
  8
0
  6
Continuous
 62
     7
370
    25
100
AcDbLine
 10
1.5125106282
 20
-23.4560793085
 30
0.0
 11
1.5125106282
 21
-23.4997948409
 31
0.0
  0
LINE
  5
247
330
1B
100
AcDbEntity
 67
     1
  8
0
  6
Continuous
 62
     7
370
    25
100
AcDbLine
 10
-2.9210955666
 20
-27.8271304055
 30
0.0
 11
1.5125106282
 21
-23.4997948409
 31
0.0
  0
LINE
  5
248
330
1B
100
AcDbEntity
 67
     1
  8
0
  6
Continuous
 62
     7
370
    25
100
AcDbLine
 10
-20.6094580002
 20
-22.9760969795
 30
0.0
 11
-20.6094580002
 21
-23.0198125118
 31
0.0
  0
LINE
  5
249
330
1B
100
AcDbEntity
 67
     1
  8
0
  6
Continuous
 62
     7
370
    25
100
AcDbLine
 10
-2.9210955666
 20
-27.8271304055
 30
0.0
 11
-20.6094580002
 21
-23.0198125118
 31
0.0
  0
LINE
  5
24A
330
1B
100
AcDbEntity
 67
     1
  8
0
  6
Continuous
 62
     7
370
    25
100
AcDbLine
 10
8.4589385904
 20
-25.7807296948
 30
0.0
 11
8.4589385904
 21
-25.8244452271
 31
0.0
  0
LINE
  5
24B
330
1B
100
AcDbEntity
 67
     1
  8
0
  6
Continuous
 62
     7
370
    25
100
AcDbLine
 10
9.4722737233
 20
-25.6193723607
 30
0.0
 11
9.4722737233
 21
-25.663087893
 31
0.0
  0
LINE
  5
24C
330
1B
100
AcDbEntity
 67
     1
  8
0
  6
Continuous
 62
     7
370
    25
100
AcDbLine
 10
8.4589385904
 20
-25.8244452271
 30
0.0
 11
9.4722737233
 21
-25.663087893
 31
0.0
  0
LINE
  5
24D
330
1B
100
AcDbEntity
 67
     1
  8
0
  6
Continuous
 62
     7
370
    25
100
AcDbLine
 10
1.8258026778
 20
-23.9779854847
 30
0.0
 11
1.8258026778
 21
-24.021701017
 31
0.0
  0
LINE
  5
24E
330
1B
100
AcDbEntity
 67
     1
  8
0
  6
Continuous
 62
     7
370
    25
100
AcDbLine
 10
1.8258026778
 20
-24.021701017
 30
0.0
 11
8.4589385904
 21
-25.8244452271
 31
0.0
  0
LINE
  5
24F
330
1B
100
AcDbEntity
 67
     1
  8
0
  6
Continuous
 62
     7
370
    25
100
AcDbLine
 10
9.9144827842
 20
-25.739555308
 30
0.0
 11
9.9144827842
 21
-25.7832708404
 31
0.0
  0
LINE
  5
250
330
1B
100
AcDbEntity
 67
     1
  8
0
  6
Continuous
 62
     7
370
    25
100
AcDbLine
 10
9.4722737233
 20
-25.663087893
 30
0.0
 11
9.9144827842
 21
-25.7832708404
 31
0.0
  0
LINE
  5
251
330
1B
100
AcDbEntity
 67
     1
  8
0
  6
Continuous
 62
     7
370
    25
100
AcDbLine
 10
11.798765417
 20
-23.9004376931
 30
0.0
 11
11.798765417
 21
-23.9441532254
 31
0.0
  0
LINE
  5
252
330
1B
100
AcDbEntity
 67
     1
  8
0
  6
Continuous
 62
     7
370
    25
100
AcDbLine
 10
11.798765417
 20
-23.9441532254
 30
0.0
 11
9.9144827842
 21
-25.7832708404
 31
0.0
  0
LINE
  5
253
330
1B
100
AcDbEntity
 67
     1
  8
0
  6
Continuous
 62
     7
370
    25
100
AcDbLine
 10
1.5125106282
 20
-23.4997948409
 30
0.0
 11
1.8258026778
 21
-24.021701017
 31
0.0
  0
LINE
  5
254
330
1B
100
AcDbEntity
 67
     1
  8
0
  6
Continuous
 62
     7
370
    25
100
AcDbLine
 10
9.7246891837
 20
-17.9675350108
 30
0.0
 11
9.7246891837
 21
-18.0112505431
 31
0.0
  0
LINE
  5
255
330
1B
100
AcDbEntity
 67
     1
  8
0
  6
Continuous
 62
     7
370
    25
100
AcDbLine
 10
3.4483142806
 20
-21.6309640027
 30
0.0
 11
9.7246891837
 21
-18.0112505431
 31
0.0
  0
LINE
  5
256
330
1B
100
AcDbEntity
 67
     1
  8
0
  6
Continuous
 62
     7
370
    25
100
AcDbLine
 10
-17.1891869383
 20
-18.810118749
 30
0.0
 11
-17.1891869383
 21
-18.8538342813
 31
0.0
  0
LINE
  5
257
330
1B
100
AcDbEntity
 67
     1
  8
0
  6
Continuous
 62
     7
370
    25
100
AcDbLine
 10
-16.229372505
 20
-18.7009992585
 30
0.0
 11
-17.1891869383
 21
-18.8538342813
 31
0.0
  0
LINE
  5
258
330
1B
100
AcDbEntity
 67
     1
  8
0
  6
Continuous
 62
     7
370
    25
100
AcDbLine
 10
2.0664837052
 20
-14.6384963936
 30
0.0
 11
2.0664837052
 21
-14.682211926
 31
0.0
  0
LINE
  5
259
330
1B
100
AcDbEntity
 67
     1
  8
0
  6
Continuous
 62
     7
370
    25
100
AcDbLine
 10
-2.2576448795
 20
-18.9026939869
 30
0.0
 11
2.0664837052
 21
-14.682211926
 31
0.0
  0
LINE
  5
25A
330
1B
100
AcDbEntity
 67
     1
  8
0
  6
Continuous
 62
     7
370
    25
100
AcDbLine
 10
-23.8223228509
 20
-17.0073745388
 30
0.0
 11
-23.8223228509
 21
-17.0510900712
 31
0.0
  0
LINE
  5
25B
330
1B
100
AcDbEntity
 67
     1
  8
0
  6
Continuous
 62
     7
370
    25
100
AcDbLine
 10
-17.1891869383
 20
-18.8538342813
 30
0.0
 11
-23.8223228509
 21
-17.0510900712
 31
0.0
  0
LINE
  5
25C
330
1B
100
AcDbEntity
 67
     1
  8
0
  6
Continuous
 62
     7
370
    25
100
AcDbLine
 10
-16.9473417867
 20
-17.8567401555
 30
0.0
 11
-16.9473417867
 21
-17.9004556878
 31
0.0
  0
LINE
  5
25D
330
1B
100
AcDbEntity
 67
     1
  8
0
  6
Continuous
 62
     7
370
    25
100
AcDbLine
 10
-16.38730732
 20
-17.3101293473
 30
0.0
 11
-16.38730732
 21
-17.3538448797
 31
0.0
  0
LINE
  5
25E
330
1B
100
AcDbEntity
 67
     1
  8
0
  6
Continuous
 62
     7
370
    25
100
AcDbLine
 10
-16.38730732
 20
-17.3538448797
 30
0.0
 11
-16.9473417867
 21
-17.9004556878
 31
0.0
  0
LINE
  5
25F
330
1B
100
AcDbEntity
 67
     1
  8
0
  6
Continuous
 62
     7
370
    25
100
AcDbLine
 10
-24.1356149004
 20
-16.4854683627
 30
0.0
 11
-24.1356149004
 21
-16.529183895
 31
0.0
  0
LINE
  5
260
330
1B
100
AcDbEntity
 67
     1
  8
0
  6
Continuous
 62
     7
370
    25
100
AcDbLine
 10
-23.8223228509
 20
-17.0510900712
 30
0.0
 11
-24.1356149004
 21
-16.529183895
 31
0.0
  0
ARC
  5
261
330
1B
100
AcDbEntity
 67
     1
  8
0
  6
Continuous
 62
     7
370
    25
100
AcDbCircle
 10
5.2413419054
 20
-23.6932205134
 30
0.0
 40
0.6201315072598542
100
AcDbArc
 50
131.2735850557
 51
175.1318425654
  0
ARC
  5
262
330
1B
100
AcDbEntity
 67
     1
  8
0
  6
Continuous
 62
     7
370
    25
100
AcDbCircle
 10
-16.8311993865
 20
-18.0316895077
 30
0.0
 40
0.1752466051227159
100
AcDbArc
 50
131.5089435436
 51
169.1764675211
  0
ARC
  5
263
330
1B
100
AcDbEntity
 67
     1
  8
0
  6
Continuous
 62
     7
370
    25
100
AcDbCircle
 10
-19.971590173
 20
-16.2978474188
 30
0.0
 40
0.6201315072631972
100
AcDbArc
 50
131.2735850558
 51
175.1318425642
  0
VIEWPORT
  5
264
330
1B
100
AcDbEntity
 67
     1
  8
0
100
AcDbViewport
 10
0.0
 20
0.0
 30
0.0
 40
8.4
 41
6.4
 68
     1
 69
     1
 12
8.8157468036
 22
-52.1512417076
 13
0.0
 23
0.0
 14
0.5
 24
0.5
 15
0.5
 25
0.5
 16
0.0
 26
0.0
 36
1.0
 17
0.0
 27
0.0
 37
0.0
 42
50.0
 43
0.0
 44
0.0
 45
57.0763106122
 50
0.0
 51
0.0
 72
   100
 90
   557152
  1

281
     0
 71
     1
 74
     0
110
0.0
120
0.0
130
0.0
111
1.0
121
0.0
131
0.0
112
0.0
122
1.0
132
0.0
 79
     0
146
0.0
  0
MTEXT
  5
267
330
1B
100
AcDbEntity
 67
     1
  8
0
  6
Continuous
 62
     7
100
AcDbMText
 10
-45.9852088788
 20
-40.7484754084
 30
0.0
 40
0.1903
 41
0.0
 71
     1
 72
     1
  1
SOLIDWORKS Educational Product.
  7
SLDTEXTSTYLE0
 73
     1
 44
1.0
  0
MTEXT
  5
268
330
1B
100
AcDbEntity
 67
     1
  8
0
  6
Continuous
 62
     7
100
AcDbMText
 10
-45.9852088788
 20
-41.0339254084
 30
0.0
 40
0.1903
 41
0.0
 71
     1
 72
     1
  1
For Instructional Use Only.
  7
SLDTEXTSTYLE0
 73
     1
 44
1.0
  0
ENDSEC
  0
SECTION
  2
OBJECTS
  0
DICTIONARY
  5
C
330
0
100
AcDbDictionary
281
     1
  3
ACAD_GROUP
350
D
  3
ACAD_LAYOUT
350
1A
  3
ACAD_MLINESTYLE
350
17
  3
ACAD_PLOTSETTINGS
350
19
  3
ACAD_PLOTSTYLENAME
350
E
  3
ACAD_SCALELIST
350
47
  3
DWGPROPS
350
26B
  0
DICTIONARY
  5
D
102
{ACAD_REACTORS
330
C
102
}
330
C
100
AcDbDictionary
281
     1
  0
DICTIONARY
  5
1A
102
{ACAD_REACTORS
330
C
102
}
330
C
100
AcDbDictionary
281
     1
  3
_Trimetric
350
1E
  3
Layout2
350
26
  3
Model
350
22
  0
DICTIONARY
  5
17
102
{ACAD_REACTORS
330
C
102
}
330
C
100
AcDbDictionary
281
     1
  3
Standard
350
18
  0
DICTIONARY
  5
19
102
{ACAD_REACTORS
330
C
102
}
330
C
100
AcDbDictionary
281
     1
  0
ACDBDICTIONARYWDFLT
  5
E
102
{ACAD_REACTORS
330
C
102
}
330
C
100
AcDbDictionary
281
     1
  3
Normal
350
F
100
AcDbDictionaryWithDefault
340
F
  0
DICTIONARY
  5
47
102
{ACAD_REACTORS
330
C
102
}
330
C
100
AcDbDictionary
281
     1
  3
A0
350
48
  3
A1
350
49
  3
A2
350
4A
  3
A3
350
4B
  3
A4
350
4C
  3
A5
350
4D
  3
A6
350
4E
  3
A7
350
4F
  3
A8
350
50
  3
A9
350
51
  3
B1
350
52
  3
B2
350
53
  3
B3
350
54
  3
B4
350
55
  3
B5
350
56
  3
B6
350
57
  3
B7
350
58
  0
XRECORD
  5
26B
102
{ACAD_REACTORS
330
C
102
}
330
C
100
AcDbXrecord
280
     1
  1
DWGPROPS COOKIE
  2

  3

  4

  6

  7

  8
danie
  9

300
=
301
=
302
=
303
=
304
=
305
=
306
=
307
=
308
=
309
=
 40
0.0
 41
2459993.801110278
 42
2459993.801207234
  1

 90
        0
  0
LAYOUT
  5
1E
102
{ACAD_REACTORS
330
1A
102
}
330
1A
100
AcDbPlotSettings
  1

  2
none_device
  4
Letter_(8.50_x_11.00_Inches)
  6

 40
6.35
 41
6.35
 42
6.35001
 43
6.35001
 44
215.9
 45
279.4
 46
0.0
 47
0.0
 48
0.0
 49
0.0
140
0.0
141
0.0
142
1.0
143
5.5032358536
 70
   688
 72
     0
 73
     1
 74
     1
  7

 75
     0
147
0.1817112744
148
1168.0243055204
149
1033.9917089816
100
AcDbLayout
  1
_Trimetric
 70
     1
 71
     1
 10
-47.3610200088
 20
-42.0841439627
 11
13.1745743803
 21
4.6933607926
 12
0.0
 22
0.0
 32
0.0
 14
-45.9852088788
 24
-40.7083349993
 34
0.0
 15
11.798765417
 25
-11.6339227101
 35
0.0
146
0.0
 13
0.0
 23
0.0
 33
0.0
 16
1.0
 26
0.0
 36
0.0
 17
0.0
 27
1.0
 37
0.0
 76
     0
330
1B
331
264
  0
LAYOUT
  5
26
102
{ACAD_REACTORS
330
1A
102
}
330
1A
100
AcDbPlotSettings
  1

  2
none_device
  4

  6

 40
0.0
 41
0.0
 42
0.0
 43
0.0
 44
0.0
 45
0.0
 46
0.0
 47
0.0
 48
0.0
 49
0.0
140
0.0
141
0.0
142
1.0
143
1.0
 70
   688
 72
     0
 73
     0
 74
     5
  7

 75
    16
147
1.0
148
0.0
149
0.0
100
AcDbLayout
  1
Layout2
 70
     1
 71
     2
 10
0.0
 20
0.0
 11
0.0
 21
0.0
 12
0.0
 22
0.0
 32
0.0
 14
0.0
 24
0.0
 34
0.0
 15
0.0
 25
0.0
 35
0.0
146
0.0
 13
0.0
 23
0.0
 33
0.0
 16
1.0
 26
0.0
 36
0.0
 17
0.0
 27
1.0
 37
0.0
 76
     0
330
23
  0
LAYOUT
  5
22
102
{ACAD_REACTORS
330
1A
102
}
330
1A
100
AcDbPlotSettings
  1

  2
none_device
  4
ANSI_A_(11.00_x_8.50_Inches)
  6

 40
6.35
 41
19.05
 42
6.35000508
 43
19.05000254
 44
279.4
 45
215.9
 46
99.6762675416
 47
288.1034090934
 48
0.0
 49
0.0
140
0.0
141
0.0
142
0.1503828805
143
1.0
 70
  1696
 72
     0
 73
     0
 74
     0
  7

 75
     0
147
0.5913241897
148
-39.4088153714
149
0.0
100
AcDbLayout
  1
Model
 70
     1
 71
     0
 10
0.0
 20
0.0
 11
12.0
 21
9.0
 12
0.0
 22
0.0
 32
0.0
 14
-14.4606346967
 24
-80.129825341
 34
0.0
 15
32.0921283038
 25
-24.1726580742
 35
0.0
146
0.0
 13
0.0
 23
0.0
 33
0.0
 16
1.0
 26
0.0
 36
0.0
 17
0.0
 27
1.0
 37
0.0
 76
     0
330
1F
331
29
  0
MLINESTYLE
  5
18
102
{ACAD_REACTORS
330
17
102
}
330
17
100
AcDbMlineStyle
  2
Standard
 70
     0
  3

 62
   256
 51
90.0
 52
90.0
 71
     2
 49
0.5
 62
   256
  6
BYLAYER
 49
-0.5
 62
   256
  6
BYLAYER
  0
ACDBPLACEHOLDER
  5
F
102
{ACAD_REACTORS
330
E
102
}
330
E
  0
SCALE
  5
48
102
{ACAD_REACTORS
330
47
102
}
330
47
100
AcDbScale
 70
     0
300
1:1
140
1.0
141
1.0
290
     1
  0
SCALE
  5
49
102
{ACAD_REACTORS
330
47
102
}
330
47
100
AcDbScale
 70
     0
300
1/128" = 1'-0"
140
0.0078125
141
12.0
290
     0
  0
SCALE
  5
4A
102
{ACAD_REACTORS
330
47
102
}
330
47
100
AcDbScale
 70
     0
300
1/64" = 1'-0"
140
0.015625
141
12.0
290
     0
  0
SCALE
  5
4B
102
{ACAD_REACTORS
330
47
102
}
330
47
100
AcDbScale
 70
     0
300
1/32" = 1'-0"
140
0.03125
141
12.0
290
     0
  0
SCALE
  5
4C
102
{ACAD_REACTORS
330
47
102
}
330
47
100
AcDbScale
 70
     0
300
1/16" = 1'-0"
140
0.0625
141
12.0
290
     0
  0
SCALE
  5
4D
102
{ACAD_REACTORS
330
47
102
}
330
47
100
AcDbScale
 70
     0
300
3/32" = 1'-0"
140
0.09375
141
12.0
290
     0
  0
SCALE
  5
4E
102
{ACAD_REACTORS
330
47
102
}
330
47
100
AcDbScale
 70
     0
300
1/8" = 1'-0"
140
0.125
141
12.0
290
     0
  0
SCALE
  5
4F
102
{ACAD_REACTORS
330
47
102
}
330
47
100
AcDbScale
 70
     0
300
3/16" = 1'-0"
140
0.1875
141
12.0
290
     0
  0
SCALE
  5
50
102
{ACAD_REACTORS
330
47
102
}
330
47
100
AcDbScale
 70
     0
300
1/4" = 1'-0"
140
0.25
141
12.0
290
     0
  0
SCALE
  5
51
102
{ACAD_REACTORS
330
47
102
}
330
47
100
AcDbScale
 70
     0
300
3/8" = 1'-0"
140
0.375
141
12.0
290
     0
  0
SCALE
  5
52
102
{ACAD_REACTORS
330
47
102
}
330
47
100
AcDbScale
 70
     0
300
1/2" = 1'-0"
140
0.5
141
12.0
290
     0
  0
SCALE
  5
53
102
{ACAD_REACTORS
330
47
102
}
330
47
100
AcDbScale
 70
     0
300
3/4" = 1'-0"
140
0.75
141
12.0
290
     0
  0
SCALE
  5
54
102
{ACAD_REACTORS
330
47
102
}
330
47
100
AcDbScale
 70
     0
300
1" = 1'-0"
140
1.0
141
12.0
290
     0
  0
SCALE
  5
55
102
{ACAD_REACTORS
330
47
102
}
330
47
100
AcDbScale
 70
     0
300
1-1/2" = 1'-0"
140
1.5
141
12.0
290
     0
  0
SCALE
  5
56
102
{ACAD_REACTORS
330
47
102
}
330
47
100
AcDbScale
 70
     0
300
3" = 1'-0"
140
3.0
141
12.0
290
     0
  0
SCALE
  5
57
102
{ACAD_REACTORS
330
47
102
}
330
47
100
AcDbScale
 70
     0
300
6" = 1'-0"
140
6.0
141
12.0
290
     0
  0
SCALE
  5
58
102
{ACAD_REACTORS
330
47
102
}
330
47
100
AcDbScale
 70
     0
300
1'-0" = 1'-0"
140
12.0
141
12.0
290
     0
  0
ENDSEC
  0
EOF
