  0
SECTION
  2
HEADER
  9
$ACADVER
  1
AC1015
  9
$ACADMAINTVER
 70
     6
  9
$DWGCODEPAGE
  3
ANSI_1252
  9
$INSBASE
 10
0.0
 20
0.0
 30
0.0
  9
$EXTMIN
 10
-14.4606346967
 20
-80.629825341
 30
0.0
  9
$EXTMAX
 10
20.328500001
 20
-41.629825341
 30
0.0
  9
$LIMMIN
 10
0.0
 20
0.0
  9
$LIMMAX
 10
12.0
 20
9.0
  9
$ORTHOMODE
 70
     0
  9
$REGENMODE
 70
     1
  9
$FILLMODE
 70
     1
  9
$QTEXTMODE
 70
     0
  9
$MIRRTEXT
 70
     1
  9
$LTSCALE
 40
1.0
  9
$ATTMODE
 70
     1
  9
$TEXTSIZE
 40
0.1377952756
  9
$TRACEWID
 40
0.05
  9
$TEXTSTYLE
  7
Standard
  9
$CLAYER
  8
0
  9
$CELTYPE
  6
ByLayer
  9
$CECOLOR
 62
   256
  9
$CELTSCALE
 40
1.0
  9
$DISPSILH
 70
     0
  9
$DIMSCALE
 40
1.0
  9
$DIMASZ
 40
0.14
  9
$DIMEXO
 40
0.0
  9
$DIMDLI
 40
0.38
  9
$DIMRND
 40
0.0
  9
$DIMDLE
 40
0.0
  9
$DIMEXE
 40
0.0393700787
  9
$DIMTP
 40
0.0
  9
$DIMTM
 40
0.0
  9
$DIMTXT
 40
0.1377952756
  9
$DIMCEN
 40
0.09
  9
$DIMTSZ
 40
0.0
  9
$DIMTOL
 70
     0
  9
$DIMLIM
 70
     0
  9
$DIMTIH
 70
     1
  9
$DIMTOH
 70
     1
  9
$DIMSE1
 70
     0
  9
$DIMSE2
 70
     0
  9
$DIMTAD
 70
     1
  9
$DIMZIN
 70
     1
  9
$DIMBLK
  1

  9
$DIMASO
 70
     1
  9
$DIMSHO
 70
     1
  9
$DIMPOST
  1

  9
$DIMAPOST
  1

  9
$DIMALT
 70
     0
  9
$DIMALTD
 70
     2
  9
$DIMALTF
 40
25.4
  9
$DIMLFAC
 40
1.0
  9
$DIMTOFL
 70
     0
  9
$DIMTVP
 40
0.0
  9
$DIMTIX
 70
     0
  9
$DIMSOXD
 70
     0
  9
$DIMSAH
 70
     0
  9
$DIMBLK1
  1

  9
$DIMBLK2
  1

  9
$DIMSTYLE
  2
Standard
  9
$DIMCLRD
 70
     0
  9
$DIMCLRE
 70
     0
  9
$DIMCLRT
 70
     0
  9
$DIMTFAC
 40
1.0
  9
$DIMGAP
 40
0.06
  9
$DIMJUST
 70
     0
  9
$DIMSD1
 70
     0
  9
$DIMSD2
 70
     0
  9
$DIMTOLJ
 70
     1
  9
$DIMTZIN
 70
     1
  9
$DIMALTZ
 70
     0
  9
$DIMALTTZ
 70
     0
  9
$DIMUPT
 70
     0
  9
$DIMDEC
 70
     2
  9
$DIMTDEC
 70
     2
  9
$DIMALTU
 70
     2
  9
$DIMALTTD
 70
     2
  9
$DIMTXSTY
  7
Standard
  9
$DIMAUNIT
 70
     0
  9
$DIMADEC
 70
     2
  9
$DIMALTRND
 40
0.0
  9
$DIMAZIN
 70
     0
  9
$DIMDSEP
 70
    46
  9
$DIMATFIT
 70
     3
  9
$DIMFRAC
 70
     0
  9
$DIMLDRBLK
  1

  9
$DIMLUNIT
 70
     2
  9
$DIMLWD
 70
    -2
  9
$DIMLWE
 70
    -2
  9
$DIMTMOVE
 70
     0
  9
$LUNITS
 70
     2
  9
$LUPREC
 70
     2
  9
$SKETCHINC
 40
0.1
  9
$FILLETRAD
 40
0.0
  9
$AUNITS
 70
     0
  9
$AUPREC
 70
     2
  9
$MENU
  1
.
  9
$ELEVATION
 40
0.0
  9
$PELEVATION
 40
0.0
  9
$THICKNESS
 40
0.0
  9
$LIMCHECK
 70
     0
  9
$CHAMFERA
 40
0.0
  9
$CHAMFERB
 40
0.0
  9
$CHAMFERC
 40
0.0
  9
$CHAMFERD
 40
0.0
  9
$SKPOLY
 70
     0
  9
$TDCREATE
 40
2460005.495655845
  9
$TDUCREATE
 40
2460005.703989178
  9
$TDUPDATE
 40
2460005.495723287
  9
$TDUUPDATE
 40
2460005.704056621
  9
$TDINDWG
 40
0.0000000116
  9
$TDUSRTIMER
 40
0.0000000116
  9
$USRTIMER
 70
     1
  9
$ANGBASE
 50
0.0
  9
$ANGDIR
 70
     0
  9
$PDMODE
 70
     0
  9
$PDSIZE
 40
-1.0
  9
$PLINEWID
 40
0.0
  9
$SPLFRAME
 70
     0
  9
$SPLINETYPE
 70
     6
  9
$SPLINESEGS
 70
     8
  9
$HANDSEED
  5
194
  9
$SURFTAB1
 70
     6
  9
$SURFTAB2
 70
     6
  9
$SURFTYPE
 70
     6
  9
$SURFU
 70
     6
  9
$SURFV
 70
     6
  9
$UCSBASE
  2

  9
$UCSNAME
  2

  9
$UCSORG
 10
0.0
 20
0.0
 30
0.0
  9
$UCSXDIR
 10
1.0
 20
0.0
 30
0.0
  9
$UCSYDIR
 10
0.0
 20
1.0
 30
0.0
  9
$UCSORTHOREF
  2

  9
$UCSORTHOVIEW
 70
     0
  9
$UCSORGTOP
 10
0.0
 20
0.0
 30
0.0
  9
$UCSORGBOTTOM
 10
0.0
 20
0.0
 30
0.0
  9
$UCSORGLEFT
 10
0.0
 20
0.0
 30
0.0
  9
$UCSORGRIGHT
 10
0.0
 20
0.0
 30
0.0
  9
$UCSORGFRONT
 10
0.0
 20
0.0
 30
0.0
  9
$UCSORGBACK
 10
0.0
 20
0.0
 30
0.0
  9
$PUCSBASE
  2

  9
$PUCSNAME
  2

  9
$PUCSORG
 10
0.0
 20
0.0
 30
0.0
  9
$PUCSXDIR
 10
1.0
 20
0.0
 30
0.0
  9
$PUCSYDIR
 10
0.0
 20
1.0
 30
0.0
  9
$PUCSORTHOREF
  2

  9
$PUCSORTHOVIEW
 70
     0
  9
$PUCSORGTOP
 10
0.0
 20
0.0
 30
0.0
  9
$PUCSORGBOTTOM
 10
0.0
 20
0.0
 30
0.0
  9
$PUCSORGLEFT
 10
0.0
 20
0.0
 30
0.0
  9
$PUCSORGRIGHT
 10
0.0
 20
0.0
 30
0.0
  9
$PUCSORGFRONT
 10
0.0
 20
0.0
 30
0.0
  9
$PUCSORGBACK
 10
0.0
 20
0.0
 30
0.0
  9
$USERI1
 70
     0
  9
$USERI2
 70
     0
  9
$USERI3
 70
     0
  9
$USERI4
 70
     0
  9
$USERI5
 70
     0
  9
$USERR1
 40
0.0
  9
$USERR2
 40
0.0
  9
$USERR3
 40
0.0
  9
$USERR4
 40
0.0
  9
$USERR5
 40
0.0
  9
$WORLDVIEW
 70
     1
  9
$SHADEDGE
 70
     3
  9
$SHADEDIF
 70
    70
  9
$TILEMODE
 70
     1
  9
$MAXACTVP
 70
    64
  9
$PINSBASE
 10
0.0
 20
0.0
 30
0.0
  9
$PLIMCHECK
 70
     0
  9
$PEXTMIN
 10
-60.5215946975
 20
-37.4262062859
 30
0.0
  9
$PEXTMAX
 10
-21.3612780321
 20
-14.9036628368
 30
0.0
  9
$PLIMMIN
 10
-61.4539846929
 20
-38.3585948129
  9
$PLIMMAX
 10
-20.4288895051
 20
-6.6573848951
  9
$UNITMODE
 70
     0
  9
$VISRETAIN
 70
     1
  9
$PLINEGEN
 70
     0
  9
$PSLTSCALE
 70
     1
  9
$TREEDEPTH
 70
  3020
  9
$CMLSTYLE
  2
Standard
  9
$CMLJUST
 70
     0
  9
$CMLSCALE
 40
1.0
  9
$PROXYGRAPHICS
 70
     1
  9
$MEASUREMENT
 70
     0
  9
$CELWEIGHT
370
    -1
  9
$ENDCAPS
280
     0
  9
$JOINSTYLE
280
     0
  9
$LWDISPLAY
290
     1
  9
$INSUNITS
 70
     1
  9
$HYPERLINKBASE
  1

  9
$STYLESHEET
  1

  9
$XEDIT
290
     1
  9
$CEPSNTYPE
380
     0
  9
$PSTYLEMODE
290
     1
  9
$FINGERPRINTGUID
  2
{94fb7257-ad09-4772-8fb7-68c5025a252e}
  9
$VERSIONGUID
  2
{FAEB1C32-E019-11D5-929B-00C0DF256EC4}
  9
$EXTNAMES
290
     1
  9
$PSVPSCALE
 40
0.0
  9
$OLESTARTUP
290
     0
  0
ENDSEC
  0
SECTION
  2
CLASSES
  0
CLASS
  1
ACDBDICTIONARYWDFLT
  2
AcDbDictionaryWithDefault
  3
ObjectDBX Classes
 90
        0
280
     0
281
     0
  0
CLASS
  1
VISUALSTYLE
  2
AcDbVisualStyle
  3
ObjectDBX Classes
 90
     4095
280
     0
281
     0
  0
CLASS
  1
MATERIAL
  2
AcDbMaterial
  3
ObjectDBX Classes
 90
     1153
280
     0
281
     0
  0
CLASS
  1
SCALE
  2
AcDbScale
  3
ObjectDBX Classes
 90
     1153
280
     0
281
     0
  0
CLASS
  1
TABLESTYLE
  2
AcDbTableStyle
  3
ObjectDBX Classes
 90
     4095
280
     0
281
     0
  0
CLASS
  1
MLEADERSTYLE
  2
AcDbMLeaderStyle
  3
ACDB_MLEADERSTYLE_CLASS
 90
     4095
280
     0
281
     0
  0
CLASS
  1
SUN
  2
AcDbSun
  3
SCENEOE
 90
     1153
280
     0
281
     0
  0
CLASS
  1
ACDBPLACEHOLDER
  2
AcDbPlaceHolder
  3
ObjectDBX Classes
 90
        0
280
     0
281
     0
  0
CLASS
  1
LAYOUT
  2
AcDbLayout
  3
ObjectDBX Classes
 90
        0
280
     0
281
     0
  0
ENDSEC
  0
SECTION
  2
TABLES
  0
TABLE
  2
VPORT
  5
8
330
0
100
AcDbSymbolTable
 70
     1
  0
VPORT
  5
29
330
8
100
AcDbSymbolTableRecord
100
AcDbViewportTableRecord
  2
*Active
 70
     0
 10
0.0
 20
0.0
 11
1.0
 21
1.0
 12
2.9339326522
 22
-61.129825341
 13
0.0
 23
0.0
 14
0.5
 24
0.5
 15
0.5
 25
0.5
 16
0.0
 26
0.0
 36
1.0
 17
0.0
 27
0.0
 37
0.0
 40
39.78
 41
0.8920290948
 42
50.0
 43
0.0
 44
0.0
 50
0.0
 51
0.0
 71
     0
 72
   100
 73
     1
 74
     3
 75
     0
 76
     0
 77
     0
 78
     0
281
     0
 65
     1
110
0.0
120
0.0
130
0.0
111
1.0
121
0.0
131
0.0
112
0.0
122
1.0
132
0.0
 79
     0
146
0.0
  0
ENDTAB
  0
TABLE
  2
LTYPE
  5
5
330
0
100
AcDbSymbolTable
 70
     6
  0
LTYPE
  5
14
330
5
100
AcDbSymbolTableRecord
100
AcDbLinetypeTableRecord
  2
ByBlock
 70
     0
  3

 72
    65
 73
     0
 40
0.0
  0
LTYPE
  5
15
330
5
100
AcDbSymbolTableRecord
100
AcDbLinetypeTableRecord
  2
ByLayer
 70
     0
  3

 72
    65
 73
     0
 40
0.0
  0
LTYPE
  5
16
330
5
100
AcDbSymbolTableRecord
100
AcDbLinetypeTableRecord
  2
Continuous
 70
     0
  3
Solid line
 72
    65
 73
     0
 40
0.0
  0
LTYPE
  5
5E
330
5
100
AcDbSymbolTableRecord
100
AcDbLinetypeTableRecord
  2
HIDDEN
 70
     0
  3
Hidden __ __ __ __ __ __ __ __ __ __ __ __ __ __
 72
    65
 73
     2
 40
0.075
 49
0.05
 74
     0
 49
-0.025
 74
     0
  0
LTYPE
  5
5F
330
5
100
AcDbSymbolTableRecord
100
AcDbLinetypeTableRecord
  2
PHANTOM
 70
     0
  3
Phantom ______  __  __  ______  __  __  ______
 72
    65
 73
     6
 40
0.5
 49
0.25
 74
     0
 49
-0.05
 74
     0
 49
0.05
 74
     0
 49
-0.05
 74
     0
 49
0.05
 74
     0
 49
-0.05
 74
     0
  0
LTYPE
  5
60
330
5
100
AcDbSymbolTableRecord
100
AcDbLinetypeTableRecord
  2
CENTER
 70
     0
  3
Center ____ _ ____ _ ____ _ ____ _ ____ _ ____
 72
    65
 73
     4
 40
0.4
 49
0.25
 74
     0
 49
-0.05
 74
     0
 49
0.05
 74
     0
 49
-0.05
 74
     0
  0
LTYPE
  5
61
330
5
100
AcDbSymbolTableRecord
100
AcDbLinetypeTableRecord
  2
CENTERX2
 70
     0
  3
Center (2x) ________  __  ________  __  _____
 72
    65
 73
     4
 40
0.8
 49
0.5
 74
     0
 49
-0.1
 74
     0
 49
0.1
 74
     0
 49
-0.1
 74
     0
  0
LTYPE
  5
62
330
5
100
AcDbSymbolTableRecord
100
AcDbLinetypeTableRecord
  2
DOT2
 70
     0
  3
Dot (.5x) ........................................
 72
    65
 73
     2
 40
0.025
 49
0.0
 74
     0
 49
-0.025
 74
     0
  0
ENDTAB
  0
TABLE
  2
LAYER
  5
2
330
0
100
AcDbSymbolTable
 70
     1
  0
LAYER
  5
10
330
2
100
AcDbSymbolTableRecord
100
AcDbLayerTableRecord
  2
0
 70
     0
 62
     7
  6
Continuous
370
    -3
390
F
  0
ENDTAB
  0
TABLE
  2
STYLE
  5
3
330
0
100
AcDbSymbolTable
 70
     2
  0
STYLE
  5
11
330
3
100
AcDbSymbolTableRecord
100
AcDbTextStyleTableRecord
  2
Standard
 70
     0
 40
0.0
 41
1.0
 50
0.0
 71
     0
 42
0.1377952756
  3
txt
  4

  0
STYLE
  5
18E
330
3
100
AcDbSymbolTableRecord
100
AcDbTextStyleTableRecord
  2
SLDTEXTSTYLE0
 70
     0
 40
0.0
 41
0.7
 50
0.0
 71
     0
 42
0.1377952756
  3
TXT
  4

  0
ENDTAB
  0
TABLE
  2
VIEW
  5
6
330
0
100
AcDbSymbolTable
 70
     0
  0
ENDTAB
  0
TABLE
  2
UCS
  5
7
330
0
100
AcDbSymbolTable
 70
     0
  0
ENDTAB
  0
TABLE
  2
APPID
  5
9
330
0
100
AcDbSymbolTable
 70
     1
  0
APPID
  5
12
330
9
100
AcDbSymbolTableRecord
100
AcDbRegAppTableRecord
  2
ACAD
 70
     0
  0
ENDTAB
  0
TABLE
  2
DIMSTYLE
  5
A
330
0
100
AcDbSymbolTable
 70
     1
100
AcDbDimStyleTable
  0
DIMSTYLE
105
27
330
A
100
AcDbSymbolTableRecord
100
AcDbDimStyleTableRecord
  2
Standard
 70
     0
178
     0
340
11
  0
ENDTAB
  0
TABLE
  2
BLOCK_RECORD
  5
1
330
0
100
AcDbSymbolTable
 70
     1
  0
BLOCK_RECORD
  5
1F
330
1
100
AcDbSymbolTableRecord
100
AcDbBlockTableRecord
  2
*Model_Space
340
22
  0
BLOCK_RECORD
  5
1B
330
1
100
AcDbSymbolTableRecord
100
AcDbBlockTableRecord
  2
*Paper_Space
340
1E
  0
BLOCK_RECORD
  5
23
330
1
100
AcDbSymbolTableRecord
100
AcDbBlockTableRecord
  2
*Paper_Space0
340
26
  0
ENDTAB
  0
ENDSEC
  0
SECTION
  2
BLOCKS
  0
BLOCK
  5
20
330
1F
100
AcDbEntity
  8
0
100
AcDbBlockBegin
  2
*Model_Space
 70
     0
 10
0.0
 20
0.0
 30
0.0
  3
*Model_Space
  1

  0
ENDBLK
  5
21
330
1F
100
AcDbEntity
  8
0
100
AcDbBlockEnd
  0
BLOCK
  5
1C
330
1B
100
AcDbEntity
 67
     1
  8
0
100
AcDbBlockBegin
  2
*Paper_Space
 70
     0
 10
0.0
 20
0.0
 30
0.0
  3
*Paper_Space
  1

  0
ENDBLK
  5
1D
330
1B
100
AcDbEntity
 67
     1
  8
0
100
AcDbBlockEnd
  0
BLOCK
  5
24
330
23
100
AcDbEntity
  8
0
100
AcDbBlockBegin
  2
*Paper_Space0
 70
     0
 10
0.0
 20
0.0
 30
0.0
  3
*Paper_Space0
  1

  0
ENDBLK
  5
25
330
23
100
AcDbEntity
  8
0
100
AcDbBlockEnd
  0
ENDSEC
  0
SECTION
  2
ENTITIES
  0
CIRCLE
  5
63
330
1F
100
AcDbEntity
  8
0
  6
Continuous
 62
     7
370
    25
100
AcDbCircle
 10
-1.1293846967
 20
-46.629825341
 30
0.0
 40
1.749999999999993
  0
CIRCLE
  5
64
330
1F
100
AcDbEntity
  8
0
  6
Continuous
 62
     7
370
    25
100
AcDbCircle
 10
-2.0106346967
 20
-75.629825341
 30
0.0
 40
1.81100000000005
  0
LINE
  5
97
330
1F
100
AcDbEntity
  8
0
  6
Continuous
 62
     7
370
    25
100
AcDbLine
 10
-1.2606346967
 20
-72.529825341
 30
0.0
 11
-0.0606346967
 21
-72.529825341
 31
0.0
  0
LINE
  5
98
330
1F
100
AcDbEntity
  8
0
  6
Continuous
 62
     7
370
    25
100
AcDbLine
 10
-1.2606346967
 20
-71.529825341
 30
0.0
 11
-0.0606346967
 21
-71.529825341
 31
0.0
  0
LINE
  5
99
330
1F
100
AcDbEntity
  8
0
  6
Continuous
 62
     7
370
    25
100
AcDbLine
 10
-14.4606346967
 20
-58.629825341
 30
0.0
 11
-14.4606346967
 21
-71.129825341
 31
0.0
  0
LINE
  5
9A
330
1F
100
AcDbEntity
  8
0
  6
Continuous
 62
     7
370
    25
100
AcDbLine
 10
-4.9606346967
 20
-58.629825341
 30
0.0
 11
-14.4606346967
 21
-58.629825341
 31
0.0
  0
LINE
  5
9B
330
1F
100
AcDbEntity
  8
0
  6
Continuous
 62
     7
370
    25
100
AcDbLine
 10
-14.2087038675
 20
-56.4565290859
 30
0.0
 11
-4.9606346967
 21
-58.629825341
 31
0.0
  0
LINE
  5
9C
330
1F
100
AcDbEntity
  8
0
  6
Continuous
 62
     7
370
    25
100
AcDbLine
 10
-14.2087038675
 20
-56.4565290859
 30
0.0
 11
-12.4462038675
 21
-48.9565290859
 31
0.0
  0
LINE
  5
9D
330
1F
100
AcDbEntity
  8
0
  6
Continuous
 62
     7
370
    25
100
AcDbLine
 10
-3.1981346967
 20
-51.129825341
 30
0.0
 11
-12.4462038675
 21
-48.9565290859
 31
0.0
  0
LINE
  5
9E
330
1F
100
AcDbEntity
  8
0
  6
Continuous
 62
     7
370
    25
100
AcDbLine
 10
-3.1981346967
 20
-51.129825341
 30
0.0
 11
-3.9481346967
 21
-50.379825341
 31
0.0
  0
LINE
  5
9F
330
1F
100
AcDbEntity
  8
0
  6
Continuous
 62
     7
370
    25
100
AcDbLine
 10
-3.9481346967
 20
-50.379825341
 30
0.0
 11
-3.9481346967
 21
-42.879825341
 31
0.0
  0
LINE
  5
A0
330
1F
100
AcDbEntity
  8
0
  6
Continuous
 62
     7
370
    25
100
AcDbLine
 10
-3.9481346967
 20
-42.879825341
 30
0.0
 11
-3.1981346967
 21
-42.129825341
 31
0.0
  0
LINE
  5
A1
330
1F
100
AcDbEntity
  8
0
  6
Continuous
 62
     7
370
    25
100
AcDbLine
 10
-3.1981346967
 20
-42.129825341
 30
0.0
 11
-3.1981346967
 21
-41.629825341
 31
0.0
  0
LINE
  5
A2
330
1F
100
AcDbEntity
  8
0
  6
Continuous
 62
     7
370
    25
100
AcDbLine
 10
-3.1981346967
 20
-41.629825341
 30
0.0
 11
0.9393653033
 21
-41.629825341
 31
0.0
  0
LINE
  5
A3
330
1F
100
AcDbEntity
  8
0
  6
Continuous
 62
     7
370
    25
100
AcDbLine
 10
0.9393653033
 20
-42.129825341
 30
0.0
 11
0.9393653033
 21
-41.629825341
 31
0.0
  0
LINE
  5
A4
330
1F
100
AcDbEntity
  8
0
  6
Continuous
 62
     7
370
    25
100
AcDbLine
 10
1.6893653033
 20
-42.879825341
 30
0.0
 11
0.9393653033
 21
-42.129825341
 31
0.0
  0
LINE
  5
A5
330
1F
100
AcDbEntity
  8
0
  6
Continuous
 62
     7
370
    25
100
AcDbLine
 10
1.6893653033
 20
-50.379825341
 30
0.0
 11
1.6893653033
 21
-42.879825341
 31
0.0
  0
LINE
  5
A6
330
1F
100
AcDbEntity
  8
0
  6
Continuous
 62
     7
370
    25
100
AcDbLine
 10
0.9393653033
 20
-51.129825341
 30
0.0
 11
1.6893653033
 21
-50.379825341
 31
0.0
  0
LINE
  5
A7
330
1F
100
AcDbEntity
  8
0
  6
Continuous
 62
     7
370
    25
100
AcDbLine
 10
10.4393653033
 20
-51.129825341
 30
0.0
 11
0.9393653033
 21
-51.129825341
 31
0.0
  0
LINE
  5
A8
330
1F
100
AcDbEntity
  8
0
  6
Continuous
 62
     7
370
    25
100
AcDbLine
 10
10.4393653033
 20
-51.129825341
 30
0.0
 11
10.4393653033
 21
-71.129825341
 31
0.0
  0
LINE
  5
A9
330
1F
100
AcDbEntity
  8
0
  6
Continuous
 62
     7
370
    25
100
AcDbLine
 10
0.9393653033
 20
-71.129825341
 30
0.0
 11
10.4393653033
 21
-71.129825341
 31
0.0
  0
LINE
  5
AA
330
1F
100
AcDbEntity
  8
0
  6
Continuous
 62
     7
370
    25
100
AcDbLine
 10
0.9393653033
 20
-71.129825341
 30
0.0
 11
1.6893653033
 21
-71.879825341
 31
0.0
  0
LINE
  5
AB
330
1F
100
AcDbEntity
  8
0
  6
Continuous
 62
     7
370
    25
100
AcDbLine
 10
1.6893653033
 20
-71.879825341
 30
0.0
 11
1.6893653033
 21
-79.379825341
 31
0.0
  0
LINE
  5
AC
330
1F
100
AcDbEntity
  8
0
  6
Continuous
 62
     7
370
    25
100
AcDbLine
 10
1.6893653033
 20
-79.379825341
 30
0.0
 11
0.9393653033
 21
-80.129825341
 31
0.0
  0
LINE
  5
AD
330
1F
100
AcDbEntity
  8
0
  6
Continuous
 62
     7
370
    25
100
AcDbLine
 10
0.9393653033
 20
-80.129825341
 30
0.0
 11
0.9393653033
 21
-80.629825341
 31
0.0
  0
LINE
  5
AE
330
1F
100
AcDbEntity
  8
0
  6
Continuous
 62
     7
370
    25
100
AcDbLine
 10
-4.9606346967
 20
-80.629825341
 30
0.0
 11
0.9393653033
 21
-80.629825341
 31
0.0
  0
LINE
  5
AF
330
1F
100
AcDbEntity
  8
0
  6
Continuous
 62
     7
370
    25
100
AcDbLine
 10
-4.9606346967
 20
-80.129825341
 30
0.0
 11
-4.9606346967
 21
-80.629825341
 31
0.0
  0
LINE
  5
B0
330
1F
100
AcDbEntity
  8
0
  6
Continuous
 62
     7
370
    25
100
AcDbLine
 10
-5.7106346967
 20
-79.379825341
 30
0.0
 11
-4.9606346967
 21
-80.129825341
 31
0.0
  0
LINE
  5
B1
330
1F
100
AcDbEntity
  8
0
  6
Continuous
 62
     7
370
    25
100
AcDbLine
 10
-5.7106346967
 20
-71.879825341
 30
0.0
 11
-5.7106346967
 21
-79.379825341
 31
0.0
  0
LINE
  5
B2
330
1F
100
AcDbEntity
  8
0
  6
Continuous
 62
     7
370
    25
100
AcDbLine
 10
-4.9606346967
 20
-71.129825341
 30
0.0
 11
-5.7106346967
 21
-71.879825341
 31
0.0
  0
LINE
  5
B3
330
1F
100
AcDbEntity
  8
0
  6
Continuous
 62
     7
370
    25
100
AcDbLine
 10
-4.9606346967
 20
-71.129825341
 30
0.0
 11
-14.4606346967
 21
-71.129825341
 31
0.0
  0
LINE
  5
B4
330
1F
100
AcDbEntity
  8
0
  6
Continuous
 62
     7
370
    25
100
AcDbLine
 10
14.2757411809
 20
-74.8072849139
 30
0.0
 11
5.7757411809
 21
-74.8072849139
 31
0.0
  0
LINE
  5
B5
330
1F
100
AcDbEntity
  8
0
  6
Continuous
 62
     7
370
    25
100
AcDbLine
 10
5.7757411809
 20
-77.3072849139
 30
0.0
 11
14.2757411809
 21
-77.3072849139
 31
0.0
  0
LINE
  5
B6
330
1F
100
AcDbEntity
  8
0
  6
Continuous
 62
     7
370
    25
100
AcDbLine
 10
5.7757411809
 20
-74.8072849139
 30
0.0
 11
5.7757411809
 21
-77.3072849139
 31
0.0
  0
LINE
  5
B7
330
1F
100
AcDbEntity
  8
0
  6
Continuous
 62
     7
370
    25
100
AcDbLine
 10
14.2757411809
 20
-77.3072849139
 30
0.0
 11
14.2757411809
 21
-74.8072849139
 31
0.0
  0
LINE
  5
B8
330
1F
100
AcDbEntity
  8
0
  6
Continuous
 62
     7
370
    25
100
AcDbLine
 10
19.328500001
 20
-70.9379091037
 30
0.0
 11
20.328500001
 21
-70.9379091037
 31
0.0
  0
LINE
  5
B9
330
1F
100
AcDbEntity
  8
0
  6
Continuous
 62
     7
370
    25
100
AcDbLine
 10
19.328500001
 20
-70.9379091037
 30
0.0
 11
19.328500001
 21
-71.9379091037
 31
0.0
  0
LINE
  5
BA
330
1F
100
AcDbEntity
  8
0
  6
Continuous
 62
     7
370
    25
100
AcDbLine
 10
13.028500001
 20
-71.9379091037
 30
0.0
 11
19.328500001
 21
-71.9379091037
 31
0.0
  0
LINE
  5
BB
330
1F
100
AcDbEntity
  8
0
  6
Continuous
 62
     7
370
    25
100
AcDbLine
 10
13.028500001
 20
-70.9379091037
 30
0.0
 11
13.028500001
 21
-71.9379091037
 31
0.0
  0
LINE
  5
BC
330
1F
100
AcDbEntity
  8
0
  6
Continuous
 62
     7
370
    25
100
AcDbLine
 10
13.028500001
 20
-70.9379091037
 30
0.0
 11
12.028500001
 21
-70.9379091037
 31
0.0
  0
LINE
  5
BD
330
1F
100
AcDbEntity
  8
0
  6
Continuous
 62
     7
370
    25
100
AcDbLine
 10
12.028500001
 20
-58.4379091037
 30
0.0
 11
12.028500001
 21
-70.9379091037
 31
0.0
  0
LINE
  5
BE
330
1F
100
AcDbEntity
  8
0
  6
Continuous
 62
     7
370
    25
100
AcDbLine
 10
13.028500001
 20
-58.4379091037
 30
0.0
 11
12.028500001
 21
-58.4379091037
 31
0.0
  0
LINE
  5
BF
330
1F
100
AcDbEntity
  8
0
  6
Continuous
 62
     7
370
    25
100
AcDbLine
 10
12.0551151606
 20
-58.2087324197
 30
0.0
 11
13.028500001
 21
-58.4379091037
 31
0.0
  0
LINE
  5
C0
330
1F
100
AcDbEntity
  8
0
  6
Continuous
 62
     7
370
    25
100
AcDbLine
 10
13.9151151606
 20
-50.3087324197
 30
0.0
 11
12.0551151606
 21
-58.2087324197
 31
0.0
  0
LINE
  5
C1
330
1F
100
AcDbEntity
  8
0
  6
Continuous
 62
     7
370
    25
100
AcDbLine
 10
14.888500001
 20
-50.5379091037
 30
0.0
 11
13.9151151606
 21
-50.3087324197
 31
0.0
  0
LINE
  5
C2
330
1F
100
AcDbEntity
  8
0
  6
Continuous
 62
     7
370
    25
100
AcDbLine
 10
20.328500001
 20
-50.5379091037
 30
0.0
 11
19.328500001
 21
-50.5379091037
 31
0.0
  0
LINE
  5
C3
330
1F
100
AcDbEntity
  8
0
  6
Continuous
 62
     7
370
    25
100
AcDbLine
 10
20.328500001
 20
-50.5379091037
 30
0.0
 11
20.328500001
 21
-70.9379091037
 31
0.0
  0
LINE
  5
C4
330
1F
100
AcDbEntity
  8
0
  6
Continuous
 62
     7
370
    25
100
AcDbLine
 10
14.888500001
 20
-50.5379091037
 30
0.0
 11
14.888500001
 21
-49.5379091037
 31
0.0
  0
LINE
  5
C5
330
1F
100
AcDbEntity
  8
0
  6
Continuous
 62
     7
370
    25
100
AcDbLine
 10
14.888500001
 20
-49.5379091037
 30
0.0
 11
19.328500001
 21
-49.5379091037
 31
0.0
  0
LINE
  5
C6
330
1F
100
AcDbEntity
  8
0
  6
Continuous
 62
     7
370
    25
100
AcDbLine
 10
19.328500001
 20
-50.5379091037
 30
0.0
 11
19.328500001
 21
-49.5379091037
 31
0.0
  0
ARC
  5
C7
330
1F
100
AcDbEntity
  8
0
  6
Continuous
 62
     7
370
    25
100
AcDbCircle
 10
-0.0606346967
 20
-72.029825341
 30
0.0
 40
0.5
100
AcDbArc
 50
270.0
 51
90.0
  0
ARC
  5
C8
330
1F
100
AcDbEntity
  8
0
  6
Continuous
 62
     7
370
    25
100
AcDbCircle
 10
-1.2606346967
 20
-72.029825341
 30
0.0
 40
0.5
100
AcDbArc
 50
90.0
 51
270.0
  0
MTEXT
  5
191
330
1F
100
AcDbEntity
  8
0
  6
Continuous
 62
     7
100
AcDbMText
 10
-14.4606346967
 20
-80.6699657501
 30
0.0
 40
0.1903
 41
0.0
 71
     1
 72
     1
  1
SOLIDWORKS Educational Product.
  7
SLDTEXTSTYLE0
 73
     1
 44
1.0
  0
MTEXT
  5
192
330
1F
100
AcDbEntity
  8
0
  6
Continuous
 62
     7
100
AcDbMText
 10
-14.4606346967
 20
-80.9554157501
 30
0.0
 40
0.1903
 41
0.0
 71
     1
 72
     1
  1
For Instructional Use Only.
  7
SLDTEXTSTYLE0
 73
     1
 44
1.0
  0
LWPOLYLINE
  5
C9
330
1B
100
AcDbEntity
 67
     1
  8
0
  6
Continuous
 62
     7
370
    25
100
AcDbPolyline
 90
       71
 70
   128
 43
0.0
 10
-35.0082981488
 20
-19.2878215146
 10
-34.8923936062
 20
-19.3489801995
 10
-34.7674591448
 20
-19.4038948873
 10
-34.6345006634
 20
-19.4521234373
 10
-34.4945886655
 20
-19.4932775415
 10
-34.3488496402
 20
-19.5270258512
 10
-34.1984569925
 20
-19.5530966449
 10
-34.0446215956
 20
-19.571280016
 10
-33.8885820416
 20
-19.5814295625
 10
-33.7315946693
 20
-19.5834635664
 10
-33.5749234486
 20
-19.577365651
 10
-33.4198298041
 20
-19.5631849131
 10
-33.2675624588
 20
-19.5410355278
 10
-33.1193473796
 20
-19.5110958288
 10
-32.9763779072
 20
-19.4736068729
 10
-32.8398051479
 20
-19.4288704993
 10
-32.710728705
 20
-19.3772468989
 10
-32.5901878264
 20
-19.3191517146
 10
-32.4791530362
 20
-19.2550526945
 10
-32.3785183212
 20
-19.1854659265
 10
-32.2890939331
 20
-19.1109516821
 10
-32.2115998644
 20
-19.0321099064
 10
-32.1466600519
 20
-18.9495753868
 10
-32.0947973526
 20
-18.8640126428
 10
-32.0564293345
 20
-18.7761105754
 10
-32.0318649145
 20
-18.6865769202
 10
-32.0213018706
 20
-18.5961325497
 10
-32.0248252504
 20
-18.5055056687
 10
-32.0424066857
 20
-18.4154259515
 10
-32.0739046211
 20
-18.3266186672
 10
-32.1190654537
 20
-18.2397988397
 10
-32.1775255751
 20
-18.1556654913
 10
-32.2488142987
 20
-18.0748960141
 10
-32.3323576497
 20
-17.9981407165
 10
-32.4274829861
 20
-17.9260175871
 10
-32.5334244147
 20
-17.8591073189
 10
-32.6493289573
 20
-17.797948634
 10
-32.7742634187
 20
-17.7430339462
 10
-32.9072219002
 20
-17.6948053963
 10
-33.0471338981
 20
-17.6536512921
 10
-33.1928729233
 20
-17.6199029824
 10
-33.343265571
 20
-17.5938321886
 10
-33.4971009679
 20
-17.5756488176
 10
-33.6531405219
 20
-17.565499271
 10
-33.8101278943
 20
-17.5634652672
 10
-33.966799115
 20
-17.5695631826
 10
-34.1218927594
 20
-17.5837439204
 10
-34.2741601048
 20
-17.6058933058
 10
-34.422375184
 20
-17.6358330048
 10
-34.5653446563
 20
-17.6733219606
 10
-34.7019174157
 20
-17.7180583342
 10
-34.8309938585
 20
-17.7696819346
 10
-34.9515347372
 20
-17.827777119
 10
-35.0625695274
 20
-17.891876139
 10
-35.1632042423
 20
-17.961462907
 10
-35.2526286304
 20
-18.0359771514
 10
-35.3301226991
 20
-18.1148189272
 10
-35.3950625117
 20
-18.1973534468
 10
-35.446925211
 20
-18.2829161907
 10
-35.485293229
 20
-18.3708182582
 10
-35.5098576491
 20
-18.4603519133
 10
-35.5204206929
 20
-18.5507962839
 10
-35.5168973131
 20
-18.6414231649
 10
-35.4993158778
 20
-18.731502882
 10
-35.4678179424
 20
-18.8203101663
 10
-35.4226571098
 20
-18.9071299938
 10
-35.3641969884
 20
-18.9912633423
 10
-35.2929082648
 20
-19.0720328195
 10
-35.2093649138
 20
-19.148788117
 10
-35.1142395774
 20
-19.2209112464
 10
-35.0082981488
 20
-19.2878215146
  0
LWPOLYLINE
  5
CA
330
1B
100
AcDbEntity
 67
     1
  8
0
  6
Continuous
 62
     7
370
    25
100
AcDbPolyline
 90
       73
 70
   128
 43
0.0
 10
-56.1806661678
 20
-30.7909097592
 10
-56.0641841482
 20
-30.8525272015
 10
-55.9388427133
 20
-30.9080495015
 10
-55.8055957871
 20
-30.9570541011
 10
-55.6654574591
 20
-30.9991680456
 10
-55.5194942667
 20
-31.0340708226
 10
-55.3688170778
 20
-31.0614968007
 10
-55.2145726369
 20
-31.0812372517
 10
-55.0579348372
 20
-31.093141939
 10
-54.9000957871
 20
-31.0971202605
 10
-54.742256737
 20
-31.093141939
 10
-54.5856189373
 20
-31.0812372517
 10
-54.4313744964
 20
-31.0614968007
 10
-54.2806973075
 20
-31.0340708226
 10
-54.1347341151
 20
-30.9991680456
 10
-53.9945957871
 20
-30.9570541011
 10
-53.8613488609
 20
-30.9080495015
 10
-53.736007426
 20
-30.8525272015
 10
-53.6195254064
 20
-30.7909097592
 10
-53.5127893006
 20
-30.7236661206
 10
-53.4166114349
 20
-30.6513080504
 10
-53.3317237808
 20
-30.5743862372
 10
-53.2587723848
 20
-30.4934861025
 10
-53.1983124509
 20
-30.4092233451
 10
-53.1508041157
 20
-30.3222392554
 10
-53.1166089464
 20
-30.233195835
 10
-53.0959871889
 20
-30.142770758
 10
-53.0890957871
 20
-30.0516522139
 10
-53.0959871889
 20
-29.9605336698
 10
-53.1166089464
 20
-29.8701085928
 10
-53.1508041157
 20
-29.7810651724
 10
-53.1983124509
 20
-29.6940810828
 10
-53.2587723848
 20
-29.6098183254
 10
-53.3317237808
 20
-29.5289181906
 10
-53.4166114349
 20
-29.4519963775
 10
-53.5127893006
 20
-29.3796383073
 10
-53.6195254064
 20
-29.3123946687
 10
-53.736007426
 20
-29.2507772264
 10
-53.8613488609
 20
-29.1952549263
 10
-53.9945957871
 20
-29.1462503267
 10
-54.1347341151
 20
-29.1041363822
 10
-54.2806973075
 20
-29.0692336053
 10
-54.4313744964
 20
-29.0418076272
 10
-54.5856189373
 20
-29.0220671761
 10
-54.742256737
 20
-29.0101624889
 10
-54.9000957871
 20
-29.0061841673
 10
-55.0579348372
 20
-29.0101624889
 10
-55.2145726369
 20
-29.0220671761
 10
-55.3688170778
 20
-29.0418076272
 10
-55.5194942667
 20
-29.0692336053
 10
-55.6654574591
 20
-29.1041363822
 10
-55.8055957871
 20
-29.1462503267
 10
-55.9388427133
 20
-29.1952549263
 10
-56.0641841482
 20
-29.2507772264
 10
-56.1806661678
 20
-29.3123946687
 10
-56.2874022736
 20
-29.3796383073
 10
-56.3835801393
 20
-29.4519963775
 10
-56.4684677934
 20
-29.5289181906
 10
-56.5414191894
 20
-29.6098183254
 10
-56.6018791233
 20
-29.6940810828
 10
-56.6493874585
 20
-29.7810651724
 10
-56.6835826278
 20
-29.8701085928
 10
-56.7042043853
 20
-29.9605336698
 10
-56.7110957871
 20
-30.0516522139
 10
-56.7042043853
 20
-30.142770758
 10
-56.6835826278
 20
-30.233195835
 10
-56.6493874585
 20
-30.3222392554
 10
-56.6018791233
 20
-30.4092233451
 10
-56.5414191894
 20
-30.4934861025
 10
-56.4684677934
 20
-30.5743862372
 10
-56.3835801393
 20
-30.6513080504
 10
-56.2874022736
 20
-30.7236661206
 10
-56.1806661678
 20
-30.7909097592
  0
LWPOLYLINE
  5
CC
330
1B
100
AcDbEntity
 67
     1
  8
0
  6
Continuous
 62
     7
370
    25
100
AcDbPolyline
 90
       19
 70
   128
 43
0.0
 10
-50.6220997609
 20
-29.1740134937
 10
-50.5660771294
 20
-29.2125562074
 10
-50.522499258
 20
-29.256129357
 10
-50.4926902384
 20
-29.3034089945
 10
-50.4775558025
 20
-29.352958552
 10
-50.4775558025
 20
-29.4032724913
 10
-50.4926902384
 20
-29.4528220489
 10
-50.522499258
 20
-29.5001016864
 10
-50.5660771294
 20
-29.543674836
 10
-50.6220997609
 20
-29.5822175496
 10
-50.6888649333
 20
-29.6145587264
 10
-50.7643440206
 20
-29.6397156961
 10
-50.846243629
 20
-29.6569240768
 10
-50.9320752801
 20
-29.6656610007
 10
-51.0192310229
 20
-29.6656610007
 10
-51.1050626741
 20
-29.6569240768
 10
-51.1869622824
 20
-29.6397156961
 10
-51.2624413697
 20
-29.6145587264
 10
-51.3292065421
 20
-29.5822175496
  0
LWPOLYLINE
  5
CE
330
1B
100
AcDbEntity
 67
     1
  8
0
  6
Continuous
 62
     7
370
    25
100
AcDbPolyline
 90
       19
 70
   128
 43
0.0
 10
-51.4706278983
 20
-28.6841686266
 10
-51.5373930708
 20
-28.6518274498
 10
-51.6128721581
 20
-28.6266704802
 10
-51.6947717664
 20
-28.6094620994
 10
-51.7806034176
 20
-28.6007251756
 10
-51.8677591603
 20
-28.6007251756
 10
-51.9535908115
 20
-28.6094620994
 10
-52.0354904198
 20
-28.6266704802
 10
-52.1109695071
 20
-28.6518274498
 10
-52.1777346795
 20
-28.6841686266
 10
-52.2337573111
 20
-28.7227113403
 10
-52.2773351825
 20
-28.7662844899
 10
-52.3071442021
 20
-28.8135641274
 10
-52.322278638
 20
-28.8631136849
 10
-52.322278638
 20
-28.9134276242
 10
-52.3071442021
 20
-28.9629771818
 10
-52.2773351825
 20
-29.0102568193
 10
-52.2337573111
 20
-29.0538299689
 10
-52.1777346795
 20
-29.0923726825
  0
LWPOLYLINE
  5
F7
330
1B
100
AcDbEntity
 67
     1
  8
0
  6
Continuous
 62
     7
370
    25
100
AcDbPolyline
 90
       37
 70
   128
 43
0.0
 10
-53.0894549952
 20
-30.0724740053
 10
-53.0959871889
 20
-30.0021772512
 10
-53.1166089464
 20
-29.9117521742
 10
-53.1508041157
 20
-29.8227087538
 10
-53.1983124509
 20
-29.7357246642
 10
-53.2587723848
 20
-29.6514619068
 10
-53.3317237808
 20
-29.570561772
 10
-53.4166114349
 20
-29.4936399589
 10
-53.5127893006
 20
-29.4212818887
 10
-53.6195254064
 20
-29.3540382501
 10
-53.736007426
 20
-29.2924208078
 10
-53.8613488609
 20
-29.2368985077
 10
-53.9945957871
 20
-29.1878939081
 10
-54.1347341151
 20
-29.1457799636
 10
-54.2806973075
 20
-29.1108771867
 10
-54.4313744964
 20
-29.0834512086
 10
-54.5856189373
 20
-29.0637107575
 10
-54.742256737
 20
-29.0518060703
 10
-54.9000957871
 20
-29.0478277487
 10
-55.0579348372
 20
-29.0518060703
 10
-55.2145726369
 20
-29.0637107575
 10
-55.3688170778
 20
-29.0834512086
 10
-55.5194942667
 20
-29.1108771867
 10
-55.6654574591
 20
-29.1457799636
 10
-55.8055957871
 20
-29.1878939081
 10
-55.9388427133
 20
-29.2368985077
 10
-56.0641841482
 20
-29.2924208078
 10
-56.1806661678
 20
-29.3540382501
 10
-56.2874022736
 20
-29.4212818887
 10
-56.3835801393
 20
-29.4936399589
 10
-56.4684677934
 20
-29.570561772
 10
-56.5414191894
 20
-29.6514619068
 10
-56.6018791233
 20
-29.7357246642
 10
-56.6493874585
 20
-29.8227087538
 10
-56.6835826278
 20
-29.9117521742
 10
-56.7042043853
 20
-30.0021772512
 10
-56.710736579
 20
-30.0724740054
  0
LWPOLYLINE
  5
FC
330
1B
100
AcDbEntity
 67
     1
  8
0
  6
Continuous
 62
     7
370
    25
100
AcDbPolyline
 90
       15
 70
   128
 43
0.0
 10
-51.4706278983
 20
-28.725812208
 10
-51.5373930708
 20
-28.6934710312
 10
-51.6128721581
 20
-28.6683140616
 10
-51.6947717664
 20
-28.6511056808
 10
-51.7806034176
 20
-28.642368757
 10
-51.8677591603
 20
-28.642368757
 10
-51.9535908115
 20
-28.6511056808
 10
-52.0354904198
 20
-28.6683140616
 10
-52.1109695071
 20
-28.6934710312
 10
-52.1777346795
 20
-28.725812208
 10
-52.2337573111
 20
-28.7643549217
 10
-52.2773351825
 20
-28.8079280713
 10
-52.3071442021
 20
-28.8552077088
 10
-52.322278638
 20
-28.9047572663
 10
-52.3228786693
 20
-28.9090924455
  0
LWPOLYLINE
  5
105
330
1B
100
AcDbEntity
 67
     1
  8
0
  6
Continuous
 62
     7
370
    25
100
AcDbPolyline
 90
       37
 70
   128
 43
0.0
 10
-32.0212330135
 20
-18.5942862082
 10
-32.0248252504
 20
-18.5471492501
 10
-32.0424066857
 20
-18.457069533
 10
-32.0739046211
 20
-18.3682622486
 10
-32.1190654537
 20
-18.2814424211
 10
-32.1775255751
 20
-18.1973090727
 10
-32.2488142987
 20
-18.1165395955
 10
-32.3323576497
 20
-18.039784298
 10
-32.4274829861
 20
-17.9676611686
 10
-32.5334244147
 20
-17.9007509003
 10
-32.6493289573
 20
-17.8395922154
 10
-32.7742634187
 20
-17.7846775276
 10
-32.9072219002
 20
-17.7364489777
 10
-33.0471338981
 20
-17.6952948735
 10
-33.1928729233
 20
-17.6615465638
 10
-33.343265571
 20
-17.63547577
 10
-33.4971009679
 20
-17.617292399
 10
-33.6531405219
 20
-17.6071428524
 10
-33.8101278943
 20
-17.6051088486
 10
-33.966799115
 20
-17.611206764
 10
-34.1218927594
 20
-17.6253875018
 10
-34.2741601048
 20
-17.6475368872
 10
-34.422375184
 20
-17.6774765862
 10
-34.5653446563
 20
-17.714965542
 10
-34.7019174157
 20
-17.7597019156
 10
-34.8309938585
 20
-17.811325516
 10
-34.9515347372
 20
-17.8694207004
 10
-35.0625695274
 20
-17.9335197204
 10
-35.1632042423
 20
-18.0031064885
 10
-35.2526286304
 20
-18.0776207328
 10
-35.3301226991
 20
-18.1564625086
 10
-35.3950625117
 20
-18.2389970282
 10
-35.446925211
 20
-18.3245597722
 10
-35.485293229
 20
-18.4124618396
 10
-35.5098576491
 20
-18.5019954948
 10
-35.5204206929
 20
-18.5924398653
 10
-35.5204895501
 20
-18.5942862084
  0
LINE
  5
12F
330
1B
100
AcDbEntity
 67
     1
  8
0
  6
Continuous
 62
     7
370
    25
100
AcDbLine
 10
-52.1777346795
 20
-29.0923726825
 30
0.0
 11
-51.3292065421
 21
-29.5822175496
 31
0.0
  0
LINE
  5
130
330
1B
100
AcDbEntity
 67
     1
  8
0
  6
Continuous
 62
     7
370
    25
100
AcDbLine
 10
-51.4706278983
 20
-28.6841686266
 30
0.0
 11
-50.6220997609
 21
-29.1740134937
 31
0.0
  0
LINE
  5
131
330
1B
100
AcDbEntity
 67
     1
  8
0
  6
Continuous
 62
     7
370
    25
100
AcDbLine
 10
-51.6827599327
 20
-18.0300427673
 30
0.0
 11
-60.5215946975
 21
-23.1325934662
 31
0.0
  0
LINE
  5
132
330
1B
100
AcDbEntity
 67
     1
  8
0
  6
Continuous
 62
     7
370
    25
100
AcDbLine
 10
-44.9652455114
 20
-21.9079812985
 30
0.0
 11
-51.6827599327
 21
-18.0300427673
 31
0.0
  0
LINE
  5
133
330
1B
100
AcDbEntity
 67
     1
  8
0
  6
Continuous
 62
     7
370
    25
100
AcDbLine
 10
-49.9678654154
 20
-17.2457336076
 30
0.0
 11
-44.9652455114
 21
-21.9079812985
 31
0.0
  0
LINE
  5
134
330
1B
100
AcDbEntity
 67
     1
  8
0
  6
Continuous
 62
     7
370
    25
100
AcDbLine
 10
-49.9678654154
 20
-17.2457336076
 30
0.0
 11
-43.4182888547
 21
-14.9036628368
 31
0.0
  0
LINE
  5
135
330
1B
100
AcDbEntity
 67
     1
  8
0
  6
Continuous
 62
     7
370
    25
100
AcDbLine
 10
-38.4156689507
 20
-19.5659105277
 30
0.0
 11
-43.4182888547
 21
-14.9036628368
 31
0.0
  0
LINE
  5
136
330
1B
100
AcDbEntity
 67
     1
  8
0
  6
Continuous
 62
     7
370
    25
100
AcDbLine
 10
-38.4156689507
 20
-19.5659105277
 30
0.0
 11
-38.4156689507
 21
-18.9536044438
 31
0.0
  0
LINE
  5
137
330
1B
100
AcDbEntity
 67
     1
  8
0
  6
Continuous
 62
     7
370
    25
100
AcDbLine
 10
-38.4156689507
 20
-18.9536044438
 30
0.0
 11
-33.1123680918
 21
-15.8920740245
 31
0.0
  0
LINE
  5
138
330
1B
100
AcDbEntity
 67
     1
  8
0
  6
Continuous
 62
     7
370
    25
100
AcDbLine
 10
-33.1123680918
 20
-15.8920740245
 30
0.0
 11
-32.05170792
 21
-15.8920740245
 31
0.0
  0
LINE
  5
139
330
1B
100
AcDbEntity
 67
     1
  8
0
  6
Continuous
 62
     7
370
    25
100
AcDbLine
 10
-32.05170792
 20
-15.8920740245
 30
0.0
 11
-31.6981545294
 21
-15.6879719965
 31
0.0
  0
LINE
  5
13A
330
1B
100
AcDbEntity
 67
     1
  8
0
  6
Continuous
 62
     7
370
    25
100
AcDbLine
 10
-31.6981545294
 20
-15.6879719965
 30
0.0
 11
-28.7725002223
 21
-17.3769162779
 31
0.0
  0
LINE
  5
13B
330
1B
100
AcDbEntity
 67
     1
  8
0
  6
Continuous
 62
     7
370
    25
100
AcDbLine
 10
-29.1260536129
 20
-17.5810183058
 30
0.0
 11
-28.7725002223
 21
-17.3769162779
 31
0.0
  0
LINE
  5
13C
330
1B
100
AcDbEntity
 67
     1
  8
0
  6
Continuous
 62
     7
370
    25
100
AcDbLine
 10
-29.1260536129
 20
-18.2349679711
 30
0.0
 11
-29.1260536129
 21
-17.5810183058
 31
0.0
  0
LINE
  5
13D
330
1B
100
AcDbEntity
 67
     1
  8
0
  6
Continuous
 62
     7
370
    25
100
AcDbLine
 10
-34.4293544718
 20
-21.254854809
 30
0.0
 11
-29.1260536129
 21
-18.1933243897
 31
0.0
  0
LINE
  5
13E
330
1B
100
AcDbEntity
 67
     1
  8
0
  6
Continuous
 62
     7
370
    25
100
AcDbLine
 10
-35.4900146435
 20
-21.254854809
 30
0.0
 11
-34.4293544718
 21
-21.254854809
 31
0.0
  0
LINE
  5
13F
330
1B
100
AcDbEntity
 67
     1
  8
0
  6
Continuous
 62
     7
370
    25
100
AcDbLine
 10
-28.7725002223
 20
-25.1327933402
 30
0.0
 11
-35.4900146435
 21
-21.254854809
 31
0.0
  0
LINE
  5
140
330
1B
100
AcDbEntity
 67
     1
  8
0
  6
Continuous
 62
     7
370
    25
100
AcDbLine
 10
-28.7725002223
 20
-25.1327933402
 30
0.0
 11
-42.914635846
 21
-33.2968744584
 31
0.0
  0
LINE
  5
141
330
1B
100
AcDbEntity
 67
     1
  8
0
  6
Continuous
 62
     7
370
    25
100
AcDbLine
 10
-49.6321502673
 20
-29.4189359273
 30
0.0
 11
-42.914635846
 21
-33.2968744584
 31
0.0
  0
LINE
  5
142
330
1B
100
AcDbEntity
 67
     1
  8
0
  6
Continuous
 62
     7
370
    25
100
AcDbLine
 10
-49.6321502673
 20
-29.4189359273
 30
0.0
 11
-49.6321502673
 21
-30.0728855925
 31
0.0
  0
LINE
  5
143
330
1B
100
AcDbEntity
 67
     1
  8
0
  6
Continuous
 62
     7
370
    25
100
AcDbLine
 10
-49.6321502673
 20
-30.0312420111
 30
0.0
 11
-54.9354511262
 21
-33.0927724305
 31
0.0
  0
LINE
  5
144
330
1B
100
AcDbEntity
 67
     1
  8
0
  6
Continuous
 62
     7
370
    25
100
AcDbLine
 10
-54.9354511262
 20
-33.0927724305
 30
0.0
 11
-55.9961112979
 21
-33.0927724305
 31
0.0
  0
LINE
  5
145
330
1B
100
AcDbEntity
 67
     1
  8
0
  6
Continuous
 62
     7
370
    25
100
AcDbLine
 10
-55.9961112979
 20
-33.0927724305
 30
0.0
 11
-56.3496646885
 21
-33.2968744584
 31
0.0
  0
LINE
  5
146
330
1B
100
AcDbEntity
 67
     1
  8
0
  6
Continuous
 62
     7
370
    25
100
AcDbLine
 10
-60.5215946975
 20
-30.8884705285
 30
0.0
 11
-56.3496646885
 21
-33.2968744584
 31
0.0
  0
LINE
  5
147
330
1B
100
AcDbEntity
 67
     1
  8
0
  6
Continuous
 62
     7
370
    25
100
AcDbLine
 10
-60.1680413069
 20
-30.6843685006
 30
0.0
 11
-60.5215946975
 21
-30.8884705285
 31
0.0
  0
LINE
  5
148
330
1B
100
AcDbEntity
 67
     1
  8
0
  6
Continuous
 62
     7
370
    25
100
AcDbLine
 10
-60.1680413069
 20
-30.0720624167
 30
0.0
 11
-60.1680413069
 21
-30.6843685006
 31
0.0
  0
LINE
  5
149
330
1B
100
AcDbEntity
 67
     1
  8
0
  6
Continuous
 62
     7
370
    25
100
AcDbLine
 10
-54.864740448
 20
-27.0105319974
 30
0.0
 11
-60.1680413069
 21
-30.0720624167
 31
0.0
  0
LINE
  5
14A
330
1B
100
AcDbEntity
 67
     1
  8
0
  6
Continuous
 62
     7
370
    25
100
AcDbLine
 10
-53.8040802763
 20
-27.0105319974
 30
0.0
 11
-54.864740448
 21
-27.0105319974
 31
0.0
  0
LINE
  5
14B
330
1B
100
AcDbEntity
 67
     1
  8
0
  6
Continuous
 62
     7
370
    25
100
AcDbLine
 10
-53.8040802763
 20
-27.0105319974
 30
0.0
 11
-60.5215946975
 21
-23.1325934662
 31
0.0
  0
LINE
  5
14C
330
1B
100
AcDbEntity
 67
     1
  8
0
  6
Continuous
 62
     7
370
    25
100
AcDbLine
 10
-55.9961112979
 20
-33.0927724305
 30
0.0
 11
-55.9961112979
 21
-33.1344160119
 31
0.0
  0
LINE
  5
14D
330
1B
100
AcDbEntity
 67
     1
  8
0
  6
Continuous
 62
     7
370
    25
100
AcDbLine
 10
-54.9354511262
 20
-33.0927724305
 30
0.0
 11
-54.9354511262
 21
-33.1344160119
 31
0.0
  0
LINE
  5
14E
330
1B
100
AcDbEntity
 67
     1
  8
0
  6
Continuous
 62
     7
370
    25
100
AcDbLine
 10
-54.9354511262
 20
-33.1344160119
 30
0.0
 11
-55.9961112979
 21
-33.1344160119
 31
0.0
  0
LINE
  5
14F
330
1B
100
AcDbEntity
 67
     1
  8
0
  6
Continuous
 62
     7
370
    25
100
AcDbLine
 10
-42.914635846
 20
-33.2968744584
 30
0.0
 11
-42.914635846
 21
-33.3385180398
 31
0.0
  0
LINE
  5
150
330
1B
100
AcDbEntity
 67
     1
  8
0
  6
Continuous
 62
     7
370
    25
100
AcDbLine
 10
-49.6321502673
 20
-29.4605795087
 30
0.0
 11
-42.914635846
 21
-33.3385180398
 31
0.0
  0
LINE
  5
151
330
1B
100
AcDbEntity
 67
     1
  8
0
  6
Continuous
 62
     7
370
    25
100
AcDbLine
 10
-28.7725002223
 20
-25.1327933402
 30
0.0
 11
-28.7725002223
 21
-25.1744369216
 31
0.0
  0
LINE
  5
152
330
1B
100
AcDbEntity
 67
     1
  8
0
  6
Continuous
 62
     7
370
    25
100
AcDbLine
 10
-28.7725002223
 20
-25.1744369216
 30
0.0
 11
-42.914635846
 21
-33.3385180398
 31
0.0
  0
LINE
  5
153
330
1B
100
AcDbEntity
 67
     1
  8
0
  6
Continuous
 62
     7
370
    25
100
AcDbLine
 10
-56.3496646885
 20
-33.2968744584
 30
0.0
 11
-56.3496646885
 21
-33.3385180398
 31
0.0
  0
LINE
  5
154
330
1B
100
AcDbEntity
 67
     1
  8
0
  6
Continuous
 62
     7
370
    25
100
AcDbLine
 10
-55.9961112979
 20
-33.1344160119
 30
0.0
 11
-56.3496646885
 21
-33.3385180398
 31
0.0
  0
LINE
  5
155
330
1B
100
AcDbEntity
 67
     1
  8
0
  6
Continuous
 62
     7
370
    25
100
AcDbLine
 10
-60.5215946975
 20
-30.8884705285
 30
0.0
 11
-60.5215946975
 21
-30.93011411
 31
0.0
  0
LINE
  5
156
330
1B
100
AcDbEntity
 67
     1
  8
0
  6
Continuous
 62
     7
370
    25
100
AcDbLine
 10
-60.5215946975
 20
-30.93011411
 30
0.0
 11
-56.3496646885
 21
-33.3385180398
 31
0.0
  0
LINE
  5
157
330
1B
100
AcDbEntity
 67
     1
  8
0
  6
Continuous
 62
     7
370
    25
100
AcDbLine
 10
-49.6321502673
 20
-30.0728855925
 30
0.0
 11
-54.9354511262
 21
-33.1344160119
 31
0.0
  0
LINE
  5
158
330
1B
100
AcDbEntity
 67
     1
  8
0
  6
Continuous
 62
     7
370
    25
100
AcDbLine
 10
-50.6220997609
 20
-29.1740134937
 30
0.0
 11
-50.6220997609
 21
-29.2156570751
 31
0.0
  0
LINE
  5
159
330
1B
100
AcDbEntity
 67
     1
  8
0
  6
Continuous
 62
     7
370
    25
100
AcDbLine
 10
-51.4706278983
 20
-28.6841686266
 30
0.0
 11
-51.4706278983
 21
-28.725812208
 31
0.0
  0
LINE
  5
15A
330
1B
100
AcDbEntity
 67
     1
  8
0
  6
Continuous
 62
     7
370
    25
100
AcDbLine
 10
-51.4706278983
 20
-28.725812208
 30
0.0
 11
-50.6220997609
 21
-29.2156570751
 31
0.0
  0
LINE
  5
15B
330
1B
100
AcDbEntity
 67
     1
  8
0
  6
Continuous
 62
     7
370
    25
100
AcDbLine
 10
-60.5215946975
 20
-23.1325934662
 30
0.0
 11
-60.5215946975
 21
-23.1742370476
 31
0.0
  0
LINE
  5
15C
330
1B
100
AcDbEntity
 67
     1
  8
0
  6
Continuous
 62
     7
370
    25
100
AcDbLine
 10
-53.8762168912
 20
-27.0105319974
 30
0.0
 11
-60.5215946975
 21
-23.1742370476
 31
0.0
  0
LINE
  5
15D
330
1B
100
AcDbEntity
 67
     1
  8
0
  6
Continuous
 62
     7
370
    25
100
AcDbLine
 10
-49.9678654154
 20
-17.2457336076
 30
0.0
 11
-49.9678654154
 21
-17.287377189
 31
0.0
  0
LINE
  5
15E
330
1B
100
AcDbEntity
 67
     1
  8
0
  6
Continuous
 62
     7
370
    25
100
AcDbLine
 10
-49.9678654154
 20
-17.287377189
 30
0.0
 11
-45.0826593634
 21
-21.8401997245
 31
0.0
  0
LINE
  5
15F
330
1B
100
AcDbEntity
 67
     1
  8
0
  6
Continuous
 62
     7
370
    25
100
AcDbLine
 10
-34.4293544718
 20
-21.254854809
 30
0.0
 11
-34.4293544718
 21
-21.2964983904
 31
0.0
  0
LINE
  5
160
330
1B
100
AcDbEntity
 67
     1
  8
0
  6
Continuous
 62
     7
370
    25
100
AcDbLine
 10
-35.4178780286
 20
-21.2964983904
 30
0.0
 11
-34.4293544718
 21
-21.2964983904
 31
0.0
  0
LINE
  5
161
330
1B
100
AcDbEntity
 67
     1
  8
0
  6
Continuous
 62
     7
370
    25
100
AcDbLine
 10
-34.4293544718
 20
-21.2964983904
 30
0.0
 11
-29.1260536129
 21
-18.2349679711
 31
0.0
  0
LINE
  5
162
330
1B
100
AcDbEntity
 67
     1
  8
0
  6
Continuous
 62
     7
370
    25
100
AcDbLine
 10
-28.7725002223
 20
-17.3769162779
 30
0.0
 11
-28.7725002223
 21
-17.4185598593
 31
0.0
  0
LINE
  5
163
330
1B
100
AcDbEntity
 67
     1
  8
0
  6
Continuous
 62
     7
370
    25
100
AcDbLine
 10
-29.1260536129
 20
-17.6226618872
 30
0.0
 11
-28.7725002223
 21
-17.4185598593
 31
0.0
  0
LINE
  5
164
330
1B
100
AcDbEntity
 67
     1
  8
0
  6
Continuous
 62
     7
370
    25
100
AcDbLine
 10
-44.5700320023
 20
-37.3845627045
 30
0.0
 11
-44.5700320023
 21
-37.4262062859
 31
0.0
  0
LINE
  5
165
330
1B
100
AcDbEntity
 67
     1
  8
0
  6
Continuous
 62
     7
370
    25
100
AcDbLine
 10
-44.5700320023
 20
-37.3845627045
 30
0.0
 11
-42.8022650493
 21
-36.3640525647
 31
0.0
  0
LINE
  5
166
330
1B
100
AcDbEntity
 67
     1
  8
0
  6
Continuous
 62
     7
370
    25
100
AcDbLine
 10
-42.8022650493
 20
-36.3640525647
 30
0.0
 11
-42.8022650493
 21
-36.4056961461
 31
0.0
  0
LINE
  5
167
330
1B
100
AcDbEntity
 67
     1
  8
0
  6
Continuous
 62
     7
370
    25
100
AcDbLine
 10
-44.5700320023
 20
-37.4262062859
 30
0.0
 11
-42.8022650493
 21
-36.4056961461
 31
0.0
  0
LINE
  5
168
330
1B
100
AcDbEntity
 67
     1
  8
0
  6
Continuous
 62
     7
370
    25
100
AcDbLine
 10
-50.5804396423
 20
-33.9148282293
 30
0.0
 11
-50.5804396423
 21
-33.9564718107
 31
0.0
  0
LINE
  5
169
330
1B
100
AcDbEntity
 67
     1
  8
0
  6
Continuous
 62
     7
370
    25
100
AcDbLine
 10
-50.5804396423
 20
-33.9148282293
 30
0.0
 11
-44.5700320023
 21
-37.3845627045
 31
0.0
  0
LINE
  5
16A
330
1B
100
AcDbEntity
 67
     1
  8
0
  6
Continuous
 62
     7
370
    25
100
AcDbLine
 10
-50.5804396423
 20
-33.9564718107
 30
0.0
 11
-44.5700320023
 21
-37.4262062859
 31
0.0
  0
LINE
  5
16B
330
1B
100
AcDbEntity
 67
     1
  8
0
  6
Continuous
 62
     7
370
    25
100
AcDbLine
 10
-42.8022650493
 20
-36.3640525647
 30
0.0
 11
-48.8126726894
 21
-32.8943180895
 31
0.0
  0
LINE
  5
16C
330
1B
100
AcDbEntity
 67
     1
  8
0
  6
Continuous
 62
     7
370
    25
100
AcDbLine
 10
-48.8126726894
 20
-32.8943180895
 30
0.0
 11
-50.5804396423
 21
-33.9148282293
 31
0.0
  0
LINE
  5
16D
330
1B
100
AcDbEntity
 67
     1
  8
0
  6
Continuous
 62
     7
370
    25
100
AcDbLine
 10
-36.4933631495
 20
-36.847114303
 30
0.0
 11
-35.7862563683
 21
-37.2553183589
 31
0.0
  0
LINE
  5
16E
330
1B
100
AcDbEntity
 67
     1
  8
0
  6
Continuous
 62
     7
370
    25
100
AcDbLine
 10
-36.4933631495
 20
-36.847114303
 30
0.0
 11
-37.2004699307
 21
-37.2553183589
 31
0.0
  0
LINE
  5
16F
330
1B
100
AcDbEntity
 67
     1
  8
0
  6
Continuous
 62
     7
370
    25
100
AcDbLine
 10
-41.6552426522
 20
-34.6836328066
 30
0.0
 11
-37.2004699307
 21
-37.2553183589
 31
0.0
  0
LINE
  5
170
330
1B
100
AcDbEntity
 67
     1
  8
0
  6
Continuous
 62
     7
370
    25
100
AcDbLine
 10
-40.948135871
 20
-34.2754287507
 30
0.0
 11
-41.6552426522
 21
-34.6836328066
 31
0.0
  0
LINE
  5
171
330
1B
100
AcDbEntity
 67
     1
  8
0
  6
Continuous
 62
     7
370
    25
100
AcDbLine
 10
-40.948135871
 20
-34.2754287507
 30
0.0
 11
-41.6552426522
 21
-33.8672246948
 31
0.0
  0
LINE
  5
172
330
1B
100
AcDbEntity
 67
     1
  8
0
  6
Continuous
 62
     7
370
    25
100
AcDbLine
 10
-32.8164078874
 20
-28.7646739959
 30
0.0
 11
-41.6552426522
 21
-33.8672246948
 31
0.0
  0
LINE
  5
173
330
1B
100
AcDbEntity
 67
     1
  8
0
  6
Continuous
 62
     7
370
    25
100
AcDbLine
 10
-32.1093011062
 20
-29.1728780518
 30
0.0
 11
-32.8164078874
 21
-28.7646739959
 31
0.0
  0
LINE
  5
174
330
1B
100
AcDbEntity
 67
     1
  8
0
  6
Continuous
 62
     7
370
    25
100
AcDbLine
 10
-32.6355357402
 20
-28.6819875601
 30
0.0
 11
-32.1093011062
 21
-29.1728780518
 31
0.0
  0
LINE
  5
175
330
1B
100
AcDbEntity
 67
     1
  8
0
  6
Continuous
 62
     7
370
    25
100
AcDbLine
 10
-25.7341735558
 20
-26.2164350624
 30
0.0
 11
-32.6355357402
 21
-28.6819875601
 31
0.0
  0
LINE
  5
176
330
1B
100
AcDbEntity
 67
     1
  8
0
  6
Continuous
 62
     7
370
    25
100
AcDbLine
 10
-25.2079389218
 20
-26.7073255541
 30
0.0
 11
-25.7341735558
 21
-26.2164350624
 31
0.0
  0
LINE
  5
177
330
1B
100
AcDbEntity
 67
     1
  8
0
  6
Continuous
 62
     7
370
    25
100
AcDbLine
 10
-25.2079389218
 20
-26.7073255541
 30
0.0
 11
-24.5008321406
 21
-26.2991214982
 31
0.0
  0
LINE
  5
178
330
1B
100
AcDbEntity
 67
     1
  8
0
  6
Continuous
 62
     7
370
    25
100
AcDbLine
 10
-24.5008321406
 20
-26.2991214982
 30
0.0
 11
-21.3612780321
 21
-28.1115475065
 31
0.0
  0
LINE
  5
179
330
1B
100
AcDbEntity
 67
     1
  8
0
  6
Continuous
 62
     7
370
    25
100
AcDbLine
 10
-22.0683848133
 20
-28.5197515624
 30
0.0
 11
-21.3612780321
 21
-28.1115475065
 31
0.0
  0
LINE
  5
17A
330
1B
100
AcDbEntity
 67
     1
  8
0
  6
Continuous
 62
     7
370
    25
100
AcDbLine
 10
-21.3612780321
 20
-28.9279556183
 30
0.0
 11
-22.0683848133
 21
-28.5197515624
 31
0.0
  0
LINE
  5
17B
330
1B
100
AcDbEntity
 67
     1
  8
0
  6
Continuous
 62
     7
370
    25
100
AcDbLine
 10
-21.3612780321
 20
-28.9279556183
 30
0.0
 11
-35.7862563683
 21
-37.2553183589
 31
0.0
  0
LINE
  5
17C
330
1B
100
AcDbEntity
 67
     1
  8
0
  6
Continuous
 62
     7
370
    25
100
AcDbLine
 10
-35.7862563683
 20
-37.2553183589
 30
0.0
 11
-35.7862563683
 21
-37.2969619403
 31
0.0
  0
LINE
  5
17D
330
1B
100
AcDbEntity
 67
     1
  8
0
  6
Continuous
 62
     7
370
    25
100
AcDbLine
 10
-21.3612780321
 20
-28.9279556183
 30
0.0
 11
-21.3612780321
 21
-28.9695991997
 31
0.0
  0
LINE
  5
17E
330
1B
100
AcDbEntity
 67
     1
  8
0
  6
Continuous
 62
     7
370
    25
100
AcDbLine
 10
-21.3612780321
 20
-28.9695991997
 30
0.0
 11
-35.7862563683
 21
-37.2969619403
 31
0.0
  0
LINE
  5
17F
330
1B
100
AcDbEntity
 67
     1
  8
0
  6
Continuous
 62
     7
370
    25
100
AcDbLine
 10
-37.2004699307
 20
-37.2553183589
 30
0.0
 11
-37.2004699307
 21
-37.2969619403
 31
0.0
  0
LINE
  5
180
330
1B
100
AcDbEntity
 67
     1
  8
0
  6
Continuous
 62
     7
370
    25
100
AcDbLine
 10
-36.4933631495
 20
-36.847114303
 30
0.0
 11
-36.4933631495
 21
-36.8887578844
 31
0.0
  0
LINE
  5
181
330
1B
100
AcDbEntity
 67
     1
  8
0
  6
Continuous
 62
     7
370
    25
100
AcDbLine
 10
-36.4933631495
 20
-36.8887578844
 30
0.0
 11
-37.2004699307
 21
-37.2969619403
 31
0.0
  0
LINE
  5
182
330
1B
100
AcDbEntity
 67
     1
  8
0
  6
Continuous
 62
     7
370
    25
100
AcDbLine
 10
-36.4933631495
 20
-36.8887578844
 30
0.0
 11
-35.7862563683
 21
-37.2969619403
 31
0.0
  0
LINE
  5
183
330
1B
100
AcDbEntity
 67
     1
  8
0
  6
Continuous
 62
     7
370
    25
100
AcDbLine
 10
-41.6552426522
 20
-34.6836328066
 30
0.0
 11
-41.6552426522
 21
-34.7252763881
 31
0.0
  0
LINE
  5
184
330
1B
100
AcDbEntity
 67
     1
  8
0
  6
Continuous
 62
     7
370
    25
100
AcDbLine
 10
-41.6552426522
 20
-34.7252763881
 30
0.0
 11
-37.2004699307
 21
-37.2969619403
 31
0.0
  0
LINE
  5
185
330
1B
100
AcDbEntity
 67
     1
  8
0
  6
Continuous
 62
     7
370
    25
100
AcDbLine
 10
-41.6552426522
 20
-33.8672246948
 30
0.0
 11
-41.6552426522
 21
-33.9088682762
 31
0.0
  0
LINE
  5
186
330
1B
100
AcDbEntity
 67
     1
  8
0
  6
Continuous
 62
     7
370
    25
100
AcDbLine
 10
-40.9842041785
 20
-34.2962505414
 30
0.0
 11
-41.6552426522
 21
-33.9088682762
 31
0.0
  0
LINE
  5
187
330
1B
100
AcDbEntity
 67
     1
  8
0
  6
Continuous
 62
     7
370
    25
100
AcDbLine
 10
-32.6355357402
 20
-28.6819875601
 30
0.0
 11
-32.6355357402
 21
-28.7236311415
 31
0.0
  0
LINE
  5
188
330
1B
100
AcDbEntity
 67
     1
  8
0
  6
Continuous
 62
     7
370
    25
100
AcDbLine
 10
-32.6355357402
 20
-28.7236311415
 30
0.0
 11
-32.2264261477
 21
-29.1052632046
 31
0.0
  0
LINE
  5
189
330
1B
100
AcDbEntity
 67
     1
  8
0
  6
Continuous
 62
     7
370
    25
100
AcDbLine
 10
-21.3612780321
 20
-28.1115475065
 30
0.0
 11
-21.3612780321
 21
-28.1531910879
 31
0.0
  0
LINE
  5
18A
330
1B
100
AcDbEntity
 67
     1
  8
0
  6
Continuous
 62
     7
370
    25
100
AcDbLine
 10
-22.0323165058
 20
-28.5405733531
 30
0.0
 11
-21.3612780321
 21
-28.1531910879
 31
0.0
  0
ARC
  5
18B
330
1B
100
AcDbEntity
 67
     1
  8
0
  6
Continuous
 62
     7
370
    25
100
AcDbCircle
 10
-50.7250979339
 20
-29.4463353957
 30
0.0
 40
0.2526284054074037
100
AcDbArc
 50
10.8139091706
 51
65.9391754786
  0
VIEWPORT
  5
18C
330
1B
100
AcDbEntity
 67
     1
  8
0
100
AcDbViewport
 10
0.0
 20
0.0
 30
0.0
 40
8.4
 41
6.4
 68
     1
 69
     1
 12
2.9339326522
 22
-61.129825341
 13
0.0
 23
0.0
 14
0.5
 24
0.5
 15
0.5
 25
0.5
 16
0.0
 26
0.0
 36
1.0
 17
0.0
 27
0.0
 37
0.0
 42
50.0
 43
0.0
 44
0.0
 45
39.78
 50
0.0
 51
0.0
 72
   100
 90
   557152
  1

281
     0
 71
     1
 74
     0
110
0.0
120
0.0
130
0.0
111
1.0
121
0.0
131
0.0
112
0.0
122
1.0
132
0.0
 79
     0
146
0.0
  0
MTEXT
  5
18F
330
1B
100
AcDbEntity
 67
     1
  8
0
  6
Continuous
 62
     7
100
AcDbMText
 10
-60.5215946975
 20
-37.466346695
 30
0.0
 40
0.1903
 41
0.0
 71
     1
 72
     1
  1
SOLIDWORKS Educational Product.
  7
SLDTEXTSTYLE0
 73
     1
 44
1.0
  0
MTEXT
  5
190
330
1B
100
AcDbEntity
 67
     1
  8
0
  6
Continuous
 62
     7
100
AcDbMText
 10
-60.5215946975
 20
-37.751796695
 30
0.0
 40
0.1903
 41
0.0
 71
     1
 72
     1
  1
For Instructional Use Only.
  7
SLDTEXTSTYLE0
 73
     1
 44
1.0
  0
ENDSEC
  0
SECTION
  2
OBJECTS
  0
DICTIONARY
  5
C
330
0
100
AcDbDictionary
281
     1
  3
ACAD_GROUP
350
D
  3
ACAD_LAYOUT
350
1A
  3
ACAD_MLINESTYLE
350
17
  3
ACAD_PLOTSETTINGS
350
19
  3
ACAD_PLOTSTYLENAME
350
E
  3
ACAD_SCALELIST
350
47
  3
DWGPROPS
350
193
  0
DICTIONARY
  5
D
102
{ACAD_REACTORS
330
C
102
}
330
C
100
AcDbDictionary
281
     1
  0
DICTIONARY
  5
1A
102
{ACAD_REACTORS
330
C
102
}
330
C
100
AcDbDictionary
281
     1
  3
_Isometric
350
1E
  3
Layout2
350
26
  3
Model
350
22
  0
DICTIONARY
  5
17
102
{ACAD_REACTORS
330
C
102
}
330
C
100
AcDbDictionary
281
     1
  3
Standard
350
18
  0
DICTIONARY
  5
19
102
{ACAD_REACTORS
330
C
102
}
330
C
100
AcDbDictionary
281
     1
  0
ACDBDICTIONARYWDFLT
  5
E
102
{ACAD_REACTORS
330
C
102
}
330
C
100
AcDbDictionary
281
     1
  3
Normal
350
F
100
AcDbDictionaryWithDefault
340
F
  0
DICTIONARY
  5
47
102
{ACAD_REACTORS
330
C
102
}
330
C
100
AcDbDictionary
281
     1
  3
A0
350
48
  3
A1
350
49
  3
A2
350
4A
  3
A3
350
4B
  3
A4
350
4C
  3
A5
350
4D
  3
A6
350
4E
  3
A7
350
4F
  3
A8
350
50
  3
A9
350
51
  3
B1
350
52
  3
B2
350
53
  3
B3
350
54
  3
B4
350
55
  3
B5
350
56
  3
B6
350
57
  3
B7
350
58
  0
XRECORD
  5
193
102
{ACAD_REACTORS
330
C
102
}
330
C
100
AcDbXrecord
280
     1
  1
DWGPROPS COOKIE
  2

  3

  4

  6

  7

  8
danie
  9

300
=
301
=
302
=
303
=
304
=
305
=
306
=
307
=
308
=
309
=
 40
0.0
 41
2460005.703989178
 42
2460005.704056621
  1

 90
        0
  0
LAYOUT
  5
1E
102
{ACAD_REACTORS
330
1A
102
}
330
1A
100
AcDbPlotSettings
  1

  2
none_device
  4
Letter_(8.50_x_11.00_Inches)
  6

 40
6.35
 41
6.35
 42
6.35001
 43
6.35001
 44
215.9
 45
279.4
 46
0.0
 47
0.0
 48
0.0
 49
0.0
140
0.0
141
0.0
142
1.0
143
3.729554108
 70
   688
 72
     0
 73
     1
 74
     1
  7

 75
     0
147
0.2681285674
148
1537.2485053174
149
950.6256396625
100
AcDbLayout
  1
_Isometric
 70
     1
 71
     1
 10
-61.4539846929
 20
-38.3585948129
 11
-20.4288895051
 21
-6.6573848951
 12
0.0
 22
0.0
 32
0.0
 14
-60.5215946975
 24
-37.4262062859
 34
0.0
 15
-21.3612780321
 25
-14.9036628368
 35
0.0
146
0.0
 13
0.0
 23
0.0
 33
0.0
 16
1.0
 26
0.0
 36
0.0
 17
0.0
 27
1.0
 37
0.0
 76
     0
330
1B
331
18C
  0
LAYOUT
  5
26
102
{ACAD_REACTORS
330
1A
102
}
330
1A
100
AcDbPlotSettings
  1

  2
none_device
  4

  6

 40
0.0
 41
0.0
 42
0.0
 43
0.0
 44
0.0
 45
0.0
 46
0.0
 47
0.0
 48
0.0
 49
0.0
140
0.0
141
0.0
142
1.0
143
1.0
 70
   688
 72
     0
 73
     0
 74
     5
  7

 75
    16
147
1.0
148
0.0
149
0.0
100
AcDbLayout
  1
Layout2
 70
     1
 71
     2
 10
0.0
 20
0.0
 11
0.0
 21
0.0
 12
0.0
 22
0.0
 32
0.0
 14
0.0
 24
0.0
 34
0.0
 15
0.0
 25
0.0
 35
0.0
146
0.0
 13
0.0
 23
0.0
 33
0.0
 16
1.0
 26
0.0
 36
0.0
 17
0.0
 27
1.0
 37
0.0
 76
     0
330
23
  0
LAYOUT
  5
22
102
{ACAD_REACTORS
330
1A
102
}
330
1A
100
AcDbPlotSettings
  1

  2
none_device
  4
ANSI_A_(11.00_x_8.50_Inches)
  6

 40
6.35
 41
19.05
 42
6.35000508
 43
19.05000254
 44
279.4
 45
215.9
 46
117.2704667162
 47
423.9243576586
 48
0.0
 49
0.0
140
0.0
141
0.0
142
0.2157692308
143
1.0
 70
  1696
 72
     0
 73
     0
 74
     0
  7

 75
     0
147
0.5913241897
148
-39.4088153714
149
0.0
100
AcDbLayout
  1
Model
 70
     1
 71
     0
 10
0.0
 20
0.0
 11
12.0
 21
9.0
 12
0.0
 22
0.0
 32
0.0
 14
-14.4606346967
 24
-80.629825341
 34
0.0
 15
20.328500001
 25
-41.629825341
 35
0.0
146
0.0
 13
0.0
 23
0.0
 33
0.0
 16
1.0
 26
0.0
 36
0.0
 17
0.0
 27
1.0
 37
0.0
 76
     0
330
1F
331
29
  0
MLINESTYLE
  5
18
102
{ACAD_REACTORS
330
17
102
}
330
17
100
AcDbMlineStyle
  2
Standard
 70
     0
  3

 62
   256
 51
90.0
 52
90.0
 71
     2
 49
0.5
 62
   256
  6
BYLAYER
 49
-0.5
 62
   256
  6
BYLAYER
  0
ACDBPLACEHOLDER
  5
F
102
{ACAD_REACTORS
330
E
102
}
330
E
  0
SCALE
  5
48
102
{ACAD_REACTORS
330
47
102
}
330
47
100
AcDbScale
 70
     0
300
1:1
140
1.0
141
1.0
290
     1
  0
SCALE
  5
49
102
{ACAD_REACTORS
330
47
102
}
330
47
100
AcDbScale
 70
     0
300
1/128" = 1'-0"
140
0.0078125
141
12.0
290
     0
  0
SCALE
  5
4A
102
{ACAD_REACTORS
330
47
102
}
330
47
100
AcDbScale
 70
     0
300
1/64" = 1'-0"
140
0.015625
141
12.0
290
     0
  0
SCALE
  5
4B
102
{ACAD_REACTORS
330
47
102
}
330
47
100
AcDbScale
 70
     0
300
1/32" = 1'-0"
140
0.03125
141
12.0
290
     0
  0
SCALE
  5
4C
102
{ACAD_REACTORS
330
47
102
}
330
47
100
AcDbScale
 70
     0
300
1/16" = 1'-0"
140
0.0625
141
12.0
290
     0
  0
SCALE
  5
4D
102
{ACAD_REACTORS
330
47
102
}
330
47
100
AcDbScale
 70
     0
300
3/32" = 1'-0"
140
0.09375
141
12.0
290
     0
  0
SCALE
  5
4E
102
{ACAD_REACTORS
330
47
102
}
330
47
100
AcDbScale
 70
     0
300
1/8" = 1'-0"
140
0.125
141
12.0
290
     0
  0
SCALE
  5
4F
102
{ACAD_REACTORS
330
47
102
}
330
47
100
AcDbScale
 70
     0
300
3/16" = 1'-0"
140
0.1875
141
12.0
290
     0
  0
SCALE
  5
50
102
{ACAD_REACTORS
330
47
102
}
330
47
100
AcDbScale
 70
     0
300
1/4" = 1'-0"
140
0.25
141
12.0
290
     0
  0
SCALE
  5
51
102
{ACAD_REACTORS
330
47
102
}
330
47
100
AcDbScale
 70
     0
300
3/8" = 1'-0"
140
0.375
141
12.0
290
     0
  0
SCALE
  5
52
102
{ACAD_REACTORS
330
47
102
}
330
47
100
AcDbScale
 70
     0
300
1/2" = 1'-0"
140
0.5
141
12.0
290
     0
  0
SCALE
  5
53
102
{ACAD_REACTORS
330
47
102
}
330
47
100
AcDbScale
 70
     0
300
3/4" = 1'-0"
140
0.75
141
12.0
290
     0
  0
SCALE
  5
54
102
{ACAD_REACTORS
330
47
102
}
330
47
100
AcDbScale
 70
     0
300
1" = 1'-0"
140
1.0
141
12.0
290
     0
  0
SCALE
  5
55
102
{ACAD_REACTORS
330
47
102
}
330
47
100
AcDbScale
 70
     0
300
1-1/2" = 1'-0"
140
1.5
141
12.0
290
     0
  0
SCALE
  5
56
102
{ACAD_REACTORS
330
47
102
}
330
47
100
AcDbScale
 70
     0
300
3" = 1'-0"
140
3.0
141
12.0
290
     0
  0
SCALE
  5
57
102
{ACAD_REACTORS
330
47
102
}
330
47
100
AcDbScale
 70
     0
300
6" = 1'-0"
140
6.0
141
12.0
290
     0
  0
SCALE
  5
58
102
{ACAD_REACTORS
330
47
102
}
330
47
100
AcDbScale
 70
     0
300
1'-0" = 1'-0"
140
12.0
141
12.0
290
     0
  0
ENDSEC
  0
EOF
